<?xml version="1.0" standalone="no"?>
<!DOCTYPE svg PUBLIC "-//W3C//DTD SVG 20010904//EN"
 "http://www.w3.org/TR/2001/REC-SVG-20010904/DTD/svg10.dtd">
<svg version="1.0" xmlns="http://www.w3.org/2000/svg"
 width="1191.000000pt" height="1157.000000pt" viewBox="0 0 1191.000000 1157.000000"
 preserveAspectRatio="xMidYMid meet">

<g transform="translate(0.000000,1157.000000) scale(0.100000,-0.100000)"
fill="#000000" stroke="none">
<path d="M445 11540 c-255 -39 -444 -277 -421 -531 18 -198 137 -352 331 -430
l60 -24 625 -3 626 -3 213 -717 c442 -1483 595 -1996 796 -2672 283 -951 483
-1622 680 -2284 l167 -559 -55 -116 c-100 -211 -149 -348 -188 -532 -18 -81
-22 -138 -23 -259 0 -188 20 -283 93 -435 164 -343 509 -537 1041 -585 172
-15 228 -13 664 25 862 75 1823 148 2641 200 1073 69 2142 105 2587 87 125 -5
251 -5 279 -1 207 33 357 243 320 447 -25 134 -104 236 -227 294 -59 28 -79
31 -207 39 -797 46 -2928 -64 -5407 -279 -345 -30 -448 -36 -545 -31 -214 13
-365 57 -425 126 -28 31 -30 39 -30 111 0 105 50 292 78 292 8 0 369 43 801
95 432 53 991 120 1241 150 250 31 583 71 740 90 157 19 434 53 615 75 182 22
479 58 660 80 508 61 1519 183 2030 245 296 36 481 62 519 75 79 26 145 71
208 138 99 109 84 46 364 1499 657 3405 606 3132 600 3208 -16 203 -138 363
-332 438 l-59 22 -4292 3 -4291 2 -16 48 c-8 26 -101 337 -206 692 -105 355
-204 672 -219 705 -65 142 -221 255 -381 275 -88 11 -1581 11 -1655 0z m5225
-3510 l0 -800 -989 0 c-934 0 -990 1 -995 18 -142 466 -464 1567 -460 1573 3
5 534 9 1225 9 l1219 0 0 -800z m2510 0 l0 -800 -1020 0 -1020 0 0 793 c0 437
3 797 7 800 3 4 462 7 1020 7 l1013 0 0 -800z m2613 793 c3 -5 -64 -363 -147
-798 l-152 -790 -922 -3 -922 -2 0 793 c0 437 3 797 7 800 9 10 2131 9 2136 0z
m-5123 -2998 l0 -935 -22 -4 c-13 -3 -158 -21 -323 -41 -165 -19 -432 -51
-594 -71 -161 -19 -295 -34 -296 -32 -2 2 -99 323 -215 713 -116 391 -249 837
-296 992 -46 156 -84 290 -84 298 0 13 108 15 915 15 l915 0 0 -935z m2510
150 c0 -432 -3 -785 -7 -785 -7 0 -192 -22 -1375 -165 -339 -41 -626 -75 -638
-75 -20 0 -20 1 -20 898 0 494 3 902 7 905 3 4 462 7 1020 7 l1013 0 0 -785z
m2217 757 c-3 -15 -61 -314 -128 -663 -67 -348 -123 -635 -124 -637 -5 -6
-1478 -181 -1486 -176 -10 6 -12 1487 -2 1497 3 4 398 7 876 7 l870 0 -6 -28z"/>
<path d="M3910 1990 c-595 -69 -993 -652 -845 -1236 143 -564 760 -885 1306
-680 133 50 240 118 345 221 141 138 224 280 270 464 87 340 -12 698 -261 946
-210 211 -519 319 -815 285z"/>
<path d="M9560 1990 c-532 -61 -930 -558 -871 -1088 47 -418 334 -751 740
-860 84 -22 115 -25 251 -25 125 0 170 4 232 21 397 108 678 414 744 811 61
371 -106 761 -418 972 -193 131 -449 195 -678 169z"/>
</g>
</svg>
