<?xml version="1.0" standalone="no"?>
<!DOCTYPE svg PUBLIC "-//W3C//DTD SVG 20010904//EN"
 "http://www.w3.org/TR/2001/REC-SVG-20010904/DTD/svg10.dtd">
<svg version="1.0" xmlns="http://www.w3.org/2000/svg"
 width="7839.000000pt" height="5000.000000pt" viewBox="0 0 7839.000000 5000.000000"
 preserveAspectRatio="xMidYMid meet">

<g transform="translate(0.000000,5000.000000) scale(0.100000,-0.100000)"
fill="#000000" stroke="none">
<path d="M48204 49965 c2 -25 -4 -41 -21 -59 -13 -14 -23 -30 -23 -36 0 -25
-46 -98 -86 -137 -23 -23 -52 -59 -62 -80 -11 -21 -33 -52 -48 -69 -16 -17
-45 -52 -64 -78 -19 -26 -49 -64 -66 -84 -33 -40 -107 -164 -118 -198 -4 -12
-28 -41 -54 -66 -58 -56 -102 -105 -102 -115 0 -5 -13 -21 -28 -38 -15 -16
-50 -75 -77 -130 -27 -55 -54 -102 -59 -104 -20 -7 -125 -124 -132 -145 -4
-12 -11 -24 -16 -27 -5 -3 -24 -30 -43 -60 -38 -61 -77 -115 -117 -161 -15
-17 -41 -56 -57 -87 -16 -31 -51 -78 -77 -106 -25 -27 -61 -74 -80 -102 -19
-29 -36 -53 -38 -53 -5 0 -17 12 -73 73 -42 46 -44 47 -130 57 -49 6 -122 21
-163 35 -41 13 -104 27 -140 30 -36 4 -130 21 -210 37 -80 17 -176 34 -215 39
-71 9 -80 10 -220 49 -44 12 -107 24 -140 27 -33 2 -105 13 -160 23 -57 11
-156 20 -230 21 -71 1 -156 8 -190 15 -33 7 -105 14 -160 14 -64 0 -118 6
-150 16 -27 9 -99 20 -160 25 -60 4 -146 14 -190 23 -44 8 -129 18 -190 21
-60 3 -142 13 -182 20 -40 8 -116 15 -170 16 -54 0 -120 4 -148 9 -27 5 -88
14 -135 20 -47 6 -132 20 -190 32 -58 12 -145 23 -193 24 -48 1 -100 5 -115 9
-37 9 -185 24 -312 30 -58 3 -152 10 -209 15 -58 6 -140 10 -182 10 -43 0
-122 4 -176 10 -54 5 -206 11 -338 14 -132 3 -265 8 -295 10 -30 3 -235 8
-456 11 -220 3 -418 11 -440 16 -21 6 -129 14 -239 19 -110 5 -258 14 -330 20
-76 6 -410 11 -800 11 -572 1 -682 -2 -754 -15 -51 -10 -137 -16 -221 -16 -82
0 -171 -6 -218 -15 -69 -13 -89 -14 -147 -2 -53 11 -78 11 -133 1 -77 -14
-338 -25 -594 -25 -97 0 -205 -4 -240 -9 -34 -5 -169 -10 -298 -11 -129 -1
-264 -5 -300 -9 -111 -13 -180 -20 -274 -25 -50 -3 -122 -8 -161 -11 -38 -2
-151 -8 -251 -13 -100 -4 -186 -11 -192 -15 -6 -4 -46 -7 -89 -8 -56 0 -96 -8
-143 -25 -51 -19 -89 -25 -175 -28 -61 -2 -132 -9 -159 -15 -26 -6 -74 -13
-105 -16 -31 -3 -85 -11 -121 -19 -36 -8 -119 -17 -185 -20 -66 -3 -133 -9
-150 -12 -16 -4 -59 -6 -95 -5 -55 1 -166 -13 -260 -33 -83 -19 -152 -27 -285
-35 -82 -5 -166 -11 -185 -14 -19 -3 -89 -10 -154 -16 -65 -6 -123 -13 -128
-17 -6 -3 -45 -7 -87 -9 -193 -8 -296 -22 -326 -45 -15 -11 -164 -49 -192 -49
-13 0 -84 -16 -159 -35 -105 -27 -155 -35 -225 -35 -49 0 -97 -4 -107 -9 -27
-13 -82 -28 -137 -37 -27 -4 -52 -8 -55 -9 -7 -2 -139 -23 -180 -29 -19 -2
-100 -18 -179 -35 -79 -17 -162 -31 -185 -31 -22 0 -74 -11 -113 -25 -40 -13
-96 -27 -125 -30 -67 -8 -236 -35 -251 -40 -7 -3 -23 -6 -37 -9 -14 -3 -47
-12 -75 -20 -27 -9 -84 -19 -125 -22 -164 -12 -533 -82 -573 -109 -20 -13 -62
-24 -152 -40 -86 -15 -133 -25 -160 -33 -16 -6 -75 -20 -130 -33 -55 -12 -116
-30 -135 -39 -19 -10 -60 -21 -90 -26 -30 -4 -57 -8 -60 -9 -3 -1 -23 -6 -45
-12 -22 -7 -87 -21 -145 -33 -58 -12 -136 -33 -175 -47 -185 -64 -300 -93
-440 -108 -33 -4 -80 -16 -104 -26 -24 -10 -51 -19 -60 -19 -9 0 -21 -4 -26
-9 -22 -19 -232 -71 -289 -71 -14 0 -60 -13 -104 -29 -43 -16 -101 -32 -128
-36 -27 -4 -76 -20 -109 -35 -70 -32 -146 -50 -215 -50 -59 0 -165 -22 -240
-49 -30 -11 -82 -27 -115 -36 -33 -9 -87 -28 -120 -41 -33 -13 -68 -24 -78
-24 -28 0 -117 -31 -117 -41 0 -5 -3 -8 -7 -7 -5 1 -22 -6 -40 -15 -18 -9 -37
-17 -43 -17 -7 0 -26 -6 -43 -14 -39 -18 -139 -42 -232 -56 -46 -7 -101 -26
-160 -54 -104 -51 -235 -96 -276 -96 -16 0 -29 -4 -29 -10 0 -5 -7 -10 -16
-10 -9 0 -29 -9 -44 -20 -33 -23 -241 -94 -310 -105 -25 -4 -81 -22 -125 -40
-44 -18 -96 -36 -115 -40 -75 -15 -287 -90 -334 -117 -26 -16 -83 -36 -125
-44 -117 -24 -141 -31 -216 -59 -38 -15 -86 -31 -105 -37 -19 -5 -39 -14 -45
-18 -5 -4 -50 -17 -100 -30 -49 -12 -113 -33 -141 -46 -28 -12 -60 -24 -70
-26 -11 -1 -32 -12 -49 -24 -44 -30 -93 -53 -131 -60 -19 -3 -37 -10 -40 -15
-3 -5 -14 -9 -26 -9 -11 0 -70 -24 -132 -54 -159 -78 -291 -135 -366 -158 -36
-11 -82 -29 -102 -39 -21 -11 -45 -20 -55 -22 -10 -1 -22 -5 -28 -9 -40 -24
-127 -68 -136 -68 -6 0 -34 -11 -62 -24 -29 -13 -70 -29 -92 -36 -55 -17 -85
-31 -116 -52 -14 -9 -70 -32 -125 -51 -135 -47 -167 -60 -182 -74 -21 -20 -97
-51 -158 -63 -32 -7 -65 -16 -73 -21 -38 -20 -115 -49 -131 -49 -10 0 -20 -3
-22 -7 -5 -13 -108 -73 -123 -73 -8 0 -68 -27 -134 -60 -122 -62 -197 -90
-241 -90 -22 0 -90 -30 -155 -68 -40 -24 -174 -82 -188 -82 -8 0 -33 -14 -56
-31 -82 -59 -192 -119 -218 -119 -10 0 -36 -11 -58 -25 -50 -31 -99 -54 -198
-95 -43 -18 -101 -48 -128 -67 -28 -19 -69 -41 -92 -49 -53 -19 -157 -72 -221
-112 -28 -18 -57 -32 -65 -32 -24 -1 -94 -34 -195 -94 -50 -30 -107 -57 -126
-60 -20 -3 -59 -22 -89 -41 -29 -19 -55 -35 -58 -35 -2 0 -28 -16 -57 -35 -29
-19 -58 -35 -63 -35 -9 0 -58 -21 -94 -40 -9 -5 -33 -12 -53 -15 -20 -4 -39
-11 -42 -16 -3 -5 -13 -9 -23 -9 -10 0 -29 -13 -43 -29 -14 -15 -86 -58 -159
-95 -74 -37 -145 -73 -159 -81 -14 -8 -79 -40 -145 -71 -66 -32 -131 -66 -144
-76 -13 -10 -30 -18 -38 -18 -14 0 -95 -58 -101 -72 -2 -5 -11 -8 -20 -8 -9 0
-32 -9 -51 -21 -18 -11 -57 -29 -85 -40 -28 -11 -64 -33 -81 -47 -37 -34 -92
-72 -102 -72 -4 0 -21 -11 -37 -25 -16 -14 -34 -25 -40 -25 -6 0 -21 -11 -34
-25 -13 -13 -46 -31 -75 -41 -29 -9 -78 -32 -110 -50 -32 -19 -62 -34 -66 -34
-4 0 -26 -16 -48 -35 -23 -19 -48 -35 -56 -35 -9 0 -19 -5 -22 -10 -4 -6 -23
-19 -43 -30 -20 -12 -50 -29 -67 -40 -16 -11 -36 -23 -42 -26 -7 -3 -13 -12
-13 -19 0 -7 -15 -16 -32 -20 -37 -8 -188 -85 -188 -96 0 -9 -85 -59 -101 -59
-13 0 -161 -96 -198 -129 -13 -11 -31 -21 -40 -21 -15 0 -98 -52 -111 -68 -6
-9 -34 -24 -139 -80 -47 -24 -91 -51 -100 -59 -8 -9 -27 -20 -43 -25 -15 -6
-28 -14 -28 -18 0 -5 -16 -14 -35 -20 -19 -6 -35 -15 -35 -20 0 -5 -13 -11
-29 -15 -16 -3 -42 -17 -58 -31 -15 -13 -83 -52 -151 -85 -71 -36 -130 -71
-139 -85 -8 -13 -20 -24 -27 -24 -10 0 -86 -47 -113 -70 -7 -5 -17 -10 -22
-10 -5 0 -16 -9 -24 -20 -21 -30 -115 -98 -172 -125 -27 -12 -63 -34 -78 -49
-15 -14 -32 -26 -36 -26 -15 0 -126 -77 -170 -119 -24 -22 -48 -41 -52 -41
-14 0 -174 -99 -206 -127 -53 -48 -111 -93 -118 -93 -4 0 -21 -12 -39 -27 -17
-14 -55 -37 -83 -49 -29 -13 -63 -35 -75 -49 -12 -14 -28 -25 -35 -25 -7 0
-13 -3 -13 -8 0 -4 -38 -31 -84 -60 -46 -29 -87 -60 -90 -68 -3 -8 -11 -14
-19 -14 -7 0 -27 -13 -43 -29 -29 -28 -76 -60 -124 -83 -14 -6 -32 -18 -42
-26 -9 -7 -23 -15 -32 -16 -8 -1 -23 -9 -33 -18 -10 -9 -43 -31 -73 -51 -30
-19 -66 -47 -79 -61 -14 -14 -29 -26 -34 -26 -5 0 -27 -16 -50 -35 -22 -19
-46 -35 -53 -35 -7 0 -17 -6 -21 -13 -13 -20 -81 -67 -97 -67 -9 0 -33 -16
-55 -35 -21 -19 -43 -35 -49 -35 -6 0 -15 -6 -19 -13 -4 -7 -30 -29 -58 -47
-27 -19 -61 -46 -75 -61 -14 -15 -43 -37 -65 -49 -88 -47 -120 -71 -185 -136
-83 -84 -144 -136 -188 -158 -18 -9 -41 -23 -50 -31 -9 -8 -31 -25 -49 -37
-18 -13 -66 -51 -108 -85 -41 -35 -79 -63 -84 -63 -5 0 -27 -17 -49 -37 -22
-21 -66 -57 -98 -81 -109 -79 -198 -151 -206 -166 -5 -9 -15 -16 -21 -16 -7 0
-31 -18 -52 -40 -21 -22 -44 -40 -50 -40 -6 0 -18 -8 -26 -17 -25 -28 -128
-116 -168 -142 -40 -27 -111 -84 -149 -118 -14 -13 -30 -23 -37 -23 -6 0 -23
-12 -37 -27 -33 -35 -78 -73 -86 -73 -4 0 -19 -11 -33 -24 -14 -13 -34 -26
-45 -30 -10 -3 -37 -22 -59 -41 -60 -51 -69 -60 -85 -83 -8 -12 -18 -22 -23
-22 -5 0 -18 -11 -28 -25 -11 -13 -59 -48 -107 -77 -48 -29 -120 -85 -161
-125 -41 -40 -78 -73 -83 -73 -4 0 -14 -13 -22 -28 -8 -15 -27 -34 -43 -42
-89 -45 -186 -130 -245 -213 -40 -57 -52 -68 -93 -89 -55 -29 -105 -70 -195
-160 -42 -43 -80 -78 -84 -78 -8 0 -77 -72 -112 -117 -14 -18 -30 -33 -37 -33
-6 0 -21 -11 -32 -24 -11 -12 -33 -30 -50 -39 -16 -8 -52 -42 -80 -75 -27 -33
-69 -72 -92 -87 -24 -15 -51 -37 -61 -50 -10 -12 -27 -25 -37 -29 -11 -3 -42
-29 -70 -57 -27 -28 -63 -63 -78 -77 -16 -15 -58 -57 -95 -94 -36 -38 -73 -68
-81 -68 -9 -1 -34 -19 -56 -40 -22 -22 -43 -40 -47 -40 -5 0 -8 -7 -8 -16 0
-9 -29 -44 -64 -78 -80 -76 -83 -78 -159 -128 -63 -41 -76 -53 -182 -175 -33
-38 -90 -91 -127 -117 -37 -27 -70 -57 -73 -67 -4 -11 -10 -19 -15 -19 -8 0
-130 -116 -130 -124 0 -11 -98 -106 -109 -106 -6 0 -19 -12 -28 -27 -23 -35
-105 -118 -124 -125 -8 -3 -21 -18 -29 -33 -17 -32 -35 -52 -199 -220 -64 -66
-127 -136 -140 -155 -13 -19 -59 -64 -101 -100 -43 -36 -85 -76 -93 -90 -9
-14 -29 -39 -44 -55 -15 -17 -33 -40 -39 -50 -6 -11 -23 -27 -38 -35 -29 -16
-126 -108 -126 -120 0 -12 -168 -178 -187 -185 -19 -6 -103 -115 -103 -134 0
-6 -11 -16 -24 -23 -13 -7 -50 -42 -82 -78 -31 -36 -65 -68 -74 -72 -10 -3
-27 -20 -38 -36 -12 -16 -41 -48 -64 -70 -54 -52 -88 -86 -140 -140 -22 -23
-54 -52 -70 -63 -16 -12 -33 -31 -38 -43 -4 -11 -40 -60 -79 -108 -39 -48 -71
-91 -71 -95 0 -4 -24 -31 -53 -60 -28 -29 -65 -65 -80 -80 -61 -60 -87 -91
-87 -100 0 -5 -9 -21 -20 -34 -12 -12 -31 -39 -42 -58 -12 -19 -56 -69 -97
-111 -42 -42 -96 -102 -121 -134 -25 -32 -57 -72 -72 -90 -15 -17 -28 -34 -28
-38 0 -4 -12 -20 -26 -35 -14 -15 -42 -52 -62 -81 -19 -30 -41 -56 -49 -59 -7
-3 -13 -11 -13 -17 0 -14 -42 -56 -56 -56 -5 0 -31 -28 -59 -61 -27 -33 -65
-77 -82 -97 -18 -20 -33 -43 -33 -49 0 -7 -4 -13 -10 -13 -5 0 -33 -33 -63
-72 -30 -40 -93 -116 -140 -168 -48 -52 -87 -100 -87 -106 0 -5 -16 -25 -35
-44 -19 -19 -35 -39 -35 -44 0 -12 -109 -126 -120 -126 -4 0 -40 -43 -79 -95
-39 -52 -80 -99 -91 -105 -11 -6 -20 -16 -20 -22 0 -7 -14 -26 -31 -44 -16
-17 -38 -45 -47 -61 -51 -90 -84 -135 -149 -202 -40 -41 -73 -83 -73 -92 0
-10 -6 -24 -13 -31 -6 -7 -30 -39 -52 -72 -22 -32 -50 -68 -62 -80 -13 -11
-23 -25 -23 -29 0 -4 -16 -24 -35 -44 -19 -20 -35 -41 -35 -48 0 -6 -10 -21
-23 -33 -12 -11 -36 -47 -52 -78 -16 -31 -40 -63 -52 -71 -13 -9 -23 -20 -23
-25 0 -5 -18 -31 -40 -57 -22 -26 -40 -50 -40 -54 0 -3 -12 -19 -26 -34 -27
-29 -87 -114 -115 -163 -9 -16 -37 -52 -64 -82 -26 -29 -55 -68 -63 -85 -9
-18 -19 -33 -23 -33 -3 0 -9 -14 -13 -31 -4 -22 -29 -54 -76 -99 -39 -37 -70
-70 -70 -73 0 -2 -13 -19 -29 -36 -15 -17 -36 -47 -46 -68 -23 -51 -77 -137
-89 -142 -21 -9 -67 -64 -91 -109 -14 -26 -29 -54 -34 -62 -5 -8 -12 -23 -15
-33 -3 -9 -14 -20 -23 -24 -18 -6 -132 -122 -133 -135 0 -3 -16 -30 -35 -59
-19 -30 -35 -61 -35 -70 0 -9 -8 -25 -18 -37 -9 -11 -35 -46 -57 -78 -22 -31
-48 -64 -58 -73 -9 -8 -17 -20 -17 -25 0 -4 -15 -26 -34 -47 -19 -20 -39 -54
-45 -74 -11 -41 -60 -122 -104 -174 -16 -19 -36 -50 -44 -69 -17 -41 -121
-193 -144 -212 -4 -3 -9 -15 -13 -27 -6 -20 -45 -75 -79 -114 -13 -15 -37 -59
-81 -149 -9 -20 -44 -71 -76 -115 -33 -43 -60 -84 -60 -91 0 -8 -14 -33 -30
-56 -82 -117 -120 -177 -120 -190 0 -12 -32 -65 -80 -133 -8 -11 -28 -42 -45
-69 -16 -26 -47 -73 -67 -105 -21 -32 -38 -64 -38 -70 0 -6 -4 -11 -8 -11 -4
0 -24 -28 -45 -62 -20 -35 -50 -76 -67 -91 -16 -16 -30 -37 -30 -47 0 -10 -4
-21 -9 -25 -14 -8 -61 -95 -61 -111 0 -8 -18 -34 -40 -58 -22 -24 -40 -48 -40
-54 0 -6 -4 -12 -9 -14 -11 -4 -61 -85 -61 -99 0 -6 -15 -32 -34 -58 -38 -52
-126 -227 -126 -252 0 -9 -9 -27 -21 -40 -11 -13 -37 -51 -57 -84 -20 -33 -42
-66 -48 -73 -7 -6 -16 -22 -20 -35 -4 -12 -22 -46 -40 -75 -19 -29 -34 -55
-34 -58 0 -3 -13 -24 -28 -47 -41 -61 -122 -213 -122 -229 0 -15 -116 -215
-137 -236 -7 -7 -13 -20 -13 -28 0 -8 -17 -43 -38 -77 -63 -104 -72 -120 -94
-167 -72 -157 -84 -178 -137 -252 -19 -26 -36 -53 -37 -61 -1 -7 -15 -35 -32
-62 -17 -28 -40 -74 -52 -104 -11 -30 -29 -66 -39 -80 -9 -14 -44 -79 -77
-145 -32 -65 -69 -128 -81 -140 -13 -11 -23 -26 -23 -32 0 -6 -13 -28 -30 -49
-16 -20 -34 -53 -39 -72 -13 -45 -82 -152 -99 -153 -7 0 -11 -4 -7 -9 3 -5 1
-13 -5 -16 -8 -5 -8 -11 0 -20 8 -10 7 -14 -2 -18 -10 -4 -10 -6 0 -6 6 -1 12
-6 12 -12 0 -5 -3 -8 -7 -6 -5 3 -8 -14 -8 -38 -1 -24 3 -41 7 -39 4 3 8 0 8
-5 0 -6 -6 -11 -12 -11 -9 0 -10 -3 -2 -8 6 -4 10 -15 8 -24 -1 -10 4 -18 11
-18 7 0 15 -14 19 -30 3 -17 10 -36 16 -43 19 -22 70 -102 70 -110 0 -4 14
-26 30 -49 17 -22 30 -46 30 -53 0 -6 14 -33 31 -59 17 -27 39 -73 50 -102 11
-29 31 -63 44 -76 14 -13 25 -31 25 -40 0 -9 5 -20 11 -24 6 -3 19 -25 29 -49
10 -24 23 -46 29 -49 6 -4 11 -16 11 -26 0 -11 8 -27 18 -37 10 -10 29 -40 42
-68 13 -27 31 -61 40 -75 9 -14 28 -53 43 -88 15 -34 35 -72 46 -83 25 -28 97
-174 111 -225 5 -23 21 -52 34 -65 13 -13 38 -53 56 -88 17 -36 38 -71 46 -78
8 -8 14 -18 14 -22 0 -4 8 -16 18 -27 10 -10 28 -41 40 -69 13 -27 30 -63 39
-80 9 -16 32 -59 52 -95 19 -36 45 -80 58 -99 13 -19 23 -41 23 -50 0 -10 25
-57 56 -107 31 -49 68 -114 83 -144 15 -30 39 -73 54 -95 15 -22 27 -45 27
-53 0 -12 44 -101 73 -147 6 -11 29 -39 50 -62 20 -24 37 -48 37 -54 0 -6 16
-34 35 -60 19 -27 35 -53 35 -57 0 -5 14 -24 31 -43 18 -19 45 -61 61 -94 54
-109 70 -136 99 -168 16 -17 32 -41 35 -52 4 -11 22 -44 40 -73 19 -29 34 -54
34 -56 0 -2 12 -17 28 -33 15 -17 48 -72 74 -124 26 -52 63 -110 82 -130 19
-20 38 -50 42 -65 14 -56 84 -184 106 -192 5 -2 27 -31 49 -64 23 -33 49 -68
58 -78 18 -19 39 -55 88 -149 18 -35 40 -73 50 -83 23 -26 55 -79 94 -156 18
-35 40 -67 51 -73 10 -5 26 -25 36 -43 26 -49 109 -173 121 -181 6 -3 19 -23
30 -43 33 -68 56 -107 64 -110 4 -2 7 -12 7 -21 0 -10 15 -38 33 -62 18 -24
47 -69 63 -99 44 -81 55 -98 92 -137 18 -19 41 -52 51 -72 11 -20 28 -47 40
-60 12 -13 21 -29 21 -36 0 -6 18 -29 40 -50 22 -21 40 -43 40 -47 0 -4 8 -16
18 -26 28 -29 115 -142 136 -176 10 -17 31 -44 47 -60 16 -16 29 -35 29 -42 0
-7 6 -17 14 -21 12 -7 92 -122 126 -182 9 -15 30 -43 48 -62 17 -19 32 -38 32
-42 0 -5 13 -19 29 -32 15 -14 41 -49 57 -80 16 -30 32 -55 35 -55 4 0 12 -13
19 -30 7 -16 23 -36 36 -45 13 -8 39 -39 57 -68 19 -29 60 -80 91 -113 31 -32
56 -65 56 -72 0 -18 62 -122 72 -122 5 0 8 -4 8 -10 0 -5 16 -24 35 -43 19
-19 35 -38 35 -43 0 -6 31 -47 70 -92 38 -45 76 -98 85 -116 9 -18 28 -46 43
-62 28 -29 86 -116 112 -167 7 -15 26 -39 41 -55 16 -15 29 -31 29 -36 0 -5
16 -26 35 -47 19 -22 35 -44 35 -51 0 -6 18 -26 40 -45 22 -19 40 -39 40 -45
0 -12 62 -90 111 -140 21 -21 39 -42 41 -48 3 -11 51 -68 110 -131 20 -22 40
-49 43 -60 4 -10 10 -19 14 -19 5 0 21 -19 36 -42 27 -42 33 -50 72 -93 10
-11 23 -30 28 -42 6 -12 39 -47 75 -79 36 -32 72 -69 81 -83 9 -14 28 -37 43
-50 14 -14 26 -28 26 -31 0 -4 16 -25 35 -46 19 -21 35 -41 35 -44 0 -4 23
-31 51 -61 60 -64 159 -183 175 -211 7 -11 26 -34 43 -52 17 -17 31 -37 31
-43 0 -5 32 -39 71 -74 65 -59 96 -96 171 -201 15 -21 52 -62 83 -91 30 -30
55 -57 55 -62 0 -16 111 -154 175 -215 37 -36 87 -92 112 -125 26 -33 57 -71
70 -85 49 -52 93 -108 93 -117 0 -6 37 -46 83 -90 87 -84 147 -151 147 -165 0
-4 3 -8 8 -8 4 0 25 -17 48 -38 23 -20 71 -64 108 -96 36 -33 66 -65 66 -71 0
-6 14 -24 31 -41 17 -16 40 -45 52 -64 23 -37 424 -440 438 -440 5 0 9 -6 9
-14 0 -8 33 -42 74 -77 41 -35 75 -69 75 -75 1 -6 35 -41 76 -78 41 -37 75
-73 75 -79 0 -7 34 -45 75 -85 41 -41 75 -78 75 -82 0 -5 14 -17 30 -27 17 -9
33 -26 36 -36 7 -21 108 -127 122 -127 5 0 16 -10 24 -22 26 -39 113 -128 126
-128 6 0 19 -12 29 -27 21 -33 96 -108 121 -122 10 -5 24 -22 32 -38 15 -28
59 -81 93 -112 9 -9 38 -34 64 -56 56 -49 133 -126 193 -195 24 -28 58 -58 75
-66 54 -26 98 -63 230 -198 72 -72 150 -146 175 -163 25 -17 56 -43 69 -57 14
-14 29 -26 35 -26 13 0 95 -84 120 -122 10 -16 25 -28 32 -28 8 0 34 -18 58
-40 24 -22 46 -40 49 -40 3 0 47 -43 99 -96 51 -53 111 -115 133 -137 41 -42
78 -73 145 -122 19 -14 82 -72 140 -129 106 -105 205 -186 226 -186 6 0 31
-23 55 -52 24 -28 68 -75 96 -104 29 -28 53 -57 53 -63 0 -6 4 -11 10 -11 12
0 148 -98 177 -127 12 -13 26 -23 31 -23 5 0 39 -34 77 -75 37 -41 75 -75 84
-75 9 0 27 -9 41 -20 67 -53 121 -94 182 -141 38 -28 68 -55 68 -60 0 -5 5 -9
12 -9 7 0 27 -14 44 -31 18 -17 41 -36 52 -43 34 -19 177 -130 185 -143 4 -7
14 -13 22 -13 7 0 22 -10 32 -23 10 -12 34 -33 53 -47 19 -13 41 -32 48 -42 7
-10 25 -25 40 -33 15 -8 47 -33 72 -55 25 -23 65 -55 89 -73 23 -18 58 -47 76
-64 18 -18 38 -33 43 -33 5 0 43 -34 85 -75 41 -41 80 -75 85 -75 6 0 17 -6
24 -14 8 -7 29 -22 47 -32 19 -11 43 -24 54 -31 11 -6 32 -23 46 -37 14 -14
49 -45 78 -68 29 -24 68 -56 88 -73 20 -16 55 -40 78 -53 23 -13 69 -50 102
-82 175 -170 198 -189 264 -215 43 -16 85 -42 119 -74 30 -27 72 -62 94 -76
23 -15 55 -40 73 -56 46 -43 128 -99 143 -99 24 0 164 -104 185 -137 4 -7 13
-13 20 -13 7 0 34 -16 61 -35 27 -19 58 -35 68 -35 10 0 38 -18 62 -40 24 -22
48 -40 53 -40 5 0 16 -11 23 -25 9 -18 48 -42 119 -77 58 -28 112 -59 119 -69
7 -10 34 -33 60 -51 26 -17 61 -43 79 -57 59 -48 118 -88 154 -105 20 -10 50
-29 67 -44 17 -15 40 -34 52 -42 12 -8 31 -23 42 -32 11 -10 30 -20 42 -24 11
-4 56 -32 99 -63 43 -31 92 -66 110 -79 18 -12 37 -29 42 -35 10 -13 135 -99
181 -125 12 -6 36 -25 54 -42 17 -16 54 -41 83 -55 66 -32 128 -70 136 -83 5
-8 122 -88 173 -118 11 -6 32 -23 47 -38 14 -14 54 -37 86 -50 75 -31 184 -91
220 -122 16 -13 33 -24 40 -24 6 0 28 -16 49 -35 21 -19 43 -35 48 -35 5 0 18
-9 30 -20 12 -11 29 -20 38 -20 9 0 20 -4 26 -9 5 -5 33 -16 63 -25 48 -14
155 -84 163 -106 4 -11 110 -16 126 -6 8 5 10 2 5 -10 -4 -10 -2 -15 4 -11 5
3 10 0 10 -8 0 -8 -5 -11 -11 -8 -6 3 -5 0 2 -8 21 -23 13 -53 -21 -75 -21
-14 -38 -38 -51 -71 -13 -33 -40 -71 -78 -109 -32 -32 -58 -65 -58 -74 0 -14
-33 -62 -132 -192 -15 -20 -28 -44 -28 -52 0 -9 -25 -42 -56 -73 -32 -33 -70
-86 -86 -120 -17 -35 -36 -63 -43 -63 -18 0 -75 -76 -112 -152 -19 -38 -40
-71 -47 -74 -8 -3 -28 -28 -46 -57 -52 -83 -73 -111 -97 -130 -13 -10 -35 -40
-50 -65 -15 -26 -35 -56 -45 -66 -10 -11 -18 -25 -18 -31 0 -7 -9 -20 -21 -31
-11 -10 -42 -54 -69 -99 -27 -44 -69 -99 -93 -121 -26 -25 -46 -54 -50 -72 -4
-18 -32 -58 -69 -99 -35 -37 -79 -97 -97 -132 -18 -36 -53 -88 -77 -115 -25
-28 -47 -62 -51 -76 -3 -13 -31 -50 -62 -81 -31 -31 -67 -78 -80 -105 -14 -26
-34 -57 -46 -69 -56 -54 -115 -144 -115 -175 0 -10 -15 -28 -33 -40 -19 -13
-53 -57 -78 -99 -24 -41 -55 -84 -68 -96 -30 -25 -121 -162 -121 -182 0 -8
-14 -26 -30 -40 -17 -14 -42 -47 -55 -74 -14 -26 -52 -76 -85 -110 -33 -34
-60 -68 -60 -76 0 -15 -35 -66 -82 -118 -14 -16 -35 -40 -45 -52 -11 -12 -26
-41 -33 -64 -8 -24 -36 -65 -62 -93 -27 -28 -58 -71 -70 -95 -12 -25 -44 -68
-71 -95 -85 -88 -227 -289 -227 -323 0 -18 -60 -83 -76 -83 -8 0 -14 -5 -14
-11 0 -6 -16 -29 -35 -52 -19 -22 -35 -48 -35 -56 0 -9 -10 -27 -23 -41 -47
-51 -127 -158 -127 -170 0 -7 -18 -32 -40 -56 -22 -24 -40 -48 -40 -54 0 -6
-5 -16 -10 -23 -6 -7 -25 -34 -43 -62 -19 -27 -48 -59 -65 -70 -17 -11 -31
-24 -32 -30 0 -5 -16 -30 -35 -54 -19 -24 -35 -47 -35 -52 0 -4 -18 -34 -40
-65 -22 -32 -40 -65 -40 -74 0 -20 -45 -90 -69 -106 -40 -29 -61 -53 -86 -99
-15 -28 -38 -61 -51 -76 -13 -14 -24 -29 -24 -34 0 -4 -13 -20 -28 -34 -16
-14 -39 -46 -51 -71 -12 -25 -31 -54 -42 -65 -27 -27 -63 -81 -93 -135 -13
-25 -41 -61 -62 -81 -43 -41 -94 -98 -94 -106 0 -3 -34 -56 -75 -118 -41 -62
-75 -118 -75 -124 0 -5 -18 -25 -40 -42 -22 -18 -40 -38 -40 -44 0 -7 -13 -28
-30 -46 -16 -19 -30 -36 -30 -39 0 -3 -20 -28 -45 -55 -25 -28 -45 -55 -45
-62 0 -16 -55 -105 -107 -175 -24 -31 -43 -61 -43 -66 0 -10 -64 -96 -102
-136 -10 -11 -18 -22 -19 -25 -1 -3 -2 -18 -3 -34 l-3 -27 4266 2 4266 3 0 25
c0 14 13 39 29 55 15 17 43 59 61 94 20 38 46 71 64 82 17 10 37 30 43 44 6
14 15 25 20 25 4 0 8 8 8 18 0 10 9 28 20 40 11 12 20 25 20 31 0 5 15 22 33
38 17 15 48 59 67 98 31 61 101 145 123 145 4 0 7 8 7 19 0 25 44 88 95 136
24 22 52 60 63 85 10 25 33 61 51 80 62 69 72 85 107 163 9 22 24 42 33 45 27
10 92 85 98 114 3 14 26 46 52 71 44 42 101 133 101 160 0 7 27 41 60 77 34
35 63 75 66 87 4 13 10 23 15 23 5 0 9 7 9 15 0 8 18 28 39 43 24 17 52 51 74
92 20 36 50 79 67 95 17 16 50 65 72 107 24 44 57 90 78 106 19 16 48 54 63
85 17 34 47 73 82 103 34 30 55 56 55 70 0 21 43 88 74 113 25 21 72 94 80
124 3 15 36 56 71 91 42 42 67 75 71 96 4 20 22 43 48 65 39 32 116 152 116
181 0 7 13 23 29 36 33 25 91 102 91 118 0 6 29 40 65 76 36 36 65 70 65 76 0
19 61 105 91 127 16 12 29 29 29 38 0 23 47 119 73 150 12 13 34 31 50 39 15
8 27 21 27 30 0 23 55 98 87 119 38 25 62 56 63 81 0 24 41 86 110 169 27 32
50 67 50 77 0 10 25 42 56 71 37 35 65 72 84 113 15 34 38 68 50 77 25 17 110
152 110 174 0 6 18 26 40 44 34 27 110 136 110 157 0 4 13 13 29 20 20 9 40
33 61 74 36 68 34 66 87 128 21 25 51 70 66 102 18 37 45 72 82 103 30 26 55
55 55 64 0 19 70 120 84 121 14 0 35 30 61 85 13 28 35 62 49 77 14 15 26 30
26 34 0 4 10 15 23 26 12 10 36 47 52 80 17 34 39 66 50 72 10 6 28 21 38 34
10 12 24 28 31 35 6 6 18 28 25 47 8 19 29 51 46 70 43 46 115 160 115 180 0
9 12 23 26 30 29 16 99 109 123 166 5 12 23 27 39 35 16 7 35 26 42 43 20 44
61 107 103 158 20 24 50 71 67 105 18 36 45 72 63 85 47 33 55 43 76 90 11 24
42 66 70 95 33 34 58 72 72 108 14 37 40 76 79 118 33 34 62 74 65 89 4 16 29
47 59 74 51 44 96 110 96 140 0 7 11 21 25 30 29 19 82 95 117 168 13 28 35
56 51 65 15 9 33 26 40 38 47 86 79 131 106 148 17 11 38 36 47 55 36 81 69
135 99 165 18 17 43 51 55 75 25 50 85 117 111 125 9 3 24 26 34 52 10 26 39
67 66 94 49 49 79 96 79 124 0 30 32 77 91 135 34 34 59 67 59 79 0 12 14 30
33 43 51 35 93 88 108 136 7 24 26 58 43 75 37 38 66 83 101 154 15 30 39 60
58 72 36 22 54 47 104 144 8 15 19 27 24 27 18 0 46 34 74 89 15 30 33 61 41
69 8 7 14 20 14 28 0 8 4 14 9 14 13 0 71 62 71 76 0 26 46 90 97 138 29 27
53 57 53 66 0 10 19 41 43 70 81 99 105 135 111 161 3 15 29 51 58 80 29 30
67 80 83 113 17 33 43 67 57 75 34 20 63 58 88 113 10 24 33 57 50 73 18 17
41 48 52 70 11 22 24 42 27 45 4 3 13 20 20 38 8 18 28 42 45 55 39 27 62 53
81 92 9 17 22 41 29 54 16 26 64 71 78 71 4 0 8 9 8 21 0 21 48 111 62 117 4
2 8 10 8 17 0 7 16 27 36 45 21 18 48 54 61 81 14 27 45 66 70 86 28 23 54 57
68 88 12 27 45 75 73 104 29 32 62 81 77 117 14 33 36 67 48 73 31 18 87 90
93 121 3 15 29 47 60 74 36 33 63 69 83 111 16 34 36 65 44 68 19 7 80 99 108
161 15 34 30 52 49 59 20 8 39 30 62 71 18 33 50 77 71 97 21 21 56 72 78 116
22 43 58 96 80 117 22 22 48 58 59 80 10 23 46 67 79 99 36 34 61 65 61 77 0
22 7 33 53 82 53 57 97 121 97 140 0 22 7 32 74 102 27 28 60 75 72 104 13 28
29 52 35 52 10 0 89 74 89 84 0 22 63 135 84 151 14 11 26 25 26 31 0 6 7 17
15 24 7 6 27 35 44 63 16 29 42 61 59 71 16 11 45 50 67 90 21 39 54 89 74
112 20 23 56 78 80 123 24 44 49 81 56 81 17 0 50 40 66 80 7 19 42 64 76 100
35 35 63 72 63 81 0 10 34 59 75 111 41 52 74 103 75 115 0 21 77 113 95 113
12 0 33 30 60 88 14 29 35 57 48 63 12 6 27 19 32 29 40 76 93 156 123 189 21
20 48 59 61 86 13 27 50 74 81 106 32 32 60 69 64 84 7 27 24 52 71 99 17 17
46 61 65 97 44 82 57 99 98 129 17 13 32 31 32 40 0 19 46 89 74 112 49 41 77
75 85 106 6 18 26 52 46 75 20 23 42 49 49 57 23 27 56 87 56 102 0 8 8 22 18
30 75 69 110 109 126 145 10 22 35 57 55 76 21 20 53 66 72 104 19 37 58 94
86 126 29 32 53 62 53 67 0 19 61 98 78 102 10 3 36 36 57 74 21 38 60 92 87
120 26 28 48 56 48 63 0 24 61 117 93 143 19 15 44 48 57 75 12 26 49 73 80
103 43 40 61 66 70 98 6 23 24 57 40 76 17 18 30 37 30 40 0 4 13 18 29 32 16
13 36 41 44 61 15 39 43 72 89 108 31 24 68 83 68 108 0 10 13 25 29 34 16 10
35 26 42 38 33 52 79 138 79 147 0 6 19 29 43 52 50 49 77 85 77 103 0 7 25
36 55 66 31 30 68 79 84 113 16 32 48 83 72 113 24 30 53 75 65 101 23 51 62
100 77 100 15 0 46 40 66 85 10 22 43 66 74 97 31 32 59 70 63 85 6 23 62 105
85 123 18 15 69 96 69 110 0 10 25 40 55 68 53 49 95 109 95 137 0 8 16 26 35
41 34 26 43 38 82 114 10 19 21 37 26 38 4 2 7 12 7 21 0 20 40 61 58 61 7 0
20 16 29 35 9 19 20 35 24 35 4 0 10 11 13 25 4 14 31 48 61 77 30 29 55 57
55 63 0 18 78 132 94 138 9 4 30 37 48 74 21 44 53 88 89 123 31 30 59 67 62
81 4 14 34 55 67 90 33 35 60 70 60 77 0 6 5 12 10 12 6 0 10 10 10 23 0 28
19 56 82 124 27 29 57 72 68 97 10 25 30 51 43 58 35 19 82 77 98 121 8 22 30
53 49 71 36 33 66 79 101 153 11 23 33 52 50 64 26 18 62 71 107 155 8 14 26
30 41 35 19 7 35 26 55 69 29 60 60 103 109 150 15 15 27 33 27 41 0 18 58
119 69 119 17 0 79 73 85 100 3 17 29 52 65 87 43 42 65 73 80 114 14 37 40
75 77 115 31 32 65 78 74 100 10 23 37 57 60 75 41 33 90 103 90 129 0 7 18
28 40 47 22 19 40 41 40 49 0 8 3 14 8 14 7 0 56 90 66 122 2 9 17 22 32 30
27 13 34 23 89 119 15 26 44 59 66 75 22 17 43 44 50 63 18 53 67 132 103 166
18 17 38 45 46 64 7 18 41 61 75 95 34 33 65 74 69 89 4 16 33 55 65 88 32 32
63 71 69 86 5 16 18 50 27 76 9 27 25 52 35 55 25 10 100 100 100 121 0 10 12
27 27 36 55 37 123 129 123 169 0 8 18 33 40 55 22 22 40 43 40 47 0 4 6 15
14 23 7 9 28 44 45 77 21 42 41 66 59 73 15 6 32 20 37 30 41 77 60 105 94
139 21 21 49 58 61 83 13 24 33 58 46 75 13 17 24 36 24 42 0 7 6 12 13 12 17
0 50 46 68 93 7 22 40 63 76 98 35 34 63 68 63 76 0 18 29 61 82 123 58 67 59
68 70 107 6 22 30 56 62 87 56 54 96 113 96 139 0 9 13 23 28 31 34 18 70 62
105 131 13 28 35 59 47 70 23 21 71 94 104 158 10 20 30 44 44 53 29 19 71 65
72 78 0 12 62 106 70 106 15 0 50 38 50 54 0 26 82 156 112 178 15 10 36 39
47 64 12 26 48 72 86 108 40 38 65 70 65 83 0 18 63 104 90 123 14 10 60 90
60 105 0 9 27 44 59 78 33 33 68 79 77 101 10 23 30 51 44 64 14 13 35 32 47
43 12 11 35 46 50 77 15 31 43 69 61 85 17 16 32 33 32 39 0 5 13 28 28 51 16
23 36 58 45 78 10 22 26 39 39 43 22 5 48 40 75 101 8 17 36 51 63 77 28 26
50 52 50 59 0 24 65 126 112 174 26 28 50 62 53 77 4 15 34 52 70 86 47 43 66
70 74 100 6 22 26 58 44 80 71 86 79 98 94 132 33 74 38 83 53 88 27 10 88 79
101 116 7 20 16 36 20 36 23 0 99 92 124 150 16 36 41 77 57 92 15 14 28 31
28 37 0 5 6 14 13 18 7 4 28 34 46 66 19 33 46 67 62 76 17 11 42 45 64 87 19
38 55 89 79 114 25 25 45 51 46 58 1 26 61 118 96 146 20 15 44 49 55 75 12
28 43 68 78 101 36 33 63 69 70 91 7 20 25 52 41 70 55 63 110 143 110 160 0
16 22 41 89 102 17 16 42 52 55 80 15 33 35 59 55 70 17 10 31 22 31 27 0 4
16 36 35 70 19 34 35 67 35 73 0 6 19 30 43 52 50 48 77 84 77 102 0 7 29 42
65 78 36 36 65 72 65 81 0 18 25 53 85 117 22 24 49 66 59 93 11 27 28 58 38
68 10 11 18 23 18 27 0 4 16 16 35 27 21 13 37 32 41 49 9 34 32 72 59 96 56
49 86 84 94 114 5 17 21 44 36 60 47 50 115 150 115 170 0 11 24 41 55 68 34
31 65 71 84 109 18 35 43 69 61 81 19 13 45 50 72 103 23 46 56 96 73 111 18
15 50 58 72 95 23 38 54 76 71 86 17 11 42 42 58 75 16 31 53 83 82 115 28 32
52 68 52 79 0 12 4 21 8 21 5 0 16 16 25 36 10 20 39 56 66 80 28 26 51 56 54
73 4 16 32 54 71 93 46 46 67 76 75 106 11 39 29 66 96 140 17 19 42 57 56 85
14 29 35 57 46 62 30 16 103 110 103 134 0 5 22 31 50 58 27 26 50 51 50 55 0
4 11 32 25 62 14 30 25 58 25 61 0 4 27 34 60 66 33 32 60 64 60 72 0 14 52
74 85 98 12 7 33 41 49 74 23 50 82 136 107 155 3 3 18 32 33 65 15 34 39 70
53 80 47 35 73 65 89 103 8 20 39 62 69 92 30 30 63 76 74 103 11 26 33 60 48
75 42 41 70 81 97 137 14 30 43 66 69 88 29 23 56 59 73 95 15 31 43 70 61 85
18 16 33 35 33 42 0 7 4 15 9 17 4 2 25 34 45 72 20 38 46 74 58 80 13 6 28
21 34 34 6 12 18 30 26 39 9 10 19 27 22 38 9 27 35 58 68 79 14 9 36 38 48
64 12 26 25 49 29 52 4 3 17 21 29 42 12 20 29 39 38 42 8 3 27 33 43 66 36
75 73 124 112 147 16 10 33 29 36 43 7 30 60 110 73 110 13 0 80 95 80 114 0
24 26 62 91 134 31 34 59 75 62 91 3 16 18 36 34 46 41 26 79 73 108 132 14
29 39 62 55 74 16 12 34 36 41 53 7 17 16 33 20 36 3 3 19 29 34 58 15 29 36
57 46 63 18 9 119 152 119 167 0 4 13 13 28 19 18 9 37 32 56 70 25 51 74 119
119 165 9 10 17 27 17 38 0 11 4 20 9 20 5 0 12 11 15 24 5 22 19 37 99 110
15 14 27 34 27 44 0 26 78 122 99 122 8 0 55 89 65 125 4 11 33 48 65 83 32
34 65 77 72 95 14 37 47 77 63 77 11 0 63 73 89 125 8 17 27 41 42 55 15 14
47 66 71 115 25 50 52 96 62 103 41 30 74 67 86 96 13 31 82 106 97 106 5 0
24 33 44 73 49 100 55 109 97 146 20 17 40 46 43 62 4 19 32 56 71 95 39 40
67 77 73 99 5 19 34 63 64 98 55 63 76 96 97 155 7 17 16 32 20 32 16 0 89 85
106 124 10 23 30 51 44 64 62 56 80 76 80 86 0 6 9 22 20 36 11 14 20 32 20
40 0 8 16 28 35 45 19 16 35 33 35 36 0 4 18 37 40 73 22 36 40 70 40 75 0 6
15 17 34 26 26 12 44 33 67 78 18 34 54 82 81 107 28 27 48 55 48 67 0 12 5
25 10 28 6 4 22 24 36 46 13 22 42 58 64 81 21 23 41 56 45 74 4 23 23 49 65
86 37 34 66 71 79 101 11 26 31 58 43 70 46 46 87 104 111 157 15 34 39 67 64
87 23 18 52 55 66 83 14 28 47 72 74 98 26 26 60 72 75 102 15 30 42 69 60 86
18 17 47 58 63 90 16 32 33 61 37 62 4 2 8 10 8 17 0 7 12 21 28 31 28 18 72
64 72 76 0 16 64 108 76 108 16 0 49 46 57 80 8 33 76 140 88 140 16 0 58 53
64 83 4 16 36 56 76 94 39 38 69 75 69 86 0 18 55 95 86 122 20 17 64 94 64
111 0 9 25 41 55 71 31 29 69 80 86 113 17 33 40 65 52 71 33 17 55 47 92 127
35 74 55 102 75 102 6 0 15 11 20 24 17 47 80 132 109 149 17 10 33 26 36 37
4 11 10 20 14 20 4 0 13 16 20 35 7 20 37 59 67 89 30 29 54 60 54 69 0 18 43
113 63 137 7 9 29 29 50 44 20 16 37 37 37 47 0 10 31 50 69 88 49 49 73 82
80 109 6 21 20 50 32 63 44 49 99 126 99 137 0 7 5 12 10 12 6 0 10 10 10 23
0 16 19 41 61 78 36 32 68 71 80 99 11 25 40 64 64 88 25 24 48 54 51 68 3 13
10 24 14 24 4 0 13 14 21 31 7 18 29 49 49 69 20 21 55 71 78 113 31 56 49 77
70 85 22 8 38 27 63 78 19 37 55 91 82 119 26 29 47 58 47 65 0 24 56 107 101
147 28 26 49 54 52 73 4 19 30 53 70 93 40 38 69 76 76 100 7 20 26 51 43 67
42 42 108 141 108 162 0 9 14 30 30 45 81 74 99 96 115 135 10 27 29 52 50 67
19 13 35 27 35 32 0 4 16 35 35 68 19 32 35 66 35 75 0 9 15 25 33 37 30 20
87 95 87 115 0 11 69 87 90 100 8 5 26 31 40 59 14 27 48 75 76 106 27 32 56
76 64 98 7 23 16 41 19 41 3 0 16 17 29 38 13 21 33 42 45 47 12 6 36 39 54
75 18 36 37 66 43 68 21 7 91 88 97 112 7 31 20 49 65 98 19 21 41 49 48 62 7
14 19 31 27 38 7 7 13 24 13 37 0 17 16 37 54 67 38 30 64 62 88 108 18 35 43
70 56 76 13 6 34 31 46 55 63 123 80 151 106 172 15 12 43 49 63 82 20 34 54
75 76 93 23 18 41 39 41 47 0 8 4 15 9 15 5 0 11 10 15 23 6 25 33 62 89 121
20 22 37 45 37 51 0 27 50 104 98 149 31 30 52 59 52 72 0 19 33 57 113 133
13 12 32 45 40 71 16 49 23 60 88 133 35 39 60 81 73 120 3 9 16 21 29 26 13
5 31 20 40 34 8 13 22 30 29 38 8 8 23 36 34 62 10 27 33 61 49 76 17 14 37
40 45 56 8 17 18 32 21 35 4 3 18 28 32 55 14 28 38 60 54 71 16 12 50 58 77
103 31 53 54 81 66 81 12 0 30 23 55 71 20 39 45 79 54 89 55 60 70 80 89 124
12 27 22 66 22 87 l0 39 -4445 0 -4444 0 3 -35z m-1636 -2318 c-10 -20 -11
-20 -24 -2 -10 13 -11 23 -2 38 10 20 11 20 24 2 10 -13 11 -23 2 -38z m-286
-414 c-2 -7 -8 -13 -12 -13 -15 0 -19 31 -7 57 l12 27 6 -30 c3 -16 3 -35 1
-41z m-140 -145 c-6 -6 -15 -9 -18 -5 -4 3 -4 14 0 23 5 13 9 15 18 6 9 -9 9
-15 0 -24z m-284 -426 c-17 -20 -32 2 -23 35 l7 28 13 -25 c10 -18 10 -29 3
-38z m-139 -158 l-11 -29 -13 30 c-16 37 -1 65 22 42 11 -11 11 -19 2 -43z
m-280 -407 c-11 -20 -12 -20 -25 -2 -15 21 -2 37 22 28 11 -4 11 -10 3 -26z
m-287 -425 c-3 -9 -8 -10 -18 -1 -11 9 -11 16 -2 32 11 21 11 21 18 2 4 -11 5
-26 2 -33z m-138 -121 c7 -11 -3 -41 -14 -41 -10 0 -20 37 -12 44 8 9 20 7 26
-3z m-146 -298 c-22 -27 -37 12 -21 53 6 16 9 14 19 -11 8 -21 9 -34 2 -42z
m-139 -146 c-11 -20 -12 -20 -25 -2 -15 21 -2 37 22 28 11 -4 11 -10 3 -26z
m-279 -421 c-5 -5 -16 -6 -24 -3 -13 5 -14 11 -4 32 l12 26 12 -23 c7 -13 9
-27 4 -32z m-130 -142 c0 -8 -4 -14 -10 -14 -5 0 -10 -8 -11 -17 0 -12 -5 -7
-14 12 -16 36 -2 63 21 44 8 -6 14 -18 14 -25z m-299 -407 c-1 -4 -1 -15 -1
-24 0 -16 -1 -16 -16 -1 -9 9 -13 21 -9 28 7 12 27 10 26 -3z m-284 -439 c-19
-12 -27 -9 -27 10 0 28 13 35 27 16 10 -14 10 -19 0 -26z m-133 -125 c8 -21
-14 -36 -31 -21 -10 8 -10 14 -2 24 15 19 25 18 33 -3z m-147 -301 c-8 -11
-13 -10 -25 2 -14 13 -14 19 -2 42 l15 26 11 -28 c9 -21 9 -33 1 -42z m-139
-145 c-10 -20 -11 -20 -24 -2 -18 24 1 52 22 34 10 -8 11 -16 2 -32z m-293
-425 c-12 -13 -24 22 -12 37 10 12 13 11 15 -8 2 -13 1 -26 -3 -29z m-125
-120 c0 -4 -5 -14 -10 -22 -9 -13 -11 -13 -19 0 -6 9 -6 19 1 27 10 12 28 9
28 -5z m-291 -444 c-12 -23 -29 -14 -29 16 0 31 12 40 27 20 9 -12 9 -22 2
-36z m-282 -416 c-7 -9 -13 -9 -23 -2 -9 9 -10 18 -2 42 l11 31 12 -29 c8 -20
9 -33 2 -42z m-140 -162 c-12 -31 -27 -23 -27 16 0 27 10 36 26 24 9 -8 9 -18
1 -40z m-285 -414 c-5 -18 -6 -18 -18 -1 -10 13 -10 23 -1 42 l12 26 5 -24 c4
-13 4 -33 2 -43z m-285 -414 c-16 -19 -27 5 -19 43 l5 30 13 -30 c9 -22 9 -34
1 -43z m-127 -127 c0 -1 -6 -18 -14 -36 l-14 -34 -7 27 c-9 36 0 59 20 52 8
-3 15 -7 15 -9z m-292 -443 c-19 -22 -39 5 -26 34 l12 25 12 -23 c9 -16 9 -27
2 -36z m-128 -131 c0 -9 -7 -24 -14 -33 -12 -16 -14 -16 -23 5 -7 15 -7 29 -2
40 11 20 39 11 39 -12z m-8755 -386 c28 -3 86 -10 130 -15 44 -5 123 -13 175
-16 52 -3 140 -17 195 -31 70 -17 147 -27 255 -33 172 -9 404 -34 489 -51 31
-6 71 -14 90 -17 19 -2 61 -20 94 -39 43 -26 78 -37 129 -44 79 -10 139 -24
183 -44 114 -52 214 -86 277 -96 67 -10 166 -44 178 -61 3 -3 19 -9 35 -13 17
-4 50 -16 75 -27 57 -26 167 -58 200 -58 33 0 168 -67 207 -103 10 -8 47 -30
83 -47 36 -18 72 -39 81 -47 20 -17 190 -103 205 -103 17 0 76 -31 107 -57 16
-12 35 -23 43 -23 8 0 24 -8 34 -18 11 -10 41 -29 66 -41 25 -13 69 -38 97
-57 28 -19 57 -34 65 -34 7 0 58 -30 113 -67 118 -80 115 -78 157 -94 18 -6
64 -43 101 -80 38 -38 73 -69 78 -69 5 0 29 -18 52 -40 23 -22 45 -40 49 -40
4 0 23 -14 42 -30 19 -16 39 -30 44 -30 5 0 18 -10 30 -22 27 -28 63 -59 141
-122 33 -27 69 -57 80 -67 44 -41 95 -82 117 -93 13 -6 29 -24 36 -39 7 -15
26 -34 43 -42 16 -9 29 -19 29 -24 0 -4 18 -16 40 -27 22 -10 42 -26 45 -35 3
-9 33 -41 67 -70 34 -30 66 -60 72 -67 6 -8 44 -48 84 -89 39 -42 72 -81 72
-87 0 -7 34 -48 75 -91 94 -99 106 -113 164 -189 25 -34 67 -83 93 -109 27
-27 48 -52 48 -55 0 -4 16 -24 35 -45 19 -21 35 -45 35 -53 0 -8 16 -24 35
-35 19 -12 35 -25 35 -30 0 -4 13 -23 29 -41 15 -18 36 -49 46 -68 9 -19 30
-49 47 -66 16 -17 37 -45 46 -61 26 -46 112 -175 128 -191 8 -7 14 -19 14 -26
0 -17 106 -116 125 -116 8 0 16 -6 16 -12 1 -7 3 -27 5 -45 4 -33 -29 -86
-101 -163 -18 -19 -44 -62 -58 -95 -14 -33 -32 -61 -41 -63 -9 -2 -16 -7 -16
-10 0 -4 -18 -26 -40 -50 -22 -23 -40 -48 -40 -55 0 -8 -10 -25 -21 -38 -47
-52 -126 -156 -144 -187 -11 -17 -27 -35 -37 -38 -10 -3 -26 -20 -35 -37 -8
-18 -19 -34 -23 -37 -11 -8 -40 -68 -40 -83 0 -8 -17 -30 -37 -48 -21 -18 -56
-62 -78 -99 -22 -37 -54 -79 -70 -93 -32 -26 -115 -157 -115 -180 0 -7 -14
-23 -30 -35 -17 -13 -43 -48 -60 -80 -16 -31 -54 -82 -85 -112 -30 -30 -55
-61 -55 -68 0 -15 -63 -103 -112 -156 -19 -20 -43 -60 -53 -88 -11 -27 -34
-63 -52 -78 -37 -33 -83 -102 -83 -125 0 -20 -40 -74 -98 -133 -23 -24 -52
-62 -64 -85 -11 -23 -27 -46 -34 -50 -12 -7 -42 -51 -99 -142 -10 -16 -29 -38
-42 -49 -24 -18 -113 -146 -113 -161 0 -4 -17 -24 -37 -44 -43 -41 -52 -54
-89 -131 -14 -30 -39 -66 -55 -78 -17 -13 -41 -47 -55 -74 -14 -28 -50 -75
-79 -105 -29 -30 -68 -83 -86 -118 -18 -35 -54 -88 -80 -117 -26 -29 -50 -64
-53 -78 -3 -14 -32 -54 -66 -90 -33 -35 -68 -82 -79 -105 -10 -22 -46 -69 -79
-105 -42 -45 -64 -78 -71 -107 -6 -23 -26 -58 -46 -79 -19 -20 -35 -40 -35
-45 0 -15 -88 -134 -111 -149 -69 -47 -119 -117 -119 -168 0 -12 -13 -30 -30
-42 -16 -12 -49 -54 -72 -93 -23 -40 -54 -84 -69 -98 -15 -14 -37 -43 -49 -65
-32 -56 -113 -163 -125 -164 -6 0 -24 -30 -40 -67 -27 -61 -45 -86 -112 -161
-13 -14 -23 -29 -23 -33 0 -4 -27 -39 -60 -77 -33 -39 -74 -98 -91 -132 -17
-35 -41 -73 -52 -85 -58 -57 -87 -98 -97 -134 -5 -21 -24 -53 -41 -69 -18 -17
-37 -39 -43 -50 -22 -39 -129 -172 -137 -172 -5 0 -9 -5 -9 -12 0 -20 -73
-129 -111 -167 -20 -20 -50 -56 -65 -81 -37 -58 -42 -64 -86 -113 -21 -23 -38
-45 -38 -49 0 -21 -93 -165 -120 -187 -16 -13 -30 -30 -30 -37 0 -23 -30 -65
-92 -129 -49 -51 -138 -180 -138 -201 0 -3 -18 -28 -40 -54 -22 -26 -40 -55
-40 -65 0 -9 -25 -42 -56 -73 -31 -31 -69 -81 -86 -110 -16 -28 -41 -61 -54
-71 -13 -10 -24 -23 -24 -29 0 -5 -18 -30 -40 -55 -22 -25 -40 -48 -40 -52 0
-4 -12 -19 -27 -35 -16 -15 -50 -70 -76 -122 -30 -59 -57 -100 -72 -108 -14
-7 -25 -16 -25 -20 0 -4 -12 -20 -27 -36 -47 -49 -125 -157 -140 -194 -9 -19
-19 -37 -23 -40 -4 -3 -16 -19 -26 -36 -11 -17 -40 -55 -67 -83 -26 -29 -47
-61 -47 -71 0 -17 -77 -124 -127 -177 -13 -13 -23 -28 -23 -32 0 -4 -14 -23
-30 -42 -36 -40 -111 -152 -127 -191 -7 -15 -24 -34 -38 -44 -14 -9 -25 -21
-25 -26 0 -5 -16 -26 -35 -46 -19 -20 -37 -44 -40 -53 -3 -10 -21 -33 -40 -54
-19 -20 -35 -42 -35 -49 0 -7 -18 -38 -40 -69 -22 -30 -40 -61 -40 -67 0 -6
-14 -23 -31 -37 -17 -14 -44 -50 -60 -79 -17 -29 -54 -78 -84 -110 -30 -32
-55 -62 -55 -67 0 -9 -104 -163 -125 -183 -6 -7 -24 -36 -39 -66 -15 -29 -48
-76 -73 -103 -25 -28 -56 -66 -68 -85 -12 -19 -32 -44 -44 -54 -11 -11 -21
-23 -21 -27 0 -4 -17 -34 -38 -66 -21 -32 -43 -70 -51 -84 -7 -15 -33 -48 -57
-75 -25 -27 -58 -74 -75 -105 -17 -31 -40 -62 -52 -68 -21 -12 -60 -64 -99
-133 -9 -16 -23 -37 -31 -46 -26 -30 -127 -185 -127 -196 -1 -6 -15 -20 -33
-31 -19 -12 -42 -42 -57 -72 -14 -28 -33 -60 -42 -70 -10 -11 -18 -24 -18 -29
0 -5 -18 -22 -40 -37 -22 -16 -40 -33 -40 -38 0 -5 -17 -39 -37 -74 l-37 -65
-71 0 -70 1 -27 39 c-46 67 -96 95 -200 114 -51 10 -111 23 -133 31 -40 13
-190 53 -278 74 -26 6 -64 21 -85 34 -40 24 -114 49 -202 68 -30 6 -93 31
-140 54 -47 23 -111 48 -141 54 -102 21 -220 73 -254 111 -11 12 -71 47 -133
77 -63 30 -137 70 -164 88 -28 19 -58 35 -67 35 -21 0 -202 92 -239 120 -13
11 -30 20 -36 20 -17 0 -90 41 -98 55 -10 17 -183 105 -207 105 -12 0 -21 6
-21 13 -1 6 -30 35 -66 62 -37 28 -72 56 -79 63 -8 6 -18 12 -22 12 -5 0 -24
16 -43 35 -19 19 -38 35 -42 35 -13 0 -159 121 -165 136 -3 8 -9 14 -14 14 -5
0 -17 8 -27 18 -37 35 -72 62 -81 62 -5 0 -22 15 -39 34 -17 19 -43 41 -59 49
-15 8 -56 45 -91 81 -34 36 -67 66 -73 66 -8 0 -87 47 -99 60 -3 3 -22 16 -42
30 -21 14 -38 30 -38 37 0 7 -8 17 -17 22 -10 5 -31 30 -48 55 -16 24 -42 52
-57 61 -16 9 -28 20 -28 26 0 5 -6 9 -12 9 -15 1 -58 35 -58 46 0 5 -10 18
-23 29 -13 11 -43 48 -66 83 -24 34 -48 62 -52 62 -5 0 -9 6 -9 13 0 7 -18 31
-40 52 -22 21 -40 44 -40 50 0 6 -14 26 -31 45 -17 19 -47 53 -67 76 -21 22
-44 49 -52 60 -9 10 -37 37 -63 60 -25 23 -62 69 -82 103 -19 35 -60 89 -91
121 -30 32 -63 72 -72 88 -9 17 -34 49 -55 71 -47 50 -87 109 -87 128 0 8 -18
38 -40 68 -22 30 -40 60 -40 68 0 7 -13 33 -28 58 -16 24 -41 71 -56 103 -14
33 -51 98 -80 145 -30 48 -57 97 -61 111 -4 14 -23 47 -41 75 -19 27 -34 54
-34 59 0 17 -101 219 -126 253 -13 17 -24 38 -24 47 0 8 -6 21 -13 28 -23 23
-67 97 -67 113 0 8 -14 44 -30 79 -29 62 -61 169 -74 251 -12 72 -47 179 -82
251 -19 39 -34 80 -34 91 0 10 -11 48 -26 84 -14 35 -33 98 -43 139 -10 41
-32 105 -50 142 -17 38 -31 84 -31 105 0 47 -15 101 -46 170 -20 43 -25 74
-29 166 -4 102 -20 240 -45 387 -18 108 -21 137 -29 277 -5 78 -11 146 -15
151 -3 5 -8 51 -11 103 -4 52 -14 128 -22 169 -20 98 -19 345 2 432 8 35 15
92 15 128 0 36 6 91 14 122 7 31 14 94 15 140 1 46 9 142 17 213 8 72 16 162
19 200 10 133 36 340 57 460 28 159 109 454 148 540 25 55 60 164 60 187 0 20
34 93 55 118 13 16 14 17 44 160 34 161 58 245 90 309 17 33 31 66 31 73 1 7
9 31 20 53 11 22 20 45 20 50 0 6 9 21 20 35 11 14 20 32 20 40 0 8 11 25 24
37 13 13 30 37 39 55 36 78 56 125 59 138 2 8 9 21 16 28 6 7 12 19 12 27 0 7
16 32 35 55 19 23 35 50 35 60 0 10 4 20 8 22 5 2 24 32 43 68 18 36 51 89 71
119 21 30 38 60 38 68 0 7 4 21 9 31 36 67 61 124 61 137 0 8 4 15 8 15 5 0
17 16 28 35 10 19 22 35 26 35 3 0 10 10 14 23 3 12 22 43 40 68 19 26 34 50
34 54 0 7 46 70 68 93 6 7 12 19 12 26 0 7 30 38 68 70 37 32 73 70 81 85 8
14 27 39 42 55 16 17 29 36 29 43 0 7 4 13 8 13 5 0 32 32 61 71 29 39 77 96
107 126 30 31 54 61 54 67 0 6 29 39 64 74 35 34 73 82 86 106 12 24 54 73 92
108 39 34 103 95 143 133 39 39 94 88 121 109 27 22 66 57 86 78 20 21 41 38
47 38 6 0 27 16 48 35 21 19 50 46 66 61 15 14 62 50 105 80 42 31 93 70 112
89 19 18 44 36 55 39 11 3 47 38 79 76 33 39 65 70 72 70 7 0 20 8 30 18 10 9
38 31 64 47 48 31 97 69 153 119 18 15 56 39 85 52 29 13 65 32 79 44 14 11
32 20 40 20 7 0 25 8 40 17 14 10 32 18 39 19 8 1 25 12 40 23 15 12 30 21 34
21 5 0 32 16 61 35 30 19 59 35 66 35 7 0 40 18 74 40 34 22 68 40 75 40 7 0
42 16 77 35 35 19 69 35 76 35 6 0 35 16 64 36 28 20 65 41 82 48 17 7 38 20
46 29 9 8 32 24 51 34 19 10 58 30 86 45 28 15 72 32 99 38 26 6 84 26 128 45
44 18 116 43 160 55 115 32 244 74 312 103 52 22 241 75 382 107 29 7 81 24
115 37 142 57 278 79 631 103 88 6 176 19 239 35 54 14 124 25 155 25 58 0
189 13 351 36 92 12 493 12 615 -1z m8459 -47 c-6 -21 -7 -21 -20 -4 -10 14
-10 22 -1 37 10 16 13 16 20 4 4 -9 5 -25 1 -37z m-284 -418 c-20 -12 -29 -4
-23 21 5 19 7 19 22 4 14 -14 14 -17 1 -25z m-140 -166 l-14 -26 -9 26 c-5 15
-6 34 -3 43 6 15 8 15 23 0 15 -14 15 -20 3 -43z m-274 -379 c4 -8 0 -22 -7
-31 -12 -14 -14 -14 -25 1 -7 9 -10 23 -7 31 7 19 32 18 39 -1z m-294 -447
c-20 -20 -36 5 -20 31 l13 21 9 -20 c6 -14 5 -25 -2 -32z m-137 -149 c-7 -20
-8 -21 -17 -5 -5 9 -7 24 -4 33 10 26 29 -1 21 -28z m-280 -390 c5 -14 1 -27
-9 -37 -15 -15 -16 -13 -16 21 0 40 15 50 25 16z m-290 -449 c-6 -20 -9 -21
-23 -7 -13 13 -13 19 -2 32 17 21 34 4 25 -25z m-130 -120 c10 -16 -16 -43
-28 -31 -11 11 -2 41 12 41 5 0 13 -5 16 -10z m-285 -437 c0 -29 -16 -38 -28
-16 -12 21 7 71 20 51 4 -7 8 -23 8 -35z m-17635 -221 c16 -51 16 -59 0 -150
-10 -53 -25 -108 -35 -122 -25 -36 -60 -116 -60 -137 0 -69 -67 -324 -99 -377
-21 -36 -42 -98 -69 -211 -22 -87 -51 -171 -88 -252 -27 -59 -41 -114 -48
-188 -7 -70 -24 -159 -45 -235 -10 -36 -29 -105 -41 -155 -13 -49 -31 -121
-41 -159 -10 -38 -19 -94 -20 -125 -2 -31 -15 -105 -31 -165 -15 -59 -28 -120
-28 -134 0 -27 -14 -75 -36 -128 -16 -38 -54 -196 -54 -227 0 -12 -9 -49 -19
-82 -10 -33 -22 -80 -25 -105 -9 -64 -14 -89 -22 -101 -3 -6 -10 -73 -15 -148
-9 -150 -11 -162 -40 -305 -11 -55 -25 -147 -30 -205 -4 -58 -17 -153 -29
-211 -11 -58 -20 -136 -20 -175 0 -38 -5 -88 -10 -110 -23 -91 -60 -402 -70
-590 -5 -93 -12 -188 -14 -210 -3 -22 -7 -152 -11 -290 -3 -137 -10 -279 -17
-315 -6 -36 -12 -168 -13 -295 -2 -126 -8 -257 -14 -289 -14 -77 -14 -226 0
-302 7 -33 11 -151 11 -264 0 -128 4 -235 13 -285 12 -73 22 -223 29 -430 2
-44 9 -170 16 -280 7 -110 14 -238 16 -285 5 -138 24 -400 33 -465 4 -33 20
-116 34 -185 14 -69 31 -174 37 -235 6 -60 25 -180 42 -265 16 -85 32 -200 34
-255 5 -94 16 -172 49 -340 16 -81 24 -126 35 -210 4 -33 19 -104 34 -157 15
-54 31 -123 37 -155 5 -32 16 -94 24 -138 7 -44 23 -107 34 -139 12 -33 21
-74 21 -92 0 -44 22 -126 53 -195 13 -31 27 -83 30 -115 3 -33 12 -79 20 -104
9 -25 27 -90 42 -144 14 -55 29 -104 32 -109 7 -11 41 -135 53 -192 5 -22 20
-94 35 -160 14 -66 30 -137 34 -157 4 -20 24 -71 45 -113 20 -43 36 -86 36
-96 0 -11 16 -80 35 -155 19 -74 35 -142 35 -150 0 -8 18 -39 40 -68 22 -29
40 -62 40 -74 0 -12 14 -61 31 -109 16 -48 34 -102 38 -119 8 -32 50 -115 63
-124 4 -3 13 -35 21 -70 27 -118 79 -295 92 -310 25 -31 54 -98 94 -225 23
-71 57 -161 76 -200 18 -38 38 -88 45 -110 16 -49 60 -148 106 -236 19 -37 34
-75 34 -86 0 -39 29 -102 78 -170 48 -66 58 -89 82 -183 6 -25 24 -63 40 -85
46 -66 86 -147 105 -210 9 -33 20 -64 25 -70 4 -5 13 -27 19 -47 7 -21 17 -38
22 -38 5 0 9 -5 9 -10 0 -6 16 -33 35 -61 19 -28 35 -59 35 -69 0 -9 11 -32
25 -51 35 -49 121 -230 129 -271 3 -20 30 -73 58 -119 28 -46 69 -117 90 -158
21 -41 42 -77 46 -80 4 -3 18 -20 30 -37 12 -17 35 -46 52 -64 16 -18 30 -38
30 -46 0 -8 4 -14 9 -14 5 0 15 -16 22 -35 7 -19 17 -35 21 -35 4 0 11 -18 14
-39 5 -34 80 -147 130 -199 7 -6 16 -22 20 -34 3 -12 21 -42 38 -67 30 -44
116 -211 116 -226 0 -13 107 -169 129 -189 12 -11 21 -26 21 -33 0 -8 15 -33
33 -56 19 -23 57 -91 86 -150 33 -68 64 -116 82 -129 16 -12 29 -25 29 -29 0
-11 63 -113 73 -117 4 -2 7 -12 7 -23 0 -22 41 -70 167 -193 18 -17 38 -44 44
-61 18 -48 50 -108 70 -131 11 -11 19 -25 19 -32 0 -6 12 -18 27 -25 14 -8 33
-28 42 -44 28 -53 99 -150 126 -171 14 -11 25 -24 25 -28 0 -9 36 -55 106
-135 23 -26 54 -70 69 -98 16 -28 32 -51 36 -51 5 0 15 -12 23 -27 8 -16 28
-43 45 -62 17 -19 31 -39 31 -45 0 -6 16 -24 35 -39 19 -15 35 -34 35 -42 0
-8 4 -15 9 -15 5 0 14 -13 21 -29 6 -16 20 -37 31 -47 10 -9 19 -25 19 -35 0
-9 16 -31 35 -48 19 -17 35 -35 35 -40 0 -6 12 -18 28 -28 15 -10 31 -24 36
-33 5 -8 27 -30 48 -49 21 -19 38 -38 38 -43 0 -5 18 -31 40 -57 56 -66 124
-102 242 -126 26 -5 26 -5 11 -36 -9 -17 -18 -51 -21 -76 -4 -38 -12 -50 -57
-91 -29 -26 -59 -63 -67 -82 -13 -31 -41 -68 -109 -149 -12 -14 -32 -50 -45
-80 -14 -30 -39 -69 -57 -86 -44 -42 -87 -96 -87 -111 0 -7 -10 -20 -22 -29
-21 -14 -42 -44 -84 -120 -9 -16 -23 -34 -30 -38 -8 -4 -14 -16 -14 -25 -1
-21 -20 -46 -42 -55 -9 -3 -24 -22 -33 -41 -10 -20 -20 -36 -24 -36 -4 0 -17
-24 -30 -54 -15 -36 -34 -62 -57 -78 -18 -12 -34 -27 -34 -31 0 -9 -76 -121
-102 -151 -10 -11 -20 -28 -24 -38 -3 -10 -9 -18 -14 -18 -5 0 -12 -10 -16
-22 -3 -13 -37 -52 -74 -88 -58 -56 -69 -73 -80 -119 -11 -47 -22 -63 -77
-114 -35 -33 -66 -71 -70 -86 -8 -34 -50 -101 -63 -101 -6 0 -10 -5 -10 -10 0
-6 -18 -29 -40 -51 -22 -22 -40 -46 -40 -53 0 -7 -16 -29 -35 -50 -19 -21 -35
-42 -35 -46 0 -4 -9 -15 -19 -24 -10 -9 -33 -46 -50 -81 -17 -34 -37 -65 -44
-68 -7 -3 -24 -26 -37 -53 -14 -26 -54 -78 -89 -116 -35 -37 -71 -81 -80 -97
-47 -84 -63 -109 -94 -139 -19 -19 -52 -68 -73 -109 -22 -42 -56 -93 -76 -114
-20 -20 -60 -72 -90 -113 -29 -42 -63 -91 -76 -109 -13 -17 -26 -44 -29 -59
-3 -16 -30 -49 -70 -84 -38 -34 -72 -74 -83 -98 -10 -23 -41 -66 -69 -96 -28
-30 -54 -63 -57 -72 -3 -10 -9 -18 -13 -18 -5 0 -11 -17 -15 -38 -4 -26 -13
-42 -28 -51 -13 -6 -39 -37 -58 -67 -19 -30 -40 -61 -46 -67 -6 -7 -15 -23
-18 -35 -4 -12 -21 -29 -37 -38 -16 -8 -37 -30 -46 -49 -9 -19 -20 -35 -23
-35 -4 0 -19 -27 -34 -60 -15 -33 -38 -67 -51 -76 -14 -9 -41 -45 -61 -81 -19
-35 -49 -76 -66 -91 -16 -15 -42 -47 -56 -72 -14 -25 -36 -57 -48 -72 -13 -16
-25 -36 -29 -46 -3 -11 -17 -24 -30 -30 -17 -8 -37 -37 -60 -87 -40 -86 -41
-86 -131 -94 -15 -1 -25 -26 -31 -76 -3 -22 -11 -46 -19 -54 -21 -23 -29 12
-18 88 11 82 -8 129 -61 152 -11 5 -58 33 -105 63 -75 48 -130 80 -260 152
-19 10 -37 21 -40 24 -11 13 -74 54 -113 75 -23 12 -76 41 -117 65 -41 24 -90
51 -108 61 -29 15 -73 46 -105 74 -7 6 -28 18 -47 28 -107 54 -178 95 -200
115 -13 12 -27 22 -32 22 -9 0 -88 55 -161 112 -27 21 -55 38 -62 38 -13 0
-163 97 -196 126 -9 8 -32 19 -51 25 -19 5 -50 24 -69 42 -55 52 -125 107
-138 107 -6 0 -57 34 -113 75 -56 41 -111 75 -122 75 -12 0 -41 19 -66 41 -47
43 -141 109 -155 109 -5 0 -29 17 -54 38 -25 21 -62 49 -81 62 -19 13 -41 30
-48 37 -7 7 -21 13 -31 13 -9 0 -30 14 -47 31 -34 36 -158 119 -178 119 -13 0
-97 66 -220 173 -56 49 -111 92 -160 127 -11 8 -37 30 -56 47 -19 18 -39 33
-45 33 -5 0 -29 17 -51 38 -45 40 -131 100 -179 123 -16 8 -70 52 -120 98
-121 112 -132 121 -141 121 -12 0 -113 70 -163 112 -24 21 -47 38 -52 38 -4 0
-21 12 -36 26 -15 15 -45 37 -65 50 -21 14 -38 28 -38 33 0 5 -33 26 -72 46
-92 46 -141 81 -150 105 -4 10 -19 27 -35 37 -15 10 -58 48 -95 86 -37 37 -72
67 -78 67 -11 0 -41 25 -122 103 -28 26 -54 47 -59 47 -5 0 -47 34 -93 75 -46
41 -88 75 -93 75 -5 0 -18 10 -30 23 -36 41 -120 112 -149 127 -16 8 -46 31
-66 50 -20 19 -67 59 -103 89 -36 30 -65 60 -65 67 0 6 -10 18 -22 27 -13 8
-39 29 -58 46 -19 17 -39 31 -43 31 -9 0 -56 42 -156 140 -42 42 -98 91 -124
109 -26 19 -47 38 -47 43 0 4 -6 8 -13 8 -7 0 -31 16 -53 35 -21 19 -42 35
-45 35 -11 0 -102 92 -122 123 -9 15 -21 27 -25 27 -4 0 -43 34 -86 75 -43 41
-82 75 -87 75 -5 0 -46 37 -92 83 -46 45 -112 107 -146 137 -33 30 -77 75 -95
100 -19 25 -65 68 -102 95 -36 28 -76 61 -88 74 -11 12 -29 30 -40 40 -40 35
-214 210 -258 259 -25 29 -49 52 -52 52 -3 0 -64 59 -137 130 -72 72 -151 144
-175 161 -24 16 -44 36 -44 43 0 15 -155 172 -234 236 -30 25 -58 53 -61 63
-4 10 -68 81 -143 156 -76 76 -159 167 -187 202 -27 35 -81 93 -119 129 -172
163 -236 231 -236 250 0 5 -51 61 -112 123 -62 63 -129 133 -148 157 -75 91
-134 155 -152 164 -10 5 -18 12 -18 16 0 5 -21 30 -47 57 -27 28 -70 80 -98
118 -27 37 -59 73 -70 81 -11 7 -38 39 -60 70 -22 32 -59 77 -82 101 -24 23
-43 46 -43 52 0 16 -63 82 -101 106 -22 14 -47 44 -64 77 -15 29 -33 60 -41
69 -8 8 -14 21 -14 27 0 6 -46 57 -101 114 -56 57 -112 119 -125 139 -13 21
-52 68 -88 105 -36 38 -66 75 -66 82 0 8 -30 44 -67 80 -38 37 -76 79 -86 94
-9 15 -31 35 -47 43 -17 9 -30 22 -30 29 0 7 -7 20 -16 27 -9 7 -29 39 -44 71
-16 32 -40 73 -55 91 -74 91 -105 133 -105 143 0 6 -11 16 -23 23 -13 7 -41
37 -63 68 -21 30 -45 61 -51 68 -7 8 -13 20 -13 28 0 7 -12 24 -26 38 -15 13
-37 40 -49 60 -13 19 -48 62 -79 95 -30 32 -68 84 -83 114 -15 30 -53 83 -84
116 -32 34 -65 77 -75 95 -9 19 -29 48 -43 66 -14 18 -39 50 -56 73 -16 23
-53 68 -81 100 -28 33 -57 73 -64 90 -7 16 -16 30 -20 30 -5 0 -14 16 -20 35
-7 21 -24 42 -46 55 -19 12 -34 25 -34 29 0 5 -11 20 -25 35 -14 16 -35 47
-46 71 -11 23 -33 54 -50 69 -16 14 -29 32 -29 39 0 7 -8 22 -18 33 -10 11
-40 52 -66 92 -26 40 -52 72 -57 72 -5 0 -9 6 -9 14 0 30 -116 202 -208 309
-50 58 -75 101 -102 172 -6 17 -30 51 -53 75 -52 54 -87 103 -87 122 0 7 -30
55 -68 107 -37 52 -88 124 -114 160 -26 36 -48 71 -48 77 0 7 -16 35 -35 64
-19 29 -35 55 -35 59 0 3 -16 25 -34 49 -19 24 -44 72 -56 106 -19 59 -20 66
-6 107 9 24 16 52 16 63 0 10 18 42 41 70 22 28 68 96 102 151 34 55 67 106
74 113 7 7 13 19 13 25 0 7 16 32 35 56 19 24 35 48 35 53 0 9 43 70 68 96 6
7 12 18 12 23 0 6 23 33 50 60 49 49 100 135 100 169 0 23 36 73 98 140 29 30
52 61 52 70 0 8 16 35 35 59 19 24 35 47 35 51 0 14 90 146 120 175 16 17 30
34 30 39 0 6 8 19 19 30 10 12 33 48 50 80 18 33 46 73 62 90 16 16 29 34 29
38 0 5 34 52 75 103 41 52 75 99 75 105 0 5 9 19 20 30 11 11 18 20 15 20 -5
0 12 22 73 92 23 27 42 52 42 56 0 7 37 55 113 146 18 21 36 45 41 54 5 9 18
26 28 37 11 11 36 45 55 75 20 30 40 57 43 60 4 3 10 14 14 25 3 11 36 49 72
85 36 36 75 84 86 108 12 24 34 56 49 72 16 16 29 33 29 39 0 5 16 26 35 47
19 20 35 43 35 50 0 7 6 17 13 21 7 4 35 37 61 73 54 72 59 77 116 136 22 22
40 44 40 49 0 4 16 29 35 55 19 26 35 50 35 54 0 3 18 22 40 42 22 20 40 42
40 48 0 7 16 29 35 50 19 21 35 40 35 42 0 2 18 20 40 40 22 20 40 42 40 48 0
11 16 31 98 121 15 17 43 51 62 75 19 24 43 52 53 62 9 10 17 19 17 21 0 1 47
50 103 108 64 64 107 117 111 135 5 17 38 59 82 102 41 40 74 77 74 83 0 6 6
16 13 23 34 36 67 77 67 84 0 4 16 23 35 42 19 19 35 41 35 48 0 6 10 21 23
33 79 74 108 106 121 134 8 17 58 74 111 126 53 52 110 114 127 138 17 24 39
51 48 60 9 9 36 35 61 58 24 22 55 55 68 72 13 17 29 31 37 31 8 0 14 4 14 8
0 4 16 23 35 42 19 19 35 41 35 49 0 8 30 45 68 82 37 38 79 81 94 96 14 15
51 52 82 82 31 30 56 58 56 63 0 4 18 19 40 33 22 14 40 31 40 39 0 8 16 31
35 52 19 22 35 42 35 47 0 4 7 7 16 7 15 0 144 126 144 141 0 15 66 84 455
474 220 220 444 436 498 478 53 43 97 83 97 90 0 14 80 97 94 97 4 0 41 33 81
73 41 39 86 80 100 90 14 10 25 23 25 30 0 7 34 41 75 76 41 35 75 69 75 75 0
6 27 34 60 61 34 28 79 67 102 88 22 20 44 37 48 37 10 0 97 88 104 105 3 8
20 24 37 34 30 18 116 90 167 139 12 12 26 22 30 22 4 0 43 34 87 75 44 41 83
75 87 75 4 0 19 18 33 40 14 22 30 40 36 40 14 0 67 43 152 123 34 32 74 66
90 75 15 9 27 20 27 24 0 4 6 8 13 8 6 0 44 32 82 71 39 39 81 77 95 84 14 7
35 25 47 39 13 14 28 26 34 26 11 0 33 18 136 115 35 33 71 64 81 69 9 5 24
18 33 28 9 10 21 18 27 18 6 0 24 16 39 35 15 19 33 35 38 35 6 0 28 16 50 35
22 19 43 35 47 35 3 0 26 18 50 40 23 22 46 40 51 40 4 0 7 5 7 10 0 13 57 70
70 70 4 0 10 3 12 8 4 9 102 72 113 72 8 0 59 41 115 94 19 18 55 48 80 67 25
18 49 39 53 46 4 7 14 13 21 13 7 0 34 18 59 40 25 22 48 40 52 40 4 0 23 16
42 35 19 19 41 35 48 35 7 0 15 3 17 8 2 4 35 31 73 61 39 30 74 60 78 68 4 7
13 13 19 13 5 0 36 19 68 43 32 23 92 66 134 95 42 30 76 58 76 62 0 4 16 15
35 24 19 10 42 28 51 41 9 13 25 27 37 31 12 4 26 12 32 18 6 6 29 25 50 41
20 17 54 45 74 62 20 18 45 36 56 39 11 4 36 19 55 34 119 91 235 177 251 186
10 6 27 17 36 26 27 22 92 58 107 58 7 0 33 16 57 35 24 19 47 35 50 35 4 0
26 18 50 40 24 22 49 40 55 40 7 0 25 15 42 34 17 19 43 42 59 50 15 9 35 20
43 26 8 5 31 15 50 23 85 34 74 27 194 125 29 23 57 42 62 42 5 0 29 18 54 40
24 22 51 40 59 40 8 0 56 32 108 70 52 39 102 74 111 78 28 11 124 79 166 117
22 19 46 35 53 35 7 0 22 9 32 19 10 10 52 38 92 62 127 77 153 93 230 144 41
28 99 63 131 79 31 15 64 36 74 47 9 10 22 19 27 19 5 0 34 16 64 36 32 21 73
38 103 43 27 4 59 15 72 24 29 20 40 9 63 -61z m17348 -181 c9 -36 -38 -56
-62 -27 -10 11 -8 16 8 21 12 3 21 11 21 16 0 17 28 9 33 -10z m-7907 -10971
c3 -40 0 -68 -7 -77 -19 -23 -28 3 -22 66 9 104 22 109 29 11z m-136 -205 c0
-1 -6 -18 -14 -36 l-14 -34 -7 27 c-9 36 0 59 20 52 8 -3 15 -7 15 -9z m-291
-441 c-9 -11 -15 -12 -25 -3 -11 9 -12 15 -3 25 9 11 15 12 25 3 11 -9 12 -15
3 -25z m-283 -399 c3 -8 3 -19 -1 -25 -10 -16 -35 7 -28 26 7 18 22 18 29 -1z
m-142 -144 c3 -5 3 -23 -1 -41 l-6 -32 -13 32 c-14 32 -11 50 6 50 5 0 11 -4
14 -9z m-148 -299 c-4 -3 -11 -1 -18 6 -8 8 -8 15 3 28 13 16 14 16 17 -5 2
-13 1 -25 -2 -29z m-137 -149 c-14 -17 -31 1 -22 24 4 10 9 11 19 2 11 -9 12
-15 3 -26z m-280 -420 c-6 -7 -15 -13 -19 -13 -15 0 -20 33 -8 47 10 13 14 13
25 -3 9 -13 10 -21 2 -31z m-131 -126 c2 -9 -3 -26 -12 -38 l-15 -22 -11 28
c-8 20 -7 31 1 42 15 17 33 12 37 -10z m-150 -295 c-8 -9 -14 -9 -24 -2 -10 9
-10 18 -1 43 l11 32 12 -30 c8 -21 9 -34 2 -43z m-142 -148 c-6 -17 -8 -17
-24 0 -15 15 -15 18 -2 26 19 12 35 -3 26 -26z m-283 -393 c6 -24 -17 -49 -28
-31 -9 15 3 62 14 56 5 -3 11 -15 14 -25z m-136 -147 c7 -20 -14 -67 -27 -59
-11 7 -14 58 -3 68 11 12 23 8 30 -9z m-288 -446 c-8 -15 -13 -17 -24 -8 -11
9 -12 17 -4 32 8 15 13 17 24 8 11 -9 12 -17 4 -32z m-281 -425 c-26 -32 -45
-1 -27 43 l11 29 13 -30 c9 -21 10 -34 3 -42z m-138 -130 c0 -46 -16 -60 -28
-25 -7 21 -7 33 1 41 18 18 27 13 27 -16z m-292 -438 c-11 -19 -11 -19 -18 0
-4 11 -5 28 -2 38 4 17 5 17 17 0 10 -13 10 -23 3 -38z m-136 -154 c-18 -31
-32 -25 -32 15 0 28 9 35 31 24 17 -10 17 -12 1 -39z m-272 -396 c0 -7 -6 -18
-14 -24 -20 -17 -39 16 -24 42 7 15 12 16 24 6 8 -6 14 -17 14 -24z m-294
-442 c-7 -17 -8 -17 -21 1 -11 14 -11 22 -2 37 12 19 12 19 21 0 5 -11 5 -28
2 -38z m-126 -122 c0 -4 -4 -11 -9 -16 -5 -6 -11 -19 -13 -30 -4 -17 -6 -16
-12 7 -10 36 -1 59 19 52 8 -3 15 -9 15 -13z m-290 -427 c0 -7 -7 -14 -15 -18
-12 -4 -15 3 -15 31 0 35 1 36 15 17 8 -10 15 -24 15 -30z m-291 -431 c-19
-22 -42 3 -27 30 10 20 11 20 24 2 10 -14 11 -22 3 -32z m-134 -122 c6 -11
-15 -62 -24 -56 -4 2 -8 17 -9 34 -2 30 19 44 33 22z m-285 -424 c0 -30 -10
-40 -26 -26 -10 8 -11 16 -3 30 14 26 29 24 29 -4z m-287 -421 c7 -19 -18 -42
-28 -26 -8 13 1 40 14 40 5 0 11 -6 14 -14z m-136 -142 c3 -8 0 -27 -7 -42
l-13 -27 -7 30 c-7 33 -3 55 11 55 5 0 12 -7 16 -16z m-3822 -5391 c-6 -24 -7
-25 -22 -10 -15 14 -15 20 -3 42 12 22 15 23 23 10 5 -9 6 -28 2 -42z m-425
-550 c0 -27 -3 -34 -11 -26 -7 7 -9 23 -5 37 9 37 16 32 16 -11z m-277 -439
c-9 -23 -33 -16 -33 9 0 13 3 27 7 31 11 10 33 -23 26 -40z m-286 -422 c-8
-11 -13 -10 -24 1 -12 11 -12 19 -1 42 l12 28 12 -29 c9 -21 9 -33 1 -42z
m-138 -145 c-11 -20 -12 -20 -25 -2 -15 21 -2 37 22 28 11 -4 11 -10 3 -26z
m-279 -398 c0 -22 -5 -29 -20 -29 -23 0 -24 7 -10 45 12 33 30 24 30 -16z
m-147 -171 c-10 -21 -12 -21 -18 -5 -10 25 2 54 17 39 8 -8 8 -18 1 -34z
m-285 -421 c-14 -27 -32 -5 -24 28 7 26 8 26 21 9 9 -13 10 -24 3 -37z m-276
-419 c-5 -5 -16 -6 -24 -3 -13 5 -14 12 -5 42 l11 36 14 -33 c8 -19 10 -36 4
-42z m-144 -151 c-13 -13 -16 -13 -26 3 -15 25 6 46 27 26 12 -13 12 -16 -1
-29z m-286 -421 c-5 -18 -6 -18 -18 -1 -10 13 -11 23 -2 39 11 20 11 20 18 1
4 -11 5 -28 2 -39z m-285 -414 c-16 -20 -25 -1 -19 38 l5 35 13 -30 c9 -21 9
-34 1 -43z m-134 -126 c7 -19 -18 -42 -28 -26 -8 13 1 40 14 40 5 0 11 -6 14
-14z m-283 -441 c-19 -23 -44 0 -29 27 10 18 12 19 27 5 13 -13 13 -19 2 -32z
m-138 -160 c-14 -30 -28 -26 -34 9 -7 33 11 51 31 31 12 -11 12 -19 3 -40z
m-142 -242 c0 -25 -17 -40 -31 -26 -6 6 -5 22 2 42 9 24 14 29 20 19 5 -7 9
-23 9 -35z m-147 -164 c-4 -13 -9 -17 -16 -10 -12 12 -1 45 12 37 5 -3 7 -15
4 -27z"/>
<path d="M61763 42287 c-24 -17 -65 -48 -93 -67 -36 -26 -54 -47 -66 -80 -10
-26 -39 -65 -70 -95 -61 -59 -94 -110 -94 -146 0 -26 -39 -71 -72 -82 -22 -8
-54 -59 -70 -109 -7 -25 -24 -46 -49 -64 -22 -15 -39 -32 -39 -40 0 -7 -3 -14
-8 -16 -4 -1 -23 -28 -41 -58 -19 -30 -51 -71 -71 -90 -20 -19 -45 -57 -55
-85 -23 -61 -47 -95 -82 -115 -14 -9 -29 -22 -33 -30 -40 -85 -62 -119 -102
-160 -26 -27 -52 -60 -58 -75 -19 -51 -82 -135 -105 -141 -23 -6 -28 -14 -60
-91 -10 -23 -35 -56 -56 -73 -38 -30 -79 -95 -79 -124 0 -8 -21 -37 -48 -63
-65 -66 -102 -116 -102 -140 0 -11 -23 -41 -53 -70 -29 -27 -64 -71 -77 -98
-26 -56 -57 -95 -76 -95 -13 0 -19 -9 -73 -115 -40 -78 -53 -95 -68 -95 -21 0
-52 -41 -69 -93 -11 -33 -32 -65 -64 -96 -26 -25 -50 -57 -53 -71 -9 -36 -90
-130 -111 -130 -14 0 -36 -41 -36 -65 0 -8 -4 -15 -9 -15 -5 0 -12 -15 -15
-34 -6 -33 -15 -42 -99 -113 -15 -13 -27 -33 -27 -46 0 -27 -54 -95 -84 -107
-22 -8 -66 -80 -66 -107 0 -8 -30 -46 -66 -83 -44 -45 -71 -84 -83 -116 -11
-33 -27 -55 -49 -69 -21 -13 -44 -45 -69 -94 -25 -50 -49 -82 -74 -100 -33
-23 -109 -135 -109 -160 0 -15 -32 -51 -46 -51 -16 0 -62 -62 -70 -95 -10 -39
-55 -105 -72 -105 -20 0 -41 -30 -42 -57 0 -13 -4 -23 -9 -23 -5 0 -12 -8 -16
-19 -3 -10 -22 -35 -43 -55 -20 -20 -47 -46 -59 -59 -13 -12 -23 -27 -23 -33
0 -34 -49 -115 -96 -160 -37 -34 -54 -58 -54 -75 0 -17 -18 -42 -56 -79 -31
-30 -66 -75 -79 -100 -13 -25 -50 -73 -83 -108 -42 -44 -63 -76 -72 -108 -14
-49 -53 -104 -74 -104 -18 0 -38 -26 -72 -90 -15 -30 -45 -74 -65 -97 -34 -37
-52 -64 -99 -155 -9 -16 -29 -37 -46 -47 -30 -18 -46 -49 -78 -150 -10 -30
-26 -63 -36 -74 -15 -16 -17 -23 -7 -38 7 -11 21 -22 32 -25 23 -8 123 -75
181 -121 23 -18 47 -33 54 -33 7 0 64 -34 125 -75 62 -41 118 -75 124 -75 13
0 89 -46 109 -67 7 -7 18 -13 23 -13 5 0 29 -15 53 -32 24 -18 56 -42 71 -53
16 -11 38 -29 49 -41 29 -30 130 -94 147 -94 8 0 37 -19 64 -43 47 -40 147
-107 162 -107 3 0 25 -17 47 -38 23 -22 80 -60 127 -85 46 -25 98 -60 114 -78
17 -17 70 -51 118 -75 49 -23 111 -62 138 -86 103 -89 114 -98 126 -98 6 0 18
-9 26 -20 8 -11 45 -36 83 -56 38 -20 71 -40 74 -44 3 -4 19 -16 36 -26 91
-55 204 -135 204 -144 0 -5 6 -10 13 -10 7 0 22 -8 33 -18 10 -10 35 -27 54
-37 19 -11 63 -45 97 -75 78 -70 118 -100 134 -100 11 0 83 -53 120 -89 33
-33 69 -61 78 -61 4 0 23 -15 42 -33 64 -61 180 -136 221 -141 3 -1 30 -28 59
-61 28 -33 56 -62 62 -64 6 -2 23 -16 39 -30 17 -14 42 -33 58 -41 49 -26 144
-97 171 -126 34 -39 110 -104 120 -104 34 0 332 -243 344 -280 3 -9 17 -21 32
-28 63 -28 177 -99 187 -117 6 -11 24 -31 40 -45 16 -14 53 -49 83 -78 30 -29
66 -60 80 -69 38 -25 72 -53 112 -94 20 -20 41 -38 47 -40 14 -5 73 -54 182
-151 47 -43 90 -78 95 -78 5 0 53 -45 108 -100 57 -57 122 -112 151 -128 29
-15 74 -51 102 -81 28 -29 65 -63 82 -75 53 -36 133 -101 133 -108 1 -10 100
-108 110 -108 4 0 32 -25 62 -56 85 -89 94 -97 145 -134 27 -19 72 -60 101
-90 28 -30 59 -62 67 -70 9 -8 85 -82 169 -165 139 -136 320 -309 389 -371 15
-13 30 -24 35 -24 9 -1 53 -36 53 -43 0 -9 250 -257 276 -273 13 -9 24 -21 24
-26 0 -6 28 -36 63 -69 34 -32 65 -62 69 -66 4 -4 77 -79 163 -165 85 -86 155
-162 155 -168 0 -11 153 -172 395 -415 148 -148 198 -205 218 -244 7 -13 20
-29 30 -35 29 -18 111 -99 122 -120 6 -12 19 -25 30 -31 31 -16 115 -104 115
-120 0 -8 10 -21 23 -30 12 -8 42 -44 67 -79 25 -36 55 -69 66 -75 12 -5 39
-31 60 -57 47 -57 118 -141 145 -170 10 -12 19 -25 19 -29 0 -4 16 -22 35 -41
19 -18 35 -36 35 -39 0 -6 39 -55 115 -145 16 -19 65 -69 107 -110 43 -42 78
-79 78 -83 0 -4 5 -13 10 -20 19 -22 70 -102 70 -109 0 -4 28 -36 63 -71 70
-73 128 -140 176 -209 19 -26 40 -49 47 -52 8 -3 14 -11 14 -18 1 -7 19 -31
40 -53 22 -22 40 -43 40 -46 0 -9 56 -72 144 -163 83 -86 156 -177 156 -197 0
-9 63 -103 80 -119 3 -3 17 -22 33 -42 15 -20 50 -58 77 -84 48 -45 110 -137
110 -163 0 -11 21 -40 55 -75 37 -38 95 -114 95 -124 0 -6 18 -25 40 -42 22
-17 40 -36 40 -41 0 -12 61 -101 111 -161 22 -26 39 -50 39 -53 0 -4 16 -29
35 -55 19 -26 35 -50 35 -54 0 -3 15 -21 33 -39 17 -19 46 -53 62 -78 17 -24
54 -68 82 -99 29 -30 53 -61 53 -68 0 -7 22 -40 48 -75 59 -76 102 -140 102
-151 0 -10 130 -180 142 -184 4 -2 8 -11 8 -20 0 -9 14 -33 30 -52 17 -19 47
-64 68 -99 20 -35 45 -77 55 -93 20 -34 108 -155 131 -180 9 -10 16 -22 16
-26 0 -4 18 -26 40 -47 22 -21 40 -45 40 -52 0 -7 20 -41 46 -75 76 -106 104
-151 104 -170 0 -10 4 -18 9 -18 5 0 12 -8 15 -17 6 -17 23 -39 84 -108 15
-16 49 -75 77 -130 27 -55 64 -117 81 -137 20 -23 41 -63 53 -106 26 -85 26
-89 1 -154 -11 -29 -20 -61 -20 -71 0 -10 -34 -64 -75 -122 -41 -57 -75 -110
-75 -117 0 -7 -34 -52 -75 -100 -41 -48 -75 -93 -75 -100 0 -7 -16 -35 -35
-62 -19 -27 -44 -69 -56 -93 -11 -23 -24 -43 -29 -43 -4 0 -15 -17 -23 -39
-15 -36 -107 -165 -133 -186 -7 -5 -18 -21 -24 -35 -5 -14 -26 -45 -44 -70
-19 -25 -35 -50 -35 -56 -1 -6 -17 -27 -36 -47 -19 -20 -35 -40 -35 -44 0 -4
-12 -21 -26 -38 -15 -16 -39 -58 -55 -92 -15 -35 -33 -69 -39 -75 -6 -7 -20
-27 -33 -45 -71 -102 -93 -131 -119 -159 -16 -17 -37 -45 -46 -62 -22 -40 -91
-138 -128 -181 -16 -19 -41 -48 -56 -66 -16 -18 -28 -36 -28 -40 0 -4 -17 -27
-37 -50 -21 -24 -63 -77 -93 -120 -30 -42 -65 -87 -77 -99 -13 -11 -23 -26
-23 -31 0 -6 -17 -29 -37 -52 -58 -63 -86 -100 -114 -150 -14 -25 -36 -56 -48
-69 -11 -12 -21 -26 -21 -31 0 -5 -18 -28 -40 -51 -22 -22 -40 -48 -40 -57 0
-8 -3 -15 -8 -15 -4 0 -25 -23 -47 -51 -89 -115 -106 -135 -127 -158 -13 -13
-32 -38 -43 -56 -87 -137 -139 -207 -192 -257 -18 -17 -33 -35 -33 -40 0 -13
-62 -89 -127 -154 -33 -34 -80 -87 -103 -119 -23 -31 -48 -59 -56 -62 -8 -3
-14 -11 -14 -18 0 -7 -18 -33 -40 -58 -22 -25 -40 -49 -40 -54 0 -4 -25 -33
-55 -63 -31 -30 -90 -100 -132 -155 -94 -123 -91 -120 -185 -212 -43 -42 -78
-81 -78 -88 0 -7 -7 -18 -15 -25 -9 -7 -43 -49 -77 -94 -56 -74 -135 -163
-181 -205 -10 -9 -25 -31 -34 -49 -9 -18 -26 -38 -38 -45 -28 -15 -105 -104
-105 -120 0 -7 -57 -69 -127 -137 -71 -69 -146 -150 -168 -180 -42 -58 -142
-160 -157 -160 -4 0 -8 -7 -8 -15 0 -8 -3 -15 -8 -15 -4 0 -27 -25 -51 -56
-24 -30 -54 -60 -67 -66 -13 -6 -24 -15 -24 -20 0 -5 -16 -23 -35 -41 -19 -17
-35 -37 -35 -43 0 -6 -12 -21 -26 -35 -14 -13 -34 -38 -45 -56 -12 -18 -25
-33 -31 -33 -6 0 -30 -18 -54 -40 -24 -22 -49 -40 -56 -40 -12 -1 -68 -66 -93
-109 -17 -30 -92 -111 -102 -111 -10 0 -93 -88 -93 -99 -1 -3 -11 -14 -23 -23
-64 -50 -87 -71 -87 -80 0 -5 -12 -22 -27 -37 -16 -15 -52 -53 -81 -84 -28
-32 -56 -57 -60 -57 -8 0 -42 -32 -220 -211 -117 -117 -166 -162 -184 -167
-18 -6 -108 -104 -108 -119 0 -7 -9 -18 -21 -25 -11 -7 -29 -28 -40 -45 -12
-18 -26 -33 -32 -33 -7 0 -32 -18 -57 -40 -25 -22 -49 -40 -55 -40 -5 -1 -46
-39 -90 -85 -202 -213 -449 -445 -473 -445 -5 0 -24 -17 -42 -38 -70 -81 -100
-112 -109 -112 -5 0 -28 -17 -50 -37 -22 -21 -61 -54 -87 -73 -26 -19 -63 -50
-83 -68 -20 -19 -49 -46 -66 -61 -16 -16 -56 -47 -87 -71 -32 -23 -58 -46 -58
-51 0 -5 -6 -9 -12 -9 -7 0 -47 -35 -89 -77 -95 -98 -142 -138 -179 -153 -16
-6 -31 -18 -34 -25 -2 -7 -31 -31 -64 -53 -32 -22 -71 -57 -87 -79 -33 -43
-44 -53 -100 -90 -22 -14 -46 -32 -53 -40 -7 -7 -19 -13 -26 -13 -6 0 -64 -51
-128 -112 -64 -62 -122 -118 -129 -123 -77 -57 -156 -121 -162 -132 -4 -7 -15
-13 -23 -13 -9 0 -32 -16 -50 -34 -19 -19 -44 -38 -54 -41 -11 -4 -20 -10 -20
-15 0 -5 -17 -19 -37 -31 -21 -13 -58 -42 -83 -65 -25 -23 -50 -43 -56 -45
-18 -6 -86 -61 -119 -95 -16 -17 -46 -39 -65 -49 -53 -27 -122 -77 -145 -105
-33 -40 -119 -120 -131 -120 -6 0 -21 -11 -33 -24 -13 -14 -52 -39 -88 -57
-35 -17 -68 -40 -74 -50 -5 -11 -15 -19 -22 -19 -7 0 -28 -15 -49 -33 -60 -53
-119 -101 -143 -117 -51 -33 -135 -80 -144 -80 -5 0 -19 -15 -30 -32 -22 -34
-56 -62 -151 -125 -30 -20 -61 -45 -68 -55 -7 -10 -20 -18 -28 -18 -7 0 -36
-16 -63 -35 -26 -19 -53 -35 -58 -35 -5 0 -27 -16 -49 -36 -21 -20 -50 -40
-63 -45 -51 -20 -153 -96 -248 -186 -13 -13 -36 -30 -51 -38 -15 -9 -45 -29
-67 -45 -22 -16 -47 -30 -55 -30 -17 0 -75 -34 -97 -56 -8 -8 -21 -14 -29 -14
-8 0 -14 -5 -14 -10 0 -19 -47 -59 -77 -66 -52 -13 -153 -72 -153 -90 0 -12
-62 -64 -77 -64 -8 0 -115 -76 -145 -103 -22 -20 -66 -42 -99 -50 -15 -4 -64
-38 -110 -77 -45 -38 -89 -70 -96 -70 -17 0 -48 -17 -94 -53 -20 -15 -41 -27
-47 -27 -6 0 -12 -3 -14 -7 -6 -15 -74 -60 -99 -66 -14 -4 -38 -18 -55 -33
-16 -14 -54 -38 -84 -52 -30 -14 -57 -28 -60 -32 -3 -3 -21 -13 -40 -20 -33
-14 -61 -33 -102 -73 -10 -9 -23 -17 -29 -17 -6 0 -23 -9 -39 -20 -15 -11 -50
-29 -76 -41 -27 -11 -72 -36 -101 -55 -28 -19 -54 -34 -58 -34 -3 0 -27 -15
-53 -32 -51 -36 -137 -85 -164 -94 -10 -4 -18 -10 -18 -14 0 -4 -10 -10 -23
-14 -12 -3 -33 -15 -45 -26 -25 -24 -188 -120 -203 -120 -6 0 -33 -17 -62 -39
-29 -21 -61 -41 -72 -44 -11 -4 -65 -36 -120 -72 -55 -36 -110 -68 -122 -71
-13 -4 -23 -10 -23 -14 0 -4 -8 -10 -17 -13 -34 -11 -128 -69 -149 -93 -12
-13 -35 -26 -51 -30 -43 -11 -188 -80 -236 -112 -51 -35 -201 -112 -218 -112
-6 0 -38 -18 -70 -40 -32 -22 -68 -40 -79 -40 -11 0 -20 -4 -20 -10 0 -5 -6
-10 -13 -10 -7 0 -68 -27 -134 -60 -66 -33 -143 -67 -169 -76 -27 -9 -56 -22
-64 -29 -30 -25 -159 -93 -209 -110 -28 -9 -74 -32 -101 -51 -27 -19 -52 -34
-55 -34 -2 0 -38 -16 -79 -35 -41 -19 -79 -35 -84 -35 -6 0 -32 -15 -58 -33
-27 -19 -102 -57 -168 -86 -65 -28 -132 -63 -148 -76 -16 -14 -41 -28 -56 -32
-14 -3 -59 -21 -98 -40 -40 -18 -78 -33 -84 -33 -21 0 -108 -48 -163 -89 -57
-43 -122 -71 -167 -71 -16 0 -30 -3 -32 -8 -1 -4 -25 -22 -53 -40 -47 -31
-149 -67 -260 -93 -61 -13 -135 -48 -142 -66 -3 -7 -12 -13 -20 -13 -8 0 -27
-8 -41 -18 -15 -10 -56 -29 -92 -42 -36 -13 -95 -38 -132 -57 -37 -18 -73 -33
-81 -33 -7 0 -51 -16 -98 -35 -46 -19 -112 -37 -144 -41 -42 -5 -67 -13 -85
-30 -22 -20 -71 -45 -217 -110 -17 -8 -36 -14 -42 -14 -6 0 -27 -9 -47 -20
-20 -12 -68 -32 -108 -45 -64 -21 -134 -50 -176 -74 -57 -32 -179 -91 -188
-91 -7 0 -45 -16 -86 -35 -41 -19 -82 -35 -90 -35 -17 0 -191 -71 -248 -101
-21 -11 -75 -27 -120 -35 -48 -9 -113 -29 -153 -49 -44 -22 -96 -38 -140 -43
-49 -7 -83 -18 -110 -36 -41 -28 -40 -28 -160 -48 -44 -7 -92 -22 -110 -33
-74 -51 -225 -105 -290 -105 -17 0 -35 -4 -40 -8 -9 -8 -72 -28 -114 -37 -9
-2 -36 -11 -60 -19 -24 -9 -51 -16 -60 -16 -9 0 -49 -16 -88 -35 -40 -19 -80
-35 -90 -35 -10 0 -43 -9 -73 -20 -30 -11 -61 -20 -69 -20 -7 0 -32 -8 -55
-19 -23 -10 -66 -30 -96 -44 -71 -32 -155 -57 -194 -57 -59 0 -161 -28 -246
-68 -98 -45 -177 -68 -280 -81 -44 -6 -97 -21 -134 -39 -89 -43 -270 -84 -471
-107 -59 -7 -136 -25 -150 -36 -5 -4 -27 -10 -47 -14 -21 -4 -38 -11 -38 -16
0 -5 -9 -9 -21 -9 -11 0 -83 -18 -159 -40 -87 -25 -159 -40 -194 -40 -57 0
-122 -20 -166 -52 -14 -9 -63 -24 -110 -32 -47 -8 -128 -27 -180 -40 -52 -14
-117 -26 -144 -26 -30 0 -86 -13 -145 -34 -138 -49 -249 -73 -491 -107 -47 -6
-99 -17 -115 -24 -17 -7 -53 -15 -80 -19 -28 -4 -70 -13 -95 -20 -53 -16 -153
-33 -230 -41 -30 -3 -107 -14 -170 -25 -63 -11 -140 -23 -170 -26 -78 -8 -268
-44 -315 -61 -22 -8 -69 -18 -105 -23 -36 -5 -106 -18 -156 -29 -49 -11 -130
-22 -180 -25 -139 -8 -225 -22 -275 -44 -59 -26 -173 -49 -269 -56 -41 -3
-106 -12 -145 -20 -38 -8 -115 -17 -170 -20 -55 -3 -115 -10 -133 -15 -18 -6
-88 -11 -155 -12 -67 -1 -169 -10 -227 -20 -58 -10 -136 -19 -175 -20 -38 -1
-101 -10 -138 -19 -38 -9 -103 -18 -145 -19 -43 -1 -115 -8 -162 -16 -47 -7
-148 -16 -225 -19 -77 -3 -171 -12 -210 -20 -38 -9 -128 -18 -200 -21 -77 -4
-191 -18 -280 -35 -143 -27 -168 -29 -534 -35 -212 -3 -389 -9 -394 -12 -6 -3
-143 -7 -306 -9 -182 -2 -315 -8 -346 -15 -60 -14 -614 -31 -1015 -31 -407 0
-977 17 -1028 31 -26 7 -177 13 -395 16 -194 2 -426 10 -517 16 -97 7 -213 9
-281 4 l-116 -7 -58 -53 c-32 -30 -70 -59 -86 -65 -15 -7 -36 -28 -46 -48 -39
-78 -72 -120 -102 -130 -17 -6 -31 -17 -31 -24 0 -7 -19 -52 -42 -101 -36 -73
-48 -89 -75 -99 -18 -7 -33 -16 -33 -22 0 -27 -61 -122 -97 -152 -24 -20 -46
-48 -50 -65 -11 -39 -72 -115 -105 -129 -27 -12 -37 -31 -59 -108 -11 -40 -30
-61 -96 -112 -25 -19 -43 -52 -43 -79 0 -12 -25 -47 -57 -80 -32 -32 -65 -74
-74 -92 -9 -19 -22 -47 -30 -63 -8 -16 -35 -49 -61 -74 -31 -30 -55 -64 -67
-96 -13 -38 -26 -55 -51 -68 -19 -10 -42 -34 -53 -55 -11 -21 -24 -47 -30 -58
-6 -11 -17 -32 -24 -47 -8 -14 -27 -35 -43 -45 -17 -11 -41 -39 -54 -64 -13
-24 -34 -62 -45 -84 -12 -22 -36 -49 -54 -60 -20 -13 -37 -36 -48 -65 -18 -49
-73 -120 -93 -120 -16 0 -46 -43 -46 -65 0 -25 -45 -88 -99 -141 -28 -27 -51
-55 -51 -62 0 -27 -35 -79 -85 -127 -35 -33 -57 -63 -63 -87 -7 -25 -28 -54
-61 -84 -35 -32 -62 -70 -85 -118 -24 -49 -48 -83 -79 -108 -33 -27 -49 -50
-62 -90 -18 -58 -49 -98 -75 -98 -9 0 -21 -15 -29 -38 -8 -20 -17 -39 -20 -42
-4 -3 -17 -22 -30 -42 -12 -21 -36 -47 -52 -59 -16 -11 -41 -42 -54 -67 -53
-99 -72 -125 -103 -138 -18 -7 -32 -20 -32 -28 0 -31 -41 -108 -72 -134 -64
-53 -78 -70 -78 -88 0 -26 -47 -94 -101 -148 -26 -25 -51 -62 -59 -86 -9 -26
-31 -57 -62 -85 -34 -30 -54 -60 -70 -100 -16 -43 -31 -63 -55 -78 -38 -22
-76 -74 -117 -159 -17 -37 -37 -62 -54 -70 -19 -9 -38 -37 -65 -91 -25 -52
-47 -83 -65 -94 -16 -9 -36 -34 -45 -55 -26 -59 -85 -135 -110 -142 -15 -4
-29 -22 -45 -63 -35 -87 -69 -141 -99 -155 -18 -9 -31 -28 -41 -56 -9 -28 -35
-65 -70 -100 -30 -31 -60 -70 -68 -87 -13 -32 -56 -85 -115 -144 -25 -25 -38
-49 -42 -78 -6 -35 -17 -50 -63 -90 -37 -32 -64 -66 -81 -101 -15 -34 -38 -63
-63 -80 -36 -25 -45 -40 -114 -182 -6 -14 -26 -34 -44 -45 -21 -13 -44 -45
-67 -91 -22 -43 -45 -75 -60 -82 -13 -6 -36 -37 -55 -74 -18 -35 -38 -70 -46
-79 -8 -8 -14 -20 -14 -26 0 -6 -6 -16 -14 -22 -12 -11 -12 -18 4 -54 16 -35
28 -46 72 -64 29 -12 63 -22 75 -23 23 0 148 -22 238 -41 53 -12 80 -19 160
-44 28 -9 115 -25 195 -36 80 -11 189 -28 242 -39 57 -12 137 -20 195 -20 55
0 122 -7 153 -15 30 -8 92 -15 137 -15 45 0 110 -6 145 -14 35 -8 131 -20 213
-26 83 -6 203 -18 268 -26 65 -8 123 -12 129 -8 7 4 8 3 4 -4 -5 -9 18 -12 86
-12 51 0 118 -7 148 -15 30 -8 96 -15 145 -15 54 0 110 -7 140 -16 28 -9 88
-17 135 -19 47 -1 129 -12 182 -24 66 -14 132 -21 206 -21 72 0 140 -7 203
-21 139 -30 185 -36 283 -38 49 -1 92 -4 97 -7 5 -3 181 -9 392 -14 210 -5
396 -12 412 -15 28 -5 147 -10 895 -36 162 -5 403 -14 535 -19 132 -6 260 -9
285 -8 25 1 77 2 115 1 293 -5 432 -10 444 -17 7 -5 37 -14 66 -21 47 -10 62
-10 127 8 59 16 114 20 293 23 424 8 880 21 895 27 8 3 146 9 305 12 754 18
892 23 925 34 22 7 116 11 250 11 189 0 307 5 623 25 43 2 83 7 88 11 6 3 68
10 137 14 70 4 154 13 187 19 63 11 255 36 365 47 36 3 79 8 95 10 17 2 68 8
115 13 157 19 235 30 270 41 19 5 62 10 94 10 33 0 127 9 210 19 195 25 388
41 499 41 78 0 152 10 197 27 8 4 19 5 23 4 5 -1 25 4 45 10 20 6 102 14 182
19 80 4 210 20 290 34 80 14 188 30 240 36 52 5 158 24 235 41 156 34 175 38
225 43 19 2 71 13 116 25 108 29 113 30 234 40 116 11 175 22 265 51 57 18
240 51 370 65 33 4 91 13 128 21 38 8 95 14 128 14 37 0 123 16 222 40 253 64
278 69 352 80 39 6 81 13 95 15 14 3 61 10 105 16 91 12 120 18 225 49 78 23
102 28 260 55 52 9 129 24 170 35 41 10 88 22 105 25 16 4 56 19 90 35 33 16
78 31 100 34 22 2 60 11 85 19 62 20 129 34 235 48 85 11 146 30 172 55 14 14
147 45 354 83 107 20 173 38 210 57 50 25 81 35 164 50 127 23 294 67 342 89
51 24 261 70 393 85 108 13 175 32 276 81 44 21 90 39 102 39 39 0 196 47 315
94 65 26 139 51 165 56 26 5 85 22 132 39 47 16 105 35 130 41 25 7 72 24 105
40 33 15 78 30 101 34 41 6 159 49 244 88 61 28 159 58 191 58 29 0 158 45
174 61 5 5 17 9 26 9 10 0 30 6 46 14 46 23 87 40 95 38 22 -5 184 41 234 68
32 16 63 30 70 30 6 0 55 18 109 40 54 22 111 40 127 40 15 0 76 16 134 35 58
19 114 35 125 35 11 0 53 18 93 40 40 22 84 40 97 40 29 0 117 26 133 39 33
27 232 117 339 152 67 22 140 51 163 64 23 13 78 38 124 54 46 17 93 37 106
45 12 9 53 26 91 40 37 13 129 50 203 80 74 31 140 56 147 56 6 0 39 16 73 35
34 19 64 35 67 35 3 0 51 18 105 40 55 22 107 40 115 40 7 0 39 16 69 35 30
19 59 35 65 35 6 0 36 12 67 26 69 32 139 54 170 54 13 0 49 17 80 38 31 21
75 44 97 51 22 7 72 27 110 43 170 71 234 97 285 113 30 9 109 44 175 76 66
32 132 60 147 63 15 4 33 12 40 19 22 23 183 106 231 121 26 8 75 32 109 53
63 40 104 61 210 107 32 13 67 34 80 45 12 12 28 21 35 21 7 0 21 4 31 10 9 5
61 30 114 54 53 25 107 54 120 66 12 11 34 23 48 27 36 8 190 82 226 109 16
12 60 35 96 52 36 16 68 34 72 40 3 6 20 14 37 17 18 4 57 22 88 40 31 18 76
38 101 45 25 7 56 20 70 29 74 51 212 121 239 121 9 0 61 27 116 60 55 33 120
67 145 76 60 21 91 36 180 89 41 25 102 58 135 75 33 18 67 38 76 46 15 13 57
37 159 89 14 7 45 22 70 33 43 21 78 40 222 124 35 20 74 47 88 60 27 25 57
43 150 88 36 17 76 41 90 54 14 13 51 37 82 55 32 18 60 36 63 42 4 5 16 9 29
9 13 0 36 11 51 24 15 13 53 36 83 51 30 15 64 36 75 46 11 10 30 22 41 25 12
4 23 10 26 13 13 17 96 71 109 71 13 0 100 46 111 59 6 8 41 29 60 38 8 4 17
10 20 13 3 4 34 22 70 40 36 18 74 40 85 50 30 26 164 100 183 100 9 0 67 34
129 75 62 41 115 75 119 75 3 0 28 18 54 40 26 22 52 40 56 40 5 0 41 16 79
35 39 19 74 35 79 35 14 0 157 99 183 127 12 13 27 23 32 23 6 0 28 16 49 35
21 19 49 39 63 45 13 6 44 23 69 39 25 16 52 30 61 30 8 1 24 9 35 19 10 10
60 48 109 84 50 37 104 78 121 93 16 14 39 32 51 38 11 7 65 42 121 80 55 37
107 67 116 67 9 0 16 4 16 8 0 5 18 18 40 31 22 12 40 26 40 30 0 4 10 12 23
18 12 6 33 20 47 32 35 30 84 64 157 106 35 20 66 42 70 48 5 7 24 23 43 37
19 13 43 34 53 47 10 13 24 23 31 23 12 0 42 16 139 73 16 10 39 29 49 42 10
13 39 34 63 46 25 13 53 30 63 40 11 9 33 24 50 33 17 9 36 25 42 35 5 11 19
23 31 26 33 11 165 102 187 129 11 14 23 26 26 26 14 0 172 94 201 120 17 14
42 32 58 40 15 7 27 17 27 21 0 10 150 115 176 123 11 3 38 22 60 41 21 19 42
35 46 35 4 0 49 41 99 91 50 50 115 105 144 122 55 33 98 67 168 130 22 20 46
37 52 37 5 0 28 17 50 38 44 42 138 112 150 112 4 0 22 13 39 29 17 16 46 43
64 60 31 30 128 106 160 126 9 6 32 25 52 42 19 18 39 33 43 33 4 0 27 19 51
43 24 23 54 50 67 59 70 51 85 64 97 80 7 10 34 30 60 45 52 29 91 59 155 115
23 21 45 38 49 38 4 0 15 8 25 18 10 10 47 43 83 73 36 30 67 57 68 62 2 4 9
7 16 7 7 0 46 31 87 70 41 38 83 73 93 76 11 4 56 34 100 68 101 77 110 84
150 124 18 17 37 32 43 32 15 0 102 91 109 113 3 10 19 24 35 31 16 7 94 75
173 153 79 77 165 155 191 173 44 30 116 97 133 124 4 6 39 36 77 66 39 30 81
65 95 77 14 13 30 23 36 23 7 0 19 11 27 24 14 20 70 79 132 136 8 8 43 43 75
78 33 34 64 62 69 62 10 0 66 49 177 155 45 44 102 96 125 115 23 19 77 69
120 110 130 127 156 150 164 150 4 0 22 13 39 29 17 16 52 47 78 69 26 22 44
43 41 46 -4 3 0 6 8 6 8 0 25 16 38 35 13 19 27 35 32 35 4 0 16 8 26 18 10
10 45 39 78 64 33 25 73 63 89 85 16 22 47 52 68 67 22 16 50 46 64 67 27 44
66 90 107 128 15 14 49 48 75 74 61 62 98 99 112 112 6 6 40 39 75 75 35 36
69 70 76 76 12 12 136 136 150 150 185 193 239 251 239 259 0 11 13 24 168
178 115 114 132 132 132 140 0 13 63 78 105 107 50 35 125 110 125 126 0 6 6
14 14 17 8 3 37 35 65 70 27 35 65 71 84 82 18 10 42 31 53 46 10 16 23 29 28
29 14 0 126 120 126 135 0 8 18 29 41 47 39 31 102 109 124 152 6 12 21 26 33
32 13 6 33 25 45 41 12 16 32 40 45 53 12 13 22 30 22 37 0 7 9 17 20 23 11 6
20 17 20 24 0 8 7 16 15 20 8 3 15 11 16 18 0 7 27 36 61 63 33 28 71 67 84
87 13 21 56 75 94 120 39 46 85 101 103 122 17 22 49 57 70 79 20 22 37 44 37
50 0 6 29 39 64 73 36 35 81 88 100 119 20 30 39 55 44 55 4 0 28 27 52 61 25
33 63 80 85 103 22 24 60 64 83 90 24 25 52 50 61 55 9 5 23 22 31 38 8 15 32
51 52 80 21 29 38 57 38 62 0 5 12 19 28 31 25 20 50 50 104 127 13 18 28 33
34 33 12 0 54 42 54 54 0 10 58 82 110 136 25 25 63 70 85 98 67 89 127 156
156 177 16 11 29 25 29 31 0 6 7 17 15 24 18 15 65 98 65 116 0 7 29 43 64 80
36 37 77 92 92 122 15 30 36 59 46 65 10 7 18 17 18 24 0 7 18 32 40 54 22 23
40 46 40 51 0 5 15 27 33 48 17 21 41 56 52 77 11 21 30 48 43 61 12 13 22 28
22 35 0 7 16 25 35 40 19 15 35 34 35 42 0 8 6 18 13 22 14 8 120 146 148 193
10 15 28 39 42 55 43 48 51 59 96 130 24 39 47 72 50 75 4 3 18 21 31 40 13
19 27 37 30 40 3 3 17 23 30 45 13 22 57 76 97 119 40 44 73 84 73 89 0 5 16
27 35 48 19 22 35 46 35 54 0 8 3 15 8 15 4 0 18 18 32 40 14 22 28 40 32 40
5 0 8 7 8 15 0 8 16 30 35 49 19 20 35 39 35 44 0 16 94 138 128 167 17 15 32
31 32 36 0 5 16 32 35 60 19 28 35 55 35 60 0 4 14 23 31 41 28 30 68 91 109
166 9 16 28 41 43 57 15 17 36 48 46 70 11 22 31 55 45 74 14 19 26 43 26 53
0 10 4 18 9 18 11 0 56 68 104 160 21 41 57 96 78 122 21 26 39 50 39 55 0 5
34 58 75 118 41 61 75 118 75 127 0 9 3 18 8 20 14 6 68 83 81 116 8 17 17 32
20 32 4 0 17 24 30 54 12 29 37 71 56 92 19 21 35 44 35 50 0 6 11 24 25 40
14 16 34 47 44 69 10 22 31 53 47 68 15 15 32 36 38 46 40 68 66 123 66 141 0
12 13 34 29 50 16 16 26 32 23 35 -3 3 2 5 11 5 9 0 17 6 17 13 0 7 8 17 18
23 9 6 28 33 41 60 13 27 34 60 46 74 22 23 50 68 82 132 8 15 18 30 24 33 5
4 9 17 9 29 0 13 7 29 15 36 8 7 36 46 61 86 25 41 50 74 54 74 5 0 11 8 14
18 4 10 15 28 25 39 11 11 34 49 52 84 17 35 42 75 55 87 13 13 30 48 39 78
18 63 64 152 111 213 19 24 34 50 34 57 0 7 7 19 15 27 8 8 26 40 40 72 15 31
42 77 61 102 19 24 34 50 34 56 0 17 53 141 62 145 5 2 8 11 8 20 0 10 12 32
27 50 15 18 51 77 80 132 28 55 68 120 87 144 20 24 36 49 36 56 0 7 16 41 35
77 19 36 35 71 35 78 0 7 13 28 29 48 15 20 34 51 41 69 7 18 34 76 61 128 27
52 65 129 85 170 20 41 39 77 43 80 18 12 121 176 121 192 0 23 95 215 112
228 4 3 19 30 33 60 14 30 39 73 55 95 16 22 29 48 30 57 0 9 7 44 16 77 23
91 -1 234 -49 290 -16 19 -36 51 -44 70 -32 80 -100 201 -124 221 -3 3 -12 23
-19 45 -16 55 -75 167 -122 233 -21 31 -38 62 -38 71 0 13 -45 90 -100 171
-21 32 -50 95 -50 111 0 20 -45 102 -65 119 -8 7 -15 17 -15 21 0 5 -16 32
-35 60 -19 28 -35 59 -35 69 0 10 -15 40 -34 67 -19 27 -45 72 -59 99 -14 28
-33 56 -41 63 -9 8 -16 19 -16 26 0 7 -18 40 -40 73 -22 33 -40 67 -40 77 0 9
-16 44 -35 76 -19 33 -35 64 -35 69 0 5 -13 24 -29 42 -35 41 -40 51 -91 177
-23 57 -55 118 -72 136 -40 44 -60 85 -93 182 -19 58 -37 91 -61 115 -18 18
-34 38 -34 45 0 6 -6 18 -13 25 -8 7 -33 46 -57 86 -24 40 -46 72 -50 72 -5 0
-15 17 -24 38 -9 20 -32 57 -50 82 -19 25 -35 48 -35 53 -1 4 -17 30 -36 58
-19 28 -35 55 -35 60 0 9 -22 38 -57 75 -13 13 -23 27 -23 32 0 5 -16 31 -35
58 -19 27 -35 53 -35 58 0 4 -18 30 -40 56 -22 26 -40 53 -40 59 0 20 -70 143
-111 197 -21 28 -39 56 -39 62 0 16 -42 86 -57 95 -7 4 -13 14 -13 22 0 7 -13
25 -30 38 -30 26 -120 182 -120 209 0 8 -10 23 -21 34 -22 19 -111 145 -139
196 -39 70 -116 190 -165 258 -30 41 -54 81 -55 89 0 16 -64 119 -117 190 -18
24 -33 52 -33 62 0 11 -14 31 -31 46 -40 36 -119 146 -119 166 0 9 -10 28 -23
44 -13 15 -43 56 -67 91 -23 34 -47 62 -51 62 -5 0 -9 6 -9 13 0 7 -15 28 -32
47 -18 19 -40 45 -48 56 -40 56 -76 112 -93 144 -11 19 -28 43 -38 53 -11 10
-19 22 -19 27 0 5 -15 25 -32 43 -65 68 -100 113 -128 167 -16 30 -54 82 -84
115 -31 33 -56 68 -56 77 0 9 -3 18 -8 20 -4 2 -36 43 -72 92 -36 49 -84 108
-107 130 -24 22 -43 44 -43 50 0 5 -9 19 -19 30 -11 12 -33 48 -49 81 -17 33
-42 71 -56 84 -14 14 -26 28 -26 33 0 4 -28 42 -62 83 -35 42 -76 93 -91 115
-15 21 -48 61 -73 87 -25 26 -61 81 -80 121 -19 39 -39 72 -43 72 -5 0 -15 15
-22 33 -16 39 -33 60 -126 157 -39 41 -82 95 -95 120 -12 25 -50 80 -83 124
-33 43 -67 88 -75 100 -8 13 -45 52 -81 88 -36 36 -71 80 -79 97 -7 17 -16 31
-21 31 -14 0 -92 89 -130 149 -39 62 -120 151 -138 151 -6 0 -11 5 -11 11 0 6
-16 26 -35 45 -19 18 -35 37 -35 41 0 5 -18 28 -40 53 -22 25 -40 50 -40 56 0
5 -16 25 -35 44 -19 19 -35 37 -35 42 0 13 -30 48 -111 128 -42 41 -96 100
-120 130 -24 30 -50 61 -56 68 -7 7 -13 17 -13 22 0 10 -49 67 -116 134 -22
23 -68 78 -102 123 -34 45 -66 85 -72 88 -5 3 -17 21 -26 40 -9 19 -19 35 -23
35 -18 0 -177 172 -195 211 -5 10 -12 19 -16 19 -4 0 -20 19 -35 43 -51 78
-214 257 -234 257 -6 0 -11 6 -11 13 0 12 -20 36 -140 167 -33 36 -71 82 -85
103 -14 20 -29 37 -34 37 -4 0 -21 13 -37 30 -16 16 -33 30 -37 30 -11 0 -93
86 -115 119 -30 45 -86 104 -379 397 -160 161 -305 313 -322 337 -17 25 -37
47 -46 50 -8 4 -15 13 -15 21 0 8 -15 25 -32 38 -18 12 -51 42 -73 66 -22 25
-53 56 -69 71 -17 14 -50 48 -75 76 -25 27 -59 61 -75 75 -38 32 -56 51 -82
81 -11 13 -45 47 -75 75 -89 84 -199 206 -199 221 0 16 -88 102 -105 103 -5 0
-27 18 -49 40 -21 22 -42 40 -47 40 -13 0 -92 83 -109 114 -8 16 -24 33 -36
38 -12 6 -27 21 -33 34 -6 14 -19 28 -28 31 -10 4 -27 19 -39 33 -12 14 -35
32 -50 40 -38 20 -73 50 -169 145 -98 97 -173 165 -185 165 -4 0 -72 63 -150
139 -78 77 -158 147 -176 156 -19 9 -34 20 -34 26 0 11 -110 125 -126 130 -22
7 -119 95 -258 235 -78 77 -157 151 -176 165 -19 13 -42 31 -51 39 -10 8 -36
31 -60 50 -23 19 -76 70 -117 113 -41 42 -80 77 -87 77 -7 0 -57 43 -111 96
-54 53 -114 108 -134 122 -42 31 -103 83 -148 125 -18 17 -41 35 -51 41 -63
38 -133 90 -138 102 -3 8 -46 46 -97 86 -50 39 -99 79 -109 90 -10 10 -22 18
-27 18 -5 0 -29 17 -53 38 -25 20 -60 48 -78 62 -19 14 -62 49 -96 78 -34 28
-66 52 -70 52 -4 0 -28 16 -52 35 -24 19 -48 35 -52 35 -5 0 -30 23 -56 52
-26 28 -73 67 -103 86 -30 19 -69 48 -86 66 -44 44 -111 96 -123 96 -6 0 -18
11 -27 25 -15 22 -157 125 -174 125 -4 0 -16 12 -26 27 -10 14 -26 32 -34 40
-26 25 -118 93 -124 93 -4 0 -20 16 -37 35 -17 19 -35 35 -40 35 -5 0 -35 18
-66 40 -32 22 -62 40 -66 40 -4 0 -53 45 -108 100 -77 78 -115 108 -164 130
-40 18 -85 50 -119 85 -31 30 -59 55 -64 55 -4 0 -24 15 -44 33 -37 33 -154
117 -164 117 -7 0 -68 39 -172 108 -36 23 -69 42 -74 42 -6 0 -19 11 -29 24
-19 25 -180 136 -196 136 -5 0 -26 16 -47 35 -21 19 -42 35 -47 35 -5 0 -17 7
-26 16 -29 25 -93 64 -106 64 -7 0 -27 16 -46 35 -19 19 -38 35 -42 35 -5 0
-48 31 -97 69 -48 37 -112 79 -142 93 -30 14 -82 50 -114 79 -32 30 -68 57
-78 62 -24 9 -188 115 -206 134 -7 7 -18 13 -24 13 -6 0 -27 15 -48 33 -20 17
-51 43 -69 57 -17 14 -43 35 -56 48 -13 12 -28 22 -33 22 -6 0 -24 13 -40 28
-17 16 -61 44 -97 63 -37 19 -71 40 -77 46 -6 7 -19 13 -29 13 -9 0 -24 6 -31
13 -27 26 -115 95 -158 125 -25 17 -58 42 -74 56 -16 14 -35 26 -41 26 -7 0
-45 16 -84 35 -39 19 -74 35 -79 35 -4 0 -29 14 -55 30 -26 17 -51 30 -55 30
-4 0 -26 -15 -49 -33z"/>
<path d="M57389 36226 c-19 -19 -55 -42 -80 -52 -52 -20 -89 -56 -89 -89 0
-15 -21 -45 -63 -87 -41 -41 -75 -89 -99 -138 -27 -54 -45 -78 -66 -88 -28
-12 -72 -76 -72 -105 0 -19 -48 -77 -63 -77 -15 0 -57 -61 -57 -83 0 -8 -5
-19 -11 -23 -6 -3 -17 -22 -25 -41 -8 -18 -25 -38 -38 -43 -14 -5 -30 -20 -38
-33 -56 -104 -95 -162 -118 -175 -17 -10 -40 -43 -61 -86 -26 -53 -44 -78 -75
-98 -29 -19 -43 -37 -48 -58 -7 -37 -80 -142 -105 -152 -10 -3 -33 -37 -51
-75 -21 -41 -53 -85 -81 -111 -33 -30 -50 -56 -59 -88 -9 -30 -24 -54 -49 -74
-59 -48 -75 -66 -94 -107 -11 -21 -26 -52 -34 -70 -8 -17 -35 -45 -58 -62 -36
-26 -47 -42 -65 -96 -12 -36 -26 -65 -32 -65 -17 0 -54 -44 -84 -100 -15 -27
-30 -50 -34 -50 -4 0 -10 -9 -13 -20 -3 -11 -19 -28 -36 -37 -21 -12 -41 -40
-62 -83 -18 -36 -37 -76 -44 -90 -7 -14 -26 -31 -41 -38 -20 -9 -38 -33 -57
-72 -28 -57 -80 -120 -100 -120 -14 0 -36 -32 -37 -53 0 -26 -44 -91 -100
-147 -30 -31 -50 -59 -50 -73 0 -36 -32 -84 -78 -117 -29 -20 -51 -48 -64 -78
-12 -26 -41 -64 -65 -86 -43 -38 -84 -104 -97 -159 -4 -16 -23 -43 -43 -60
-66 -58 -79 -73 -93 -116 -9 -28 -28 -55 -56 -78 -24 -19 -46 -44 -50 -56 -4
-12 -17 -36 -30 -53 -13 -17 -24 -35 -24 -40 0 -5 -17 -19 -38 -32 -21 -13
-44 -38 -51 -55 -54 -127 -71 -157 -90 -157 -25 0 -58 -41 -73 -92 -8 -26 -32
-60 -70 -97 -32 -32 -58 -63 -58 -70 0 -15 -58 -93 -110 -148 -22 -23 -40 -51
-40 -63 0 -12 -5 -31 -11 -43 -16 -32 -71 -87 -86 -87 -13 0 -46 -57 -56 -100
-4 -14 -31 -50 -62 -81 -30 -31 -66 -80 -79 -108 -25 -55 -53 -91 -69 -91 -15
0 -34 -28 -67 -97 -19 -42 -41 -70 -64 -85 -25 -16 -47 -47 -75 -103 -26 -51
-52 -87 -71 -100 -32 -21 -35 -25 -88 -124 -21 -41 -45 -69 -67 -83 -19 -11
-35 -27 -35 -36 0 -26 -48 -99 -89 -134 -33 -28 -74 -92 -125 -195 -6 -13 -19
-23 -28 -23 -24 0 -55 -44 -63 -90 -5 -29 -19 -50 -60 -89 -48 -45 -85 -99
-85 -123 0 -13 -52 -68 -64 -68 -12 0 -80 -103 -90 -135 -6 -20 -29 -46 -78
-87 -15 -13 -38 -50 -51 -83 -19 -46 -33 -64 -60 -79 -20 -10 -38 -26 -41 -35
-10 -30 -74 -143 -95 -167 -12 -13 -27 -24 -33 -24 -7 0 -18 -10 -25 -23 -6
-12 -23 -45 -37 -74 -14 -28 -43 -65 -65 -82 -26 -21 -41 -42 -45 -65 -4 -19
-20 -49 -36 -67 -16 -19 -30 -37 -30 -41 0 -3 -12 -10 -28 -16 -15 -5 -32 -20
-38 -33 -55 -117 -86 -161 -140 -195 -13 -9 -24 -25 -24 -35 0 -38 -31 -92
-74 -130 -25 -22 -52 -59 -64 -88 -14 -31 -39 -63 -69 -89 -52 -43 -93 -109
-93 -148 0 -14 -13 -35 -31 -51 -67 -59 -88 -84 -94 -113 -4 -16 -11 -30 -16
-30 -5 0 -9 -6 -9 -13 0 -16 -42 -57 -58 -57 -6 0 -18 -16 -26 -35 -8 -19 -26
-50 -40 -68 -15 -19 -26 -37 -26 -40 0 -4 -20 -25 -44 -47 -30 -28 -50 -58
-65 -98 -21 -59 -42 -86 -84 -106 -12 -6 -34 -35 -48 -65 -30 -61 -49 -89
-101 -147 -21 -23 -38 -48 -38 -56 0 -9 -7 -21 -15 -28 -8 -6 -17 -22 -21 -33
-6 -22 -38 -56 -87 -92 -15 -11 -27 -29 -27 -41 0 -25 -47 -92 -86 -123 -29
-23 -64 -82 -64 -108 0 -8 -31 -47 -69 -87 -48 -51 -73 -86 -81 -114 -6 -24
-22 -49 -38 -61 -48 -36 -63 -55 -92 -111 -16 -30 -48 -73 -72 -96 -24 -22
-60 -73 -81 -115 -22 -44 -50 -83 -67 -94 -17 -11 -30 -24 -30 -28 0 -5 -9
-20 -20 -34 -11 -14 -20 -32 -20 -40 0 -23 -46 -84 -79 -104 -21 -13 -31 -26
-31 -44 0 -14 -4 -25 -9 -25 -5 0 -12 -9 -16 -20 -3 -10 -33 -46 -66 -78 -32
-33 -59 -65 -59 -73 0 -21 -72 -129 -86 -129 -18 0 -64 -58 -64 -80 0 -22 -20
-70 -30 -70 -19 0 -94 -87 -115 -133 -13 -31 -49 -81 -84 -117 -38 -39 -66
-78 -73 -102 -7 -23 -28 -54 -52 -76 -23 -20 -57 -68 -75 -105 -26 -51 -43
-72 -68 -83 -18 -9 -33 -20 -33 -24 0 -4 -17 -37 -39 -71 -21 -35 -41 -74 -45
-86 -4 -12 -19 -26 -34 -31 -26 -9 -72 -77 -72 -107 0 -15 -29 -52 -77 -97
-18 -17 -33 -38 -33 -46 0 -21 -65 -105 -104 -135 -23 -18 -40 -45 -56 -88
-26 -69 -59 -113 -100 -134 -20 -10 -33 -29 -45 -65 -15 -45 -62 -100 -86
-100 -11 0 -69 -100 -69 -120 0 -9 -25 -40 -55 -70 -40 -40 -60 -70 -76 -114
-18 -49 -32 -69 -71 -99 -26 -20 -54 -53 -62 -72 -8 -19 -36 -56 -63 -82 -29
-30 -64 -81 -91 -136 -33 -66 -53 -94 -78 -109 -23 -14 -44 -41 -70 -94 -20
-41 -42 -74 -49 -74 -18 0 -65 -57 -65 -79 0 -16 -65 -101 -83 -109 -19 -9
-67 -68 -67 -84 0 -37 -38 -104 -71 -122 -54 -32 -79 -65 -79 -107 0 -13 -23
-44 -60 -81 -32 -33 -62 -68 -65 -79 -4 -10 -11 -19 -16 -19 -5 0 -9 -8 -9
-17 -1 -10 -27 -46 -58 -80 -37 -41 -63 -80 -76 -115 -21 -60 -42 -88 -65 -88
-14 0 -54 -51 -56 -70 -3 -22 -45 -89 -75 -119 -39 -38 -103 -132 -114 -166
-4 -11 -23 -32 -44 -46 -26 -18 -42 -40 -55 -75 -18 -50 -76 -124 -98 -124
-16 0 -38 -31 -39 -53 0 -26 -44 -90 -97 -144 -27 -26 -53 -62 -59 -81 -15
-43 -56 -102 -71 -102 -17 0 -61 -57 -71 -93 -5 -18 -36 -59 -68 -92 -41 -42
-68 -81 -87 -126 -18 -43 -36 -70 -52 -77 -31 -14 -68 -67 -85 -120 -12 -39
-58 -92 -80 -92 -4 0 -13 -15 -21 -32 -7 -18 -23 -47 -36 -64 -13 -17 -23 -35
-23 -40 0 -5 -16 -19 -36 -32 -19 -12 -38 -31 -42 -40 -12 -29 -74 -136 -90
-154 -8 -10 -24 -18 -34 -18 -10 0 -20 -6 -22 -12 -19 -66 -44 -116 -70 -140
-17 -16 -43 -40 -58 -54 -16 -14 -28 -32 -28 -41 0 -23 -72 -132 -91 -138 -21
-7 -53 -52 -70 -98 -14 -40 -82 -117 -102 -117 -7 0 -18 -19 -25 -42 -16 -53
-51 -106 -75 -114 -19 -6 -87 -101 -87 -122 0 -20 -43 -81 -63 -88 -24 -8 -62
-62 -77 -109 -14 -44 -43 -82 -71 -90 -9 -3 -20 -16 -23 -28 -3 -12 -16 -37
-28 -56 -13 -19 -30 -46 -38 -60 -9 -14 -30 -33 -46 -41 -23 -11 -37 -30 -55
-74 -41 -99 -54 -120 -92 -141 -21 -11 -39 -30 -42 -44 -10 -41 -67 -129 -90
-139 -12 -6 -34 -35 -50 -66 -15 -30 -56 -84 -90 -120 -48 -50 -64 -74 -69
-104 -4 -28 -16 -49 -38 -69 -84 -75 -108 -102 -108 -124 0 -15 -23 -51 -60
-94 -33 -38 -72 -93 -85 -121 -14 -30 -44 -68 -70 -90 -42 -36 -85 -101 -85
-129 0 -15 -43 -55 -58 -55 -7 0 -18 -12 -24 -27 -22 -51 -86 -138 -115 -157
-16 -10 -35 -33 -42 -50 -42 -100 -74 -153 -103 -171 -20 -13 -38 -36 -48 -62
-13 -36 -53 -86 -119 -147 -12 -11 -21 -26 -21 -33 0 -26 -50 -101 -100 -149
-31 -30 -50 -58 -55 -80 -7 -39 -48 -92 -81 -104 -24 -10 -64 -76 -64 -107 0
-10 -25 -43 -57 -73 -35 -35 -67 -78 -85 -117 -16 -34 -41 -69 -56 -79 -37
-24 -49 -40 -82 -111 -19 -42 -40 -69 -64 -85 -23 -15 -47 -46 -68 -88 -18
-35 -52 -84 -75 -108 -24 -23 -43 -47 -43 -52 0 -6 -4 -10 -9 -10 -5 0 -14
-13 -21 -30 -25 -61 -69 -120 -90 -120 -13 0 -22 -9 -26 -27 -13 -49 -45 -97
-100 -149 -30 -28 -54 -56 -54 -64 0 -26 -62 -120 -100 -150 -29 -23 -43 -44
-54 -84 -12 -40 -27 -64 -63 -97 -27 -24 -62 -71 -78 -104 -19 -37 -41 -65
-58 -73 -39 -19 -107 -128 -107 -172 0 -18 -32 -49 -71 -69 -16 -8 -35 -34
-52 -74 -21 -48 -36 -67 -62 -81 -19 -11 -35 -22 -35 -27 0 -4 -15 -33 -34
-65 -19 -33 -42 -74 -52 -91 -9 -19 -24 -33 -34 -33 -18 0 -26 -12 -73 -105
-11 -22 -40 -58 -63 -80 -24 -22 -49 -56 -56 -75 -6 -19 -24 -48 -40 -65 -15
-16 -28 -33 -28 -37 0 -5 -6 -8 -14 -8 -16 0 -56 -50 -56 -69 0 -25 -82 -137
-115 -159 -21 -13 -35 -30 -35 -42 0 -38 -30 -93 -69 -127 -22 -18 -56 -62
-75 -98 -21 -37 -52 -76 -74 -91 -37 -26 -92 -122 -92 -158 0 -9 -22 -33 -49
-53 -36 -28 -56 -55 -80 -105 -22 -48 -39 -72 -61 -83 -16 -8 -30 -20 -30 -25
0 -16 -80 -131 -121 -175 -21 -22 -47 -65 -59 -95 -26 -65 -34 -76 -81 -106
-23 -14 -38 -33 -42 -51 -8 -37 -77 -140 -103 -151 -11 -6 -36 -41 -55 -78
-30 -61 -100 -144 -121 -144 -4 0 -14 -24 -23 -54 -15 -52 -39 -83 -80 -104
-19 -10 -75 -101 -75 -123 0 -6 -26 -38 -57 -71 -59 -61 -88 -104 -97 -148 -3
-14 -18 -33 -33 -43 -16 -11 -37 -36 -47 -57 -18 -38 -18 -39 5 -87 23 -46 26
-48 74 -55 67 -9 633 1 715 12 36 5 136 10 222 10 100 0 180 5 220 14 38 9
148 17 278 21 427 11 525 16 528 25 2 6 8 8 13 5 10 -7 129 16 124 24 -2 3 13
7 33 7 127 4 371 28 447 44 49 10 113 21 140 24 63 6 177 24 275 42 193 37
243 45 360 53 69 5 166 16 215 25 50 8 117 17 150 20 107 11 237 37 274 55 46
24 198 61 248 61 21 0 76 11 123 24 85 24 103 30 195 61 108 37 214 61 275 64
39 2 105 16 169 37 58 19 142 46 186 60 46 15 134 32 207 40 116 13 165 26
263 69 52 23 255 85 298 91 61 9 128 32 159 54 15 11 33 20 40 20 8 0 22 6 33
13 32 22 164 67 195 67 16 0 57 15 92 33 83 43 317 117 369 117 13 0 47 17 74
38 63 47 85 56 187 81 105 25 209 60 225 77 8 7 53 25 101 39 189 56 216 67
255 100 22 19 52 37 67 40 16 3 54 22 85 41 32 19 64 34 71 34 8 0 14 4 14 8
0 12 110 60 165 72 25 6 76 24 112 40 36 17 74 30 84 30 9 0 19 3 21 8 5 13
85 72 97 72 11 0 252 123 276 140 6 4 23 10 39 14 17 4 41 15 55 25 14 10 64
37 111 60 47 24 89 47 94 52 6 5 19 9 30 9 12 0 48 18 81 40 33 22 69 40 79
40 28 0 163 68 221 112 28 21 57 38 66 38 9 0 36 16 60 35 24 19 50 35 57 35
6 0 12 4 12 8 0 4 18 19 40 32 22 14 40 28 40 31 0 4 11 10 24 13 29 7 151 78
185 107 14 12 50 31 81 42 58 21 92 43 143 93 18 17 58 41 91 54 32 13 70 33
85 45 14 12 36 25 49 29 12 4 22 11 22 16 0 12 82 60 101 60 12 0 91 50 109
70 3 3 17 11 32 19 15 8 36 22 46 31 10 10 29 21 43 25 24 8 67 35 104 66 11
10 56 36 100 59 116 60 145 80 145 96 0 8 6 14 13 14 6 0 29 16 50 35 21 19
44 35 51 35 7 0 27 18 45 40 17 22 36 40 41 40 14 0 131 81 169 117 19 18 39
33 45 33 7 0 42 29 78 64 37 35 84 71 105 81 44 21 143 85 158 102 6 6 43 33
84 60 113 73 116 76 148 108 16 17 60 50 97 75 37 25 84 60 104 77 20 18 42
33 49 33 6 0 28 18 49 40 21 22 42 40 47 40 5 0 14 6 22 13 7 7 26 24 41 38
16 13 41 39 56 57 16 19 54 54 85 80 32 26 106 94 165 151 59 58 115 109 125
114 10 5 32 22 48 38 17 15 50 45 74 66 41 35 60 54 109 108 27 29 95 85 104
85 5 0 79 71 166 158 86 87 206 195 265 241 60 46 111 91 115 100 3 8 30 38
60 66 69 63 76 71 114 120 32 43 166 189 288 314 41 43 91 99 110 125 19 26
85 99 145 161 61 63 122 129 137 147 15 18 39 48 54 66 14 18 62 68 106 110
43 42 99 105 124 139 25 35 49 63 54 63 5 0 11 9 15 19 3 10 21 34 40 52 19
19 35 40 35 46 0 7 15 23 33 35 35 22 38 26 111 142 42 67 73 107 129 169 15
16 27 33 27 37 0 3 16 23 35 44 19 21 59 75 89 121 31 45 67 90 81 99 14 9 25
22 25 28 0 13 61 111 72 116 5 2 8 9 8 16 0 7 15 27 33 44 17 17 50 54 72 83
22 28 52 65 66 83 15 17 41 56 58 86 38 64 70 111 109 158 15 19 29 38 31 44
2 6 11 18 20 28 32 34 61 70 61 78 0 4 13 24 30 44 16 20 34 46 40 59 6 13 24
44 40 69 16 25 34 55 40 68 5 13 23 42 39 65 15 23 36 59 46 80 10 22 24 41
32 44 8 3 23 23 34 44 11 22 23 39 27 39 4 0 21 26 37 58 15 31 41 73 57 92
15 19 28 39 28 45 0 17 49 116 66 132 8 8 14 20 14 28 0 7 11 20 23 28 13 9
36 41 51 73 15 31 38 71 51 89 14 17 25 37 25 43 0 7 4 12 10 12 12 0 60 82
60 104 0 30 39 95 90 149 27 28 52 61 55 72 10 32 58 129 72 143 7 7 13 17 13
21 0 4 9 16 19 28 28 29 61 98 61 126 0 29 30 89 75 147 19 25 38 52 41 60 3
8 12 30 20 48 8 18 14 41 14 52 0 22 48 127 61 136 5 3 9 14 9 24 0 10 4 20 8
22 13 5 62 98 82 155 10 29 28 65 39 79 12 15 21 32 21 38 0 6 16 41 35 78 19
36 40 90 45 119 10 53 76 175 113 210 11 10 28 50 38 89 11 40 30 86 43 104
12 17 37 65 56 106 18 41 37 79 41 85 5 5 9 17 9 26 0 9 16 49 35 88 19 39 35
76 35 83 0 7 18 65 40 128 22 63 40 125 40 138 0 13 16 50 35 83 19 33 38 72
41 86 4 15 13 38 20 51 7 14 25 63 39 111 28 88 30 94 64 171 11 25 23 59 27
75 4 17 22 63 40 103 19 41 34 83 34 94 0 35 23 101 52 151 15 26 28 51 28 56
0 4 23 75 50 157 47 138 72 226 84 285 7 37 36 122 50 144 15 23 33 97 40 165
8 73 23 142 49 221 61 185 93 312 101 401 4 31 20 92 37 135 16 43 34 101 39
130 5 29 20 80 34 115 26 62 35 101 57 248 6 41 20 118 32 170 11 52 23 124
27 160 4 36 17 110 29 165 12 55 28 129 36 165 8 36 17 121 20 189 4 85 14
153 31 215 14 50 28 114 30 141 3 28 12 82 19 120 8 39 21 122 30 185 9 63 19
126 21 140 3 14 9 84 14 155 5 72 16 178 24 235 17 119 27 253 31 420 8 273
24 578 33 621 6 25 12 87 13 139 1 51 5 109 10 129 4 20 10 90 13 156 4 66 9
170 13 230 8 148 8 460 -1 620 -4 72 -12 225 -17 340 -15 303 -26 454 -38 500
-6 22 -11 142 -11 270 0 196 -3 239 -19 290 -10 33 -22 101 -26 150 -4 50 -9
99 -12 110 -2 11 -8 99 -13 195 -5 96 -12 198 -15 225 -10 84 -35 255 -50 340
-8 44 -22 129 -30 189 -9 60 -25 144 -36 185 -11 46 -19 111 -19 166 0 53 -7
111 -16 140 -8 28 -18 61 -20 75 -3 14 -12 52 -21 85 -8 33 -18 71 -20 85 -3
14 -18 75 -34 135 -16 61 -33 151 -38 200 -11 100 -34 206 -57 265 -9 21 -22
65 -29 97 -7 32 -20 83 -28 113 -18 68 -42 192 -57 290 -11 73 -41 185 -81
305 -28 82 -59 204 -59 230 0 11 -16 50 -35 85 -19 36 -35 80 -35 97 0 32 -35
148 -50 168 -5 6 -15 42 -23 80 -8 39 -26 98 -40 132 -15 33 -31 78 -36 100
-24 94 -78 233 -90 233 -4 0 -22 -15 -42 -34z"/>
</g>
</svg>
