<?xml version="1.0" standalone="no"?>
<!DOCTYPE svg PUBLIC "-//W3C//DTD SVG 20010904//EN"
 "http://www.w3.org/TR/2001/REC-SVG-20010904/DTD/svg10.dtd">
<svg version="1.0" xmlns="http://www.w3.org/2000/svg"
 width="7688.000000pt" height="5000.000000pt" viewBox="0 0 7688.000000 5000.000000"
 preserveAspectRatio="xMidYMid meet">

<g transform="translate(0.000000,5000.000000) scale(0.100000,-0.100000)"
fill="#000000" stroke="none">
<path d="M37950 48934 c-47 -2 -242 -8 -435 -14 -326 -10 -412 -13 -635 -25
-338 -18 -468 -26 -485 -30 -11 -3 -153 -10 -315 -15 -162 -5 -333 -12 -380
-15 -47 -2 -146 -7 -220 -10 -74 -3 -189 -10 -255 -15 -66 -5 -163 -12 -215
-15 -294 -18 -532 -44 -650 -70 -36 -8 -105 -19 -155 -25 -49 -5 -121 -14
-160 -20 -79 -10 -252 -25 -490 -40 -281 -18 -457 -39 -630 -75 -87 -18 -284
-40 -525 -60 -286 -23 -481 -54 -543 -87 -10 -5 -41 -13 -70 -18 -29 -5 -83
-16 -122 -24 -38 -8 -135 -22 -215 -31 -186 -20 -296 -40 -390 -71 -91 -30
-249 -59 -436 -79 -184 -20 -291 -40 -394 -74 -93 -31 -205 -50 -462 -81 -186
-22 -269 -39 -373 -75 -38 -13 -135 -36 -215 -50 -244 -45 -323 -64 -382 -95
-57 -30 -115 -44 -324 -80 -131 -22 -231 -51 -281 -81 -18 -11 -54 -24 -80
-29 -26 -4 -113 -20 -193 -34 -144 -25 -273 -62 -316 -91 -22 -14 -151 -43
-294 -65 -112 -17 -146 -27 -250 -70 -74 -30 -140 -47 -295 -75 -175 -31 -212
-41 -296 -80 -52 -25 -105 -45 -118 -45 -12 0 -77 -13 -144 -29 -88 -21 -142
-41 -194 -70 -47 -27 -98 -46 -150 -56 -137 -28 -237 -56 -268 -75 -81 -49
-115 -62 -202 -80 -164 -34 -215 -51 -283 -90 -36 -22 -85 -44 -110 -49 -25
-6 -97 -22 -160 -36 -79 -18 -132 -36 -170 -59 -88 -53 -95 -56 -192 -72 -103
-18 -244 -59 -253 -74 -15 -24 -112 -62 -193 -75 -125 -22 -220 -52 -277 -89
-63 -41 -68 -43 -186 -66 -100 -19 -178 -52 -240 -101 -20 -16 -58 -33 -85
-39 -115 -27 -216 -63 -242 -87 -31 -29 -118 -73 -146 -73 -48 0 -147 -36
-206 -75 -83 -54 -123 -72 -183 -79 -55 -7 -181 -63 -215 -96 -25 -24 -117
-60 -154 -60 -27 0 -107 -24 -138 -40 -12 -6 -31 -21 -42 -32 -27 -27 -141
-78 -175 -78 -51 0 -107 -22 -174 -66 -84 -56 -146 -84 -185 -84 -52 0 -148
-39 -197 -80 -44 -36 -128 -70 -174 -70 -37 0 -118 -33 -157 -63 -52 -41 -147
-87 -193 -94 -47 -7 -84 -25 -120 -59 -35 -33 -159 -94 -191 -94 -31 0 -80
-26 -120 -65 -33 -31 -120 -71 -209 -94 -23 -7 -59 -27 -79 -47 -42 -39 -143
-89 -201 -100 -49 -9 -82 -26 -113 -60 -28 -31 -131 -80 -187 -90 -50 -9 -82
-26 -116 -63 -27 -29 -166 -91 -204 -91 -21 0 -93 -46 -93 -59 0 -13 -120 -69
-184 -85 -61 -16 -72 -22 -122 -68 -30 -28 -191 -98 -224 -98 -10 0 -37 -17
-61 -39 -53 -46 -80 -60 -185 -96 -57 -19 -92 -38 -120 -64 -24 -23 -75 -53
-129 -76 -55 -23 -110 -56 -140 -82 -40 -36 -168 -103 -196 -103 -3 0 -24 -17
-45 -37 -21 -20 -84 -58 -140 -85 -55 -26 -111 -60 -125 -74 -13 -15 -53 -40
-89 -56 -36 -16 -79 -36 -96 -43 -16 -8 -39 -24 -50 -36 -28 -32 -85 -66 -161
-95 -39 -15 -85 -43 -108 -65 -22 -20 -83 -58 -135 -82 -52 -25 -107 -56 -122
-70 -32 -30 -55 -43 -160 -92 -43 -20 -81 -42 -85 -49 -15 -24 -79 -64 -141
-87 -35 -13 -85 -43 -112 -65 -27 -23 -93 -63 -147 -89 -54 -26 -111 -60 -128
-75 -16 -16 -64 -45 -106 -64 -42 -20 -96 -54 -120 -74 -48 -42 -82 -63 -176
-112 -35 -18 -63 -37 -63 -44 0 -13 -66 -60 -99 -71 -13 -4 -51 -30 -85 -59
-33 -28 -104 -77 -157 -109 -52 -31 -105 -68 -117 -82 -12 -14 -48 -38 -80
-53 -31 -15 -79 -49 -107 -75 -27 -25 -63 -52 -80 -59 -16 -7 -34 -16 -40 -20
-65 -51 -173 -124 -225 -152 -36 -18 -76 -47 -88 -64 -13 -16 -46 -42 -75 -57
-29 -15 -70 -42 -92 -59 -22 -17 -60 -45 -85 -61 -25 -17 -47 -33 -50 -37 -3
-4 -27 -16 -53 -27 -26 -11 -69 -41 -95 -67 -26 -26 -67 -55 -90 -65 -24 -11
-67 -39 -95 -64 -28 -24 -87 -64 -131 -90 -45 -25 -101 -64 -126 -86 -25 -22
-67 -52 -95 -66 -27 -14 -66 -42 -85 -62 -20 -20 -57 -49 -83 -64 -26 -15 -59
-39 -74 -54 -16 -14 -53 -44 -83 -66 -30 -22 -57 -44 -60 -47 -3 -4 -23 -19
-45 -33 -22 -14 -62 -46 -89 -72 -27 -25 -66 -55 -87 -65 -21 -11 -52 -38 -70
-60 -18 -22 -56 -53 -85 -70 -30 -16 -61 -42 -71 -56 -9 -15 -47 -46 -83 -69
-36 -23 -79 -55 -96 -70 -37 -35 -128 -104 -174 -132 -19 -12 -55 -43 -79 -68
-24 -25 -66 -57 -92 -72 -27 -14 -61 -42 -75 -60 -14 -19 -56 -54 -93 -77 -37
-24 -74 -55 -84 -69 -9 -14 -40 -39 -69 -55 -29 -17 -71 -47 -93 -67 -53 -48
-147 -120 -176 -135 -13 -7 -45 -34 -71 -61 -25 -26 -64 -57 -87 -68 -22 -12
-56 -41 -77 -65 -20 -24 -55 -54 -78 -66 -61 -34 -89 -57 -107 -88 -8 -15 -32
-35 -52 -45 -21 -9 -68 -49 -105 -87 -37 -39 -72 -70 -78 -70 -6 0 -44 -33
-85 -72 -41 -40 -92 -86 -114 -103 -21 -16 -63 -52 -91 -80 -139 -134 -274
-255 -286 -255 -3 0 -22 -22 -42 -50 -20 -27 -43 -50 -51 -50 -8 0 -15 -3 -15
-7 0 -5 -13 -15 -29 -25 -16 -9 -44 -36 -61 -60 -17 -23 -48 -53 -68 -65 -20
-13 -64 -50 -97 -83 -184 -183 -222 -218 -243 -225 -12 -3 -45 -34 -73 -68
-28 -34 -64 -67 -79 -74 -15 -7 -52 -39 -81 -71 -30 -33 -73 -71 -96 -85 -23
-14 -59 -47 -80 -72 -21 -26 -61 -62 -90 -81 -28 -19 -72 -59 -98 -89 -25 -30
-62 -62 -82 -71 -19 -10 -53 -40 -74 -68 -22 -28 -59 -65 -82 -82 -23 -17 -60
-54 -82 -83 -22 -28 -53 -60 -70 -71 -16 -10 -52 -48 -79 -84 -28 -37 -55 -66
-62 -66 -7 0 -38 -31 -69 -70 -30 -38 -64 -74 -74 -80 -11 -5 -42 -38 -71 -72
-29 -35 -73 -80 -99 -102 -25 -21 -48 -44 -51 -52 -3 -7 -36 -45 -75 -84 -109
-112 -178 -184 -335 -349 -168 -177 -394 -414 -495 -518 -38 -40 -137 -143
-220 -229 -82 -86 -177 -184 -210 -218 -33 -34 -71 -77 -83 -97 -12 -20 -43
-53 -67 -74 -25 -20 -54 -54 -65 -74 -17 -33 -74 -94 -111 -117 -8 -5 -21 -25
-30 -44 -22 -48 -67 -100 -95 -111 -14 -5 -33 -28 -45 -54 -12 -25 -48 -74
-79 -108 -32 -34 -79 -90 -105 -125 -25 -35 -62 -77 -81 -94 -19 -17 -42 -45
-51 -62 -9 -16 -45 -60 -82 -96 -36 -37 -76 -84 -89 -106 -13 -21 -43 -54 -67
-72 -25 -19 -53 -53 -65 -78 -12 -24 -46 -65 -76 -91 -31 -25 -62 -62 -69 -80
-8 -19 -46 -66 -85 -104 -38 -39 -70 -77 -70 -85 0 -8 -34 -50 -75 -93 -41
-43 -75 -83 -75 -90 0 -6 -34 -45 -75 -86 -41 -42 -75 -82 -75 -90 0 -9 -36
-50 -80 -92 -44 -43 -80 -85 -80 -95 0 -10 -31 -49 -69 -86 -41 -40 -73 -80
-77 -97 -10 -42 -31 -72 -92 -133 -31 -32 -55 -65 -59 -84 -4 -19 -30 -54 -70
-95 -35 -35 -73 -84 -84 -109 -10 -25 -43 -71 -72 -102 -60 -64 -81 -95 -90
-133 -4 -15 -34 -53 -66 -84 -34 -33 -67 -76 -76 -99 -9 -23 -40 -64 -69 -92
-29 -28 -65 -75 -79 -105 -15 -30 -50 -79 -78 -109 -50 -53 -89 -116 -89 -142
0 -7 -25 -34 -54 -60 -32 -29 -65 -69 -80 -100 -14 -29 -48 -74 -75 -100 -27
-27 -62 -74 -78 -105 -15 -32 -51 -83 -80 -115 -52 -57 -83 -105 -83 -131 0
-7 -24 -34 -53 -59 -29 -25 -61 -64 -71 -87 -11 -22 -23 -41 -28 -41 -4 0 -8
-6 -8 -13 0 -7 -20 -33 -45 -57 -25 -24 -45 -48 -45 -52 0 -4 -11 -24 -25 -44
-14 -20 -30 -54 -35 -75 -7 -25 -23 -48 -47 -66 -25 -19 -48 -53 -74 -109 -22
-44 -48 -89 -60 -100 -31 -28 -84 -111 -110 -174 -12 -30 -39 -71 -60 -90 -20
-19 -54 -71 -75 -115 -21 -44 -49 -94 -63 -111 -14 -17 -34 -41 -44 -53 -10
-13 -33 -56 -52 -96 -19 -43 -44 -80 -59 -90 -14 -10 -40 -46 -57 -81 -18 -36
-36 -67 -40 -69 -4 -3 -10 -18 -14 -33 -3 -15 -26 -49 -51 -76 -25 -26 -57
-76 -73 -111 -16 -34 -45 -80 -64 -102 -20 -22 -59 -85 -87 -141 -29 -58 -63
-111 -80 -124 -16 -13 -43 -52 -60 -88 -37 -79 -47 -95 -85 -140 -17 -19 -48
-70 -70 -113 -22 -43 -44 -87 -50 -97 -5 -10 -19 -23 -30 -28 -12 -6 -41 -50
-69 -105 -26 -52 -67 -122 -90 -154 -23 -32 -54 -91 -70 -130 -15 -40 -32 -73
-37 -73 -5 0 -9 -6 -9 -13 0 -8 -9 -22 -19 -31 -20 -18 -70 -115 -92 -179 -7
-20 -32 -61 -56 -89 -24 -29 -43 -56 -43 -61 0 -7 -23 -61 -67 -155 -14 -29
-40 -69 -59 -89 -19 -19 -34 -40 -34 -45 0 -5 -12 -40 -26 -76 -26 -65 -61
-123 -102 -170 -12 -13 -29 -47 -38 -75 -18 -57 -66 -150 -93 -182 -29 -34
-50 -72 -72 -130 -11 -31 -43 -88 -70 -127 -27 -39 -58 -96 -69 -125 -25 -68
-45 -107 -64 -126 -21 -21 -82 -134 -101 -186 -8 -25 -34 -69 -56 -99 -22 -29
-60 -99 -84 -154 -54 -123 -66 -138 -117 -138 l-38 0 0 -134 0 -135 42 -3 c36
-3 46 -8 68 -42 15 -21 35 -64 46 -95 10 -31 43 -92 73 -135 29 -44 66 -111
82 -149 15 -38 47 -96 70 -129 23 -33 57 -96 76 -140 30 -73 55 -117 90 -158
8 -8 33 -60 58 -114 24 -55 53 -109 64 -120 26 -29 76 -123 91 -171 7 -22 37
-75 67 -117 30 -43 66 -110 81 -150 14 -40 35 -82 45 -93 34 -36 70 -98 109
-190 21 -49 49 -101 62 -115 28 -30 42 -56 99 -181 25 -53 51 -101 59 -105 15
-9 78 -132 78 -153 0 -6 28 -52 63 -103 35 -51 73 -118 86 -148 13 -30 38 -69
55 -86 38 -39 45 -49 97 -149 23 -44 56 -96 74 -117 19 -20 47 -66 64 -102 16
-36 48 -85 69 -108 22 -24 63 -89 91 -145 28 -57 61 -109 72 -115 12 -7 36
-42 53 -78 34 -71 85 -148 110 -169 9 -8 38 -59 66 -115 31 -65 57 -105 71
-111 25 -11 26 -13 69 -105 16 -36 48 -87 70 -115 22 -27 56 -84 76 -125 20
-41 55 -95 78 -120 23 -25 51 -65 61 -90 29 -67 75 -141 110 -176 18 -18 42
-58 56 -90 14 -35 45 -82 76 -116 29 -32 53 -64 53 -73 0 -27 71 -144 108
-177 21 -19 51 -60 67 -92 17 -32 46 -70 65 -85 47 -35 67 -61 74 -93 3 -15
32 -58 65 -96 33 -39 72 -92 87 -119 44 -80 72 -117 109 -142 19 -13 35 -30
35 -39 0 -28 48 -97 99 -140 28 -24 51 -51 51 -61 0 -22 49 -96 104 -158 24
-27 58 -76 76 -111 22 -42 48 -74 77 -94 32 -23 46 -42 54 -71 7 -28 30 -59
74 -103 36 -34 67 -75 71 -91 9 -35 32 -68 105 -150 31 -36 59 -77 62 -93 6
-26 36 -62 105 -123 17 -16 36 -45 42 -66 6 -24 27 -55 56 -82 46 -44 94 -110
94 -128 0 -19 60 -99 93 -124 19 -14 44 -46 55 -70 12 -26 47 -67 86 -101 40
-36 69 -70 76 -91 7 -22 31 -50 63 -75 29 -23 62 -60 74 -83 13 -23 49 -66 81
-97 32 -30 65 -71 74 -90 9 -19 40 -57 69 -85 28 -27 67 -75 87 -105 20 -30
64 -83 99 -117 35 -34 63 -70 63 -78 0 -9 11 -26 24 -38 93 -87 117 -114 122
-133 3 -13 33 -46 65 -74 33 -29 68 -69 79 -89 10 -21 40 -56 65 -79 26 -23
64 -68 85 -101 21 -32 48 -65 60 -74 25 -17 110 -127 110 -141 0 -5 28 -37 63
-70 35 -34 70 -77 79 -96 9 -19 37 -52 62 -73 25 -21 64 -65 86 -97 22 -33 49
-64 60 -70 10 -5 40 -38 67 -73 26 -34 72 -87 103 -117 60 -60 245 -253 520
-541 200 -209 201 -210 450 -469 102 -106 188 -198 192 -205 5 -7 39 -43 78
-81 38 -37 70 -73 70 -80 0 -8 13 -20 29 -29 16 -8 54 -43 83 -77 29 -35 76
-85 105 -111 28 -26 61 -63 74 -81 12 -18 36 -42 54 -54 17 -12 51 -48 75 -79
24 -32 57 -67 74 -78 16 -11 48 -44 71 -72 22 -29 59 -66 81 -82 23 -16 56
-50 74 -74 17 -25 54 -59 81 -76 26 -18 69 -56 95 -86 25 -30 52 -55 59 -55 8
0 46 -33 87 -73 40 -40 97 -90 126 -112 29 -22 60 -50 68 -63 8 -12 42 -43 76
-67 33 -25 75 -63 92 -85 18 -22 54 -55 81 -74 28 -18 69 -55 91 -82 23 -27
57 -58 75 -68 19 -10 54 -43 78 -73 24 -30 57 -61 72 -69 34 -17 65 -47 103
-97 15 -21 39 -42 52 -47 32 -12 81 -57 105 -97 11 -17 37 -42 57 -54 20 -12
66 -51 102 -86 152 -150 232 -223 242 -223 6 0 41 -30 77 -68 37 -37 86 -80
110 -97 24 -16 62 -50 85 -77 22 -26 69 -65 104 -87 34 -23 66 -51 71 -63 11
-27 56 -62 92 -71 15 -4 37 -19 50 -34 70 -79 108 -113 127 -113 13 0 39 -21
69 -55 26 -31 75 -71 108 -90 33 -19 91 -64 129 -100 38 -36 78 -65 88 -65 10
0 50 -31 88 -69 40 -40 84 -74 104 -81 23 -7 47 -28 71 -60 25 -34 53 -57 90
-75 31 -16 69 -45 89 -70 19 -23 66 -61 103 -84 37 -23 95 -67 128 -98 33 -31
76 -62 95 -70 19 -8 63 -43 96 -78 36 -37 74 -67 90 -71 33 -8 64 -31 64 -49
0 -16 48 -59 89 -80 18 -9 62 -43 97 -76 35 -32 67 -59 72 -59 4 0 17 -8 28
-19 11 -10 32 -25 46 -32 15 -8 50 -36 80 -64 62 -58 101 -85 122 -85 8 0 34
-22 57 -49 27 -32 63 -59 102 -77 34 -16 78 -47 98 -69 21 -22 75 -59 122 -84
47 -24 103 -61 124 -83 21 -22 71 -55 110 -74 41 -19 73 -41 73 -49 0 -18 54
-59 107 -80 24 -10 43 -21 43 -25 0 -4 12 -12 28 -18 15 -5 52 -31 82 -57 30
-26 82 -60 115 -76 39 -18 67 -40 78 -59 12 -19 44 -44 85 -65 87 -45 100 -54
144 -92 20 -17 47 -37 60 -44 12 -6 25 -15 28 -18 3 -3 27 -17 53 -30 26 -13
61 -39 77 -58 17 -19 60 -49 96 -68 36 -19 83 -50 104 -69 21 -19 78 -57 126
-86 49 -28 107 -69 129 -90 22 -21 61 -48 86 -60 26 -12 62 -36 80 -55 33 -32
78 -61 167 -107 24 -12 66 -42 94 -66 28 -24 80 -56 116 -73 36 -16 88 -47
116 -68 28 -22 90 -58 138 -81 48 -22 105 -58 127 -78 22 -20 69 -48 103 -61
35 -13 103 -53 152 -88 48 -34 92 -63 98 -63 16 0 118 -53 118 -62 0 -4 5 -8
11 -8 6 0 25 -12 42 -26 18 -15 65 -42 105 -60 41 -19 95 -51 120 -73 26 -21
76 -51 111 -66 73 -30 94 -43 171 -101 30 -22 80 -51 111 -63 31 -12 80 -40
110 -63 30 -22 88 -58 130 -79 80 -40 137 -75 163 -101 8 -8 45 -28 83 -44 37
-15 97 -50 132 -77 36 -27 103 -67 150 -88 47 -22 88 -44 91 -49 11 -18 125
-80 184 -100 33 -11 73 -28 87 -38 15 -9 45 -29 68 -45 23 -15 88 -46 145 -67
57 -22 112 -50 122 -61 21 -23 82 -53 200 -98 44 -17 91 -41 104 -53 32 -31
57 -43 176 -89 56 -22 113 -51 126 -64 24 -24 122 -75 145 -75 21 0 138 -58
161 -79 23 -23 118 -71 139 -71 22 0 139 -59 166 -84 14 -13 57 -36 94 -51
106 -41 179 -76 205 -99 26 -24 55 -38 153 -73 39 -14 100 -45 136 -69 36 -24
111 -62 167 -83 56 -21 118 -51 138 -67 20 -16 41 -32 48 -36 9 -5 133 -42
248 -74 9 -3 39 -23 65 -45 26 -21 54 -39 62 -39 15 0 122 -31 198 -57 23 -8
68 -32 99 -53 37 -25 86 -46 138 -60 120 -32 193 -62 228 -94 23 -20 64 -37
147 -61 145 -41 166 -50 194 -76 27 -25 72 -50 112 -60 164 -42 195 -54 270
-105 32 -22 85 -44 145 -60 112 -30 184 -61 223 -98 15 -14 40 -28 55 -31 108
-22 240 -70 286 -104 58 -43 87 -55 171 -71 86 -17 174 -47 220 -75 70 -43
104 -55 193 -70 113 -20 207 -49 257 -80 69 -43 103 -55 193 -70 127 -22 209
-49 282 -94 38 -24 82 -43 110 -47 147 -20 264 -57 350 -109 57 -35 92 -45
220 -65 88 -15 154 -39 231 -86 31 -18 78 -38 105 -43 27 -6 87 -17 134 -26
47 -10 110 -30 140 -45 30 -15 78 -40 105 -54 28 -14 83 -30 125 -36 109 -15
211 -45 292 -86 73 -37 214 -73 284 -74 74 0 193 -31 293 -75 104 -46 218 -75
298 -75 62 0 196 -34 253 -64 77 -40 205 -75 315 -86 121 -11 195 -30 282 -71
90 -44 184 -68 305 -79 118 -11 214 -37 298 -81 68 -35 192 -65 330 -79 75 -7
138 -22 223 -51 152 -51 266 -75 430 -88 202 -17 314 -37 430 -76 124 -41 288
-71 437 -80 156 -9 232 -23 365 -65 160 -52 297 -75 575 -99 61 -6 141 -21
190 -36 146 -45 223 -65 290 -76 99 -16 366 -39 451 -39 82 0 250 -21 363 -46
218 -47 458 -74 841 -94 259 -13 392 -26 515 -51 173 -35 244 -48 335 -58 205
-24 550 -46 870 -56 256 -8 717 -32 950 -50 105 -8 242 -17 305 -20 63 -3 149
-8 190 -10 120 -8 557 -24 930 -35 379 -11 915 -11 1310 1 334 10 822 29 885
34 28 2 106 7 175 10 69 3 211 12 315 20 231 17 332 23 495 30 69 3 148 8 175
10 28 2 149 7 270 10 264 7 639 30 826 51 138 15 215 27 389 63 123 25 256 38
515 51 369 19 628 48 841 94 114 25 281 46 364 46 100 0 372 26 480 46 47 8
141 33 210 55 95 30 153 42 240 50 280 24 433 50 577 100 97 34 216 54 403 69
152 12 292 38 395 74 117 42 190 56 330 66 233 17 364 41 515 95 103 36 167
50 274 60 101 9 228 41 294 74 87 44 183 70 300 81 119 11 221 37 291 74 73
38 180 65 296 76 103 10 287 59 300 80 13 20 174 62 276 71 116 10 209 35 303
80 70 34 206 69 270 69 77 0 198 31 286 72 96 45 192 74 296 88 73 9 122 28
213 80 50 29 140 54 284 79 34 6 82 24 115 45 78 47 143 71 232 86 126 20 157
29 212 61 99 59 175 84 331 109 45 7 89 24 144 55 80 45 183 78 300 95 63 9
72 12 174 69 60 33 172 66 277 81 35 5 80 18 100 29 122 69 183 91 334 121 42
8 74 24 115 55 42 31 86 52 158 74 54 17 109 31 121 31 12 0 39 14 60 31 53
43 122 74 234 103 60 16 113 38 145 60 81 54 94 60 270 105 41 11 75 29 105
56 30 28 74 45 200 80 55 16 113 39 137 56 50 35 133 73 183 84 83 18 154 47
205 83 30 22 76 45 102 52 136 36 218 65 242 88 36 34 60 44 191 82 74 22 131
45 160 66 51 36 111 65 188 89 29 9 75 32 103 51 70 46 135 80 196 99 29 9 85
38 125 63 84 55 104 65 176 87 29 9 74 32 100 51 62 45 132 80 197 99 29 8 75
31 101 50 51 36 166 95 187 95 22 1 99 40 131 67 33 28 100 60 192 92 30 11
76 36 103 55 49 36 104 63 199 96 29 10 74 35 101 54 48 36 104 63 196 95 28
10 79 38 115 62 36 25 88 53 115 62 93 34 130 52 175 86 24 19 81 51 125 72
70 32 169 96 185 120 3 4 33 18 66 32 34 14 91 45 127 70 36 25 98 62 139 83
40 20 96 53 123 74 28 21 84 54 126 73 41 19 102 55 135 80 32 25 88 58 124
73 36 15 92 48 125 72 32 25 91 60 130 78 38 18 97 53 130 78 32 25 80 53 105
62 53 20 109 54 166 100 23 18 72 45 110 60 38 15 71 31 74 34 18 24 116 87
187 120 45 22 94 50 107 63 13 13 66 45 117 71 51 26 112 64 135 85 24 21 84
59 133 86 51 26 93 56 96 66 4 11 12 19 19 19 8 0 19 6 25 14 7 8 32 24 56 35
24 11 66 40 93 64 26 24 86 65 133 92 46 26 96 61 111 77 15 16 57 45 95 64
37 20 86 53 108 74 22 21 76 59 120 85 43 26 95 61 115 79 19 17 69 49 110 70
45 23 86 53 100 72 14 18 52 47 85 63 33 17 86 52 118 79 32 28 96 69 141 92
55 27 88 51 100 71 11 19 40 40 80 59 35 16 88 52 119 80 30 27 62 50 70 50 9
0 19 5 22 10 4 6 33 24 65 40 32 16 71 45 85 64 16 21 51 46 89 64 39 19 81
49 111 81 26 28 55 51 65 51 9 0 48 27 86 60 38 33 106 85 152 116 45 31 93
69 105 86 12 16 50 46 85 65 40 22 72 49 86 72 28 44 43 56 78 65 15 3 54 34
85 67 32 34 73 68 91 75 34 15 56 32 131 100 26 23 71 56 101 74 70 42 89 58
110 93 10 17 45 42 81 60 35 18 68 42 75 54 18 38 47 65 89 83 22 10 70 48
107 84 37 36 75 66 85 66 10 0 52 31 93 69 41 37 101 83 134 101 37 21 71 51
93 81 25 35 45 51 70 58 38 11 103 66 103 88 0 15 68 63 90 63 19 1 50 27 73
63 10 15 43 44 74 65 32 20 73 55 93 76 19 22 69 66 110 99 41 33 88 75 103
93 16 19 54 52 85 74 32 21 75 61 97 88 22 27 52 54 66 59 14 6 48 37 75 70
28 34 65 68 87 77 20 10 50 36 66 59 36 53 69 83 103 96 15 5 45 35 68 65 23
32 57 65 80 76 21 11 55 41 75 67 20 27 59 64 88 83 28 19 63 52 77 72 14 21
51 54 82 73 31 20 66 51 78 70 12 19 49 54 84 79 35 25 70 55 78 68 9 13 40
43 70 66 30 23 89 75 132 117 43 41 82 75 87 75 5 0 45 36 89 80 44 44 87 80
94 80 8 0 30 21 49 47 38 52 91 103 106 103 6 0 22 17 37 38 15 20 57 67 93
103 36 36 136 139 221 230 85 90 175 184 200 209 25 25 83 86 130 135 46 50
168 178 271 285 103 107 200 209 215 225 44 48 413 433 489 510 134 135 353
370 394 423 23 28 45 52 50 52 4 0 29 29 56 65 26 36 62 78 79 93 18 15 54 58
80 96 27 37 61 77 76 88 15 11 46 48 68 81 23 34 65 87 93 117 29 30 64 73 78
95 15 22 50 64 79 94 29 30 59 66 67 81 8 16 37 48 63 71 27 24 61 62 75 84
27 43 51 71 88 101 13 11 42 45 63 77 22 32 59 74 83 94 24 19 43 40 43 45 0
13 72 108 105 138 15 14 51 59 81 101 29 42 65 84 79 93 15 10 44 45 65 78 22
33 58 75 80 92 23 17 51 51 63 75 12 24 46 64 75 89 29 25 62 63 73 84 11 22
47 65 79 98 33 32 60 63 60 68 0 21 74 133 107 162 18 17 49 61 68 98 24 45
48 76 76 96 27 19 48 45 63 80 13 28 48 79 78 112 31 34 68 88 84 120 17 34
53 83 87 115 31 30 57 61 57 68 0 27 41 87 74 110 37 24 76 77 76 102 0 8 29
48 65 89 35 41 79 103 95 137 20 40 48 77 76 101 31 25 55 57 74 100 16 34 33
62 38 62 20 0 86 77 107 124 13 28 53 85 89 128 36 42 66 83 66 90 0 24 51 95
82 113 32 19 68 70 68 97 0 10 25 41 56 70 43 41 67 74 99 143 25 53 58 104
80 125 40 38 75 98 75 129 0 11 18 36 40 57 42 40 110 145 110 170 0 26 20 57
75 115 38 39 58 71 68 107 9 28 30 67 48 87 49 54 107 145 115 180 8 37 50 95
69 95 13 0 85 133 85 157 0 6 17 30 38 54 66 78 90 115 108 168 11 36 27 60
51 78 32 24 113 164 113 194 0 6 24 37 53 69 33 36 63 80 77 116 13 33 40 77
61 99 36 37 108 166 109 192 0 6 22 33 48 60 43 43 102 145 102 177 0 7 11 23
25 36 39 36 80 107 115 195 17 44 42 89 56 100 22 18 114 204 114 231 0 5 16
25 35 44 24 23 50 69 81 145 31 75 59 125 84 151 20 22 43 57 50 79 22 68 69
158 110 209 21 27 42 61 45 75 13 52 59 147 86 176 25 27 95 165 113 221 4 12
21 37 39 56 18 19 51 80 76 139 24 57 58 120 75 139 17 19 39 55 50 80 42 100
68 150 103 195 20 27 48 78 63 114 14 36 36 85 48 109 20 37 26 42 57 42 l35
0 0 135 0 135 -35 0 c-32 0 -37 4 -63 58 -16 31 -39 83 -52 115 -13 32 -37 75
-54 96 -32 39 -42 57 -100 183 -19 43 -45 88 -58 101 -13 13 -33 45 -45 73
-12 27 -33 74 -46 104 -13 31 -37 71 -54 90 -30 36 -53 80 -78 149 -16 47 -55
109 -84 135 -11 11 -21 26 -21 35 0 9 -7 25 -15 35 -8 10 -24 47 -35 82 -13
37 -36 79 -56 101 -36 40 -84 133 -106 204 -7 24 -28 58 -49 78 -21 20 -47 60
-59 91 -51 133 -74 178 -109 210 -15 14 -35 48 -45 75 -27 74 -75 166 -106
201 -15 18 -40 65 -56 105 -15 41 -46 98 -69 128 -50 66 -57 78 -101 174 -25
55 -44 82 -64 92 -15 8 -34 29 -42 47 -30 74 -82 165 -115 201 -19 21 -50 72
-69 114 -24 53 -48 87 -79 115 -25 22 -45 48 -45 57 0 32 -71 155 -116 201
-24 25 -44 51 -44 57 0 29 -42 104 -83 149 -25 27 -50 58 -55 69 -6 11 -24 51
-41 88 -20 44 -47 83 -76 109 -25 23 -45 48 -45 57 -1 21 -33 93 -53 117 -80
97 -98 124 -117 176 -16 43 -37 75 -75 113 -30 29 -57 66 -60 82 -10 44 -27
83 -36 83 -4 0 -11 9 -14 20 -4 11 -29 46 -56 77 -27 31 -49 62 -49 70 0 27
-51 113 -76 130 -30 19 -74 84 -74 110 -1 27 -41 88 -102 151 -30 31 -58 71
-62 87 -5 18 -34 55 -71 91 -36 35 -67 74 -71 90 -10 39 -23 59 -89 127 -30
33 -58 71 -61 85 -8 35 -48 88 -95 130 -21 18 -49 57 -63 86 -15 31 -46 71
-72 95 -45 39 -84 97 -84 124 0 7 -27 42 -60 78 -33 35 -71 88 -85 116 -14 29
-53 80 -85 113 -37 36 -63 71 -66 89 -4 19 -26 49 -56 77 -49 46 -108 130
-108 154 0 7 -26 40 -57 74 -32 34 -69 84 -82 111 -13 28 -48 73 -77 101 -30
29 -65 76 -80 108 -15 33 -43 70 -65 88 -23 18 -52 59 -76 105 -23 47 -52 88
-76 106 -21 17 -52 54 -68 81 -17 28 -59 78 -93 111 -34 34 -69 76 -78 96 -9
19 -30 44 -47 57 -17 12 -50 48 -73 80 -23 31 -72 89 -109 129 -36 40 -74 88
-83 106 -8 19 -32 47 -52 62 -20 15 -56 57 -79 94 -24 36 -59 78 -78 93 -20
15 -51 53 -71 85 -20 32 -51 69 -70 83 -19 14 -53 53 -76 88 -24 34 -51 67
-61 73 -11 5 -51 50 -89 99 -39 48 -74 90 -78 92 -4 2 -37 41 -73 88 -37 47
-79 99 -96 115 -40 41 -81 98 -93 129 -5 14 -16 26 -23 26 -17 0 -57 43 -92
99 -15 25 -50 65 -77 90 -27 24 -56 58 -65 74 -8 16 -44 58 -79 92 -35 35 -64
68 -64 73 0 5 -30 40 -67 79 -56 57 -216 227 -241 256 -4 4 -32 31 -62 61 -63
60 -197 201 -221 231 -9 11 -31 34 -50 52 -38 34 -139 140 -359 373 -80 84
-176 185 -215 225 -38 39 -133 138 -210 219 -77 82 -172 180 -210 220 -39 39
-83 88 -99 109 -16 20 -34 37 -41 37 -7 0 -21 12 -31 28 -17 26 -133 149 -224
238 -68 66 -97 95 -147 147 -25 26 -51 47 -58 47 -7 0 -37 27 -66 60 -30 33
-77 76 -106 96 -29 19 -71 57 -94 84 -23 28 -60 61 -83 74 -23 13 -63 50 -90
81 -27 31 -62 62 -78 67 -16 6 -47 35 -71 66 -28 38 -58 64 -89 80 -27 12 -54
34 -62 50 -18 34 -84 98 -112 109 -11 4 -41 32 -65 62 -24 30 -63 66 -86 80
-24 14 -56 45 -73 68 -16 23 -54 57 -83 76 -30 19 -64 50 -76 70 -11 19 -40
47 -63 62 -24 16 -71 56 -104 89 -89 89 -195 187 -240 221 -21 17 -57 48 -80
70 -103 99 -121 115 -130 115 -5 0 -41 32 -79 71 -39 40 -84 78 -102 85 -17 7
-40 26 -52 41 -36 48 -60 68 -116 97 -30 15 -55 33 -55 40 0 18 -59 71 -106
95 -23 11 -56 39 -74 61 -18 22 -49 49 -69 60 -39 20 -60 36 -160 121 -36 31
-87 68 -113 83 -26 15 -60 42 -77 61 -16 18 -59 52 -96 76 -37 23 -70 52 -75
65 -5 12 -39 40 -77 63 -37 22 -80 55 -95 74 -15 19 -48 47 -73 62 -26 15 -55
34 -65 44 -9 9 -46 38 -81 66 -35 27 -66 52 -69 56 -3 3 -31 22 -62 42 -31 20
-66 49 -78 65 -12 17 -43 42 -69 56 -58 33 -72 44 -94 78 -9 15 -36 37 -59 49
-23 12 -67 45 -98 73 -30 29 -73 63 -95 77 -22 15 -51 36 -65 47 -76 64 -152
123 -203 156 -31 21 -65 48 -75 61 -10 12 -42 35 -71 50 -30 15 -74 46 -100
70 -25 23 -70 54 -98 69 -29 14 -91 55 -137 91 -47 35 -100 71 -119 78 -18 8
-55 36 -83 62 -27 26 -69 56 -94 67 -42 18 -73 39 -168 111 -20 16 -64 45 -97
64 -33 19 -74 50 -92 69 -18 18 -59 47 -91 63 -32 16 -78 46 -101 66 -24 19
-76 55 -115 78 -39 22 -96 63 -127 89 -30 26 -83 62 -117 79 -34 16 -70 40
-79 53 -10 12 -58 46 -108 76 -49 29 -112 73 -140 97 -27 24 -73 55 -102 69
-28 15 -71 44 -94 66 -23 22 -72 54 -109 73 -37 18 -90 53 -118 78 -29 24 -89
62 -134 84 -46 22 -94 52 -108 65 -14 14 -73 48 -131 77 -58 28 -119 65 -134
81 -16 17 -35 30 -42 30 -7 0 -13 3 -13 8 0 4 -33 20 -74 35 -44 17 -88 43
-110 64 -31 31 -180 113 -205 113 -4 0 -28 17 -52 38 -24 22 -84 58 -134 81
-49 24 -106 58 -125 76 -19 18 -75 50 -124 71 -50 22 -109 56 -135 79 -25 23
-86 59 -135 80 -50 22 -104 54 -120 71 -17 17 -69 48 -116 70 -47 21 -107 57
-135 80 -27 22 -86 55 -129 73 -49 20 -96 49 -123 74 -29 28 -76 55 -136 80
-59 25 -106 52 -132 77 -29 28 -62 46 -120 65 -104 35 -144 56 -190 100 -21
19 -45 35 -54 35 -42 1 -202 70 -234 102 -36 36 -69 54 -110 62 -55 10 -163
61 -193 91 -37 37 -64 52 -109 60 -53 9 -181 72 -203 100 -22 27 -47 41 -95
49 -57 11 -158 59 -196 95 -42 39 -55 46 -106 56 -59 10 -144 51 -195 94 -56
47 -75 57 -126 65 -48 7 -119 44 -187 97 -30 24 -67 42 -100 49 -68 14 -132
45 -187 90 -56 46 -75 56 -125 63 -52 8 -118 40 -180 87 -48 36 -97 55 -215
80 -54 12 -115 42 -135 66 -16 20 -86 52 -137 64 -27 5 -69 15 -95 20 -27 6
-73 28 -103 49 -82 57 -136 81 -193 88 -64 7 -143 41 -207 88 -48 35 -124 65
-168 65 -40 0 -135 39 -166 68 -40 37 -147 82 -211 89 -52 6 -109 30 -160 68
-52 39 -109 63 -189 79 -85 18 -136 40 -185 82 -31 26 -162 74 -201 74 -33 0
-103 32 -143 66 -46 38 -123 67 -236 88 -52 10 -106 28 -140 47 -31 17 -68 38
-82 45 -31 16 -158 49 -247 63 -36 6 -87 23 -120 42 -31 17 -69 38 -83 45 -31
16 -158 49 -248 63 -44 7 -88 24 -143 55 -77 44 -246 96 -311 96 -30 0 -93 26
-164 68 -56 33 -109 49 -269 82 -71 15 -116 31 -168 61 -51 30 -103 48 -194
70 -68 16 -132 29 -142 29 -11 0 -36 10 -57 21 -95 55 -156 78 -263 103 -63
14 -125 26 -136 26 -12 0 -64 20 -115 44 -94 45 -106 48 -414 103 -49 9 -115
27 -145 41 -96 43 -162 62 -282 82 -185 30 -270 50 -303 69 -50 31 -155 61
-306 87 -79 14 -166 30 -192 34 -27 5 -64 18 -83 29 -54 32 -147 59 -278 81
-208 35 -266 50 -327 80 -63 32 -140 51 -384 95 -82 15 -180 38 -216 51 -88
32 -232 60 -407 79 -79 9 -169 21 -200 26 -31 6 -82 14 -112 19 -30 5 -77 18
-105 28 -72 28 -227 58 -395 77 -187 20 -349 49 -425 75 -85 29 -226 56 -400
75 -82 9 -184 23 -225 32 -41 8 -95 19 -120 23 -25 5 -65 16 -90 25 -98 35
-233 56 -520 80 -243 20 -438 43 -525 60 -179 37 -361 58 -705 80 -129 9 -273
20 -320 25 -224 23 -290 32 -355 45 -274 57 -960 110 -1690 131 -110 3 -290
12 -400 20 -239 17 -695 40 -1080 54 -273 11 -1305 20 -1475 14z m-6449 -9164
c173 -14 348 -36 474 -61 55 -11 147 -24 205 -29 58 -5 209 -18 335 -29 259
-23 336 -39 414 -82 59 -34 101 -46 295 -90 85 -19 147 -39 184 -60 62 -35
103 -47 277 -84 77 -17 148 -40 200 -64 44 -22 118 -51 165 -66 110 -36 157
-60 200 -100 21 -20 65 -44 110 -60 88 -31 145 -63 179 -99 14 -14 29 -26 36
-26 29 0 182 -75 220 -108 27 -23 79 -51 144 -76 73 -28 113 -50 144 -80 29
-27 61 -46 93 -54 54 -15 104 -48 147 -99 15 -18 45 -40 65 -50 20 -10 64 -43
97 -75 33 -32 90 -77 128 -101 37 -24 79 -60 93 -80 13 -20 29 -37 34 -37 23
0 100 -59 134 -103 22 -28 54 -54 75 -63 21 -8 63 -43 96 -79 32 -36 65 -65
72 -65 11 0 113 -89 211 -182 38 -37 171 -192 195 -228 16 -23 37 -45 48 -47
10 -3 39 -37 64 -77 24 -39 60 -81 78 -93 19 -12 48 -46 65 -76 17 -30 52 -72
77 -93 25 -20 52 -51 59 -68 14 -32 33 -56 120 -155 27 -31 62 -76 78 -101 15
-25 48 -63 72 -85 30 -28 50 -59 66 -102 12 -35 41 -84 66 -113 24 -29 47 -64
50 -78 4 -15 10 -31 14 -37 4 -5 15 -33 24 -61 10 -30 35 -71 61 -100 25 -27
50 -67 56 -89 6 -22 14 -44 18 -50 4 -5 16 -32 26 -60 10 -28 37 -68 62 -93
23 -24 43 -52 43 -62 0 -42 70 -183 114 -230 25 -27 46 -58 46 -68 0 -29 68
-213 90 -243 32 -45 51 -100 66 -194 22 -136 48 -221 99 -318 25 -48 45 -101
45 -118 0 -74 50 -249 101 -354 l52 -107 13 -156 c30 -346 45 -483 64 -593 11
-62 27 -152 35 -199 32 -180 45 -372 45 -645 0 -273 -13 -465 -45 -645 -8 -47
-24 -137 -35 -199 -19 -110 -34 -247 -64 -593 l-13 -156 -52 -108 c-52 -106
-101 -276 -101 -351 0 -18 -19 -70 -45 -120 -51 -97 -77 -182 -99 -318 -15
-94 -34 -149 -66 -194 -22 -30 -90 -214 -90 -243 0 -10 -21 -41 -46 -68 -44
-47 -114 -188 -114 -230 0 -10 -20 -38 -43 -62 -24 -24 -52 -66 -62 -93 -11
-28 -25 -61 -32 -75 -7 -14 -13 -33 -13 -42 0 -9 -22 -42 -50 -73 -30 -35 -56
-77 -66 -109 -9 -28 -20 -55 -24 -61 -4 -5 -10 -22 -13 -36 -4 -15 -27 -51
-51 -80 -25 -30 -55 -81 -67 -114 -15 -41 -36 -73 -65 -100 -24 -22 -57 -60
-72 -85 -16 -25 -51 -70 -78 -101 -87 -99 -106 -123 -120 -155 -7 -17 -34 -48
-59 -68 -25 -21 -60 -63 -77 -93 -18 -32 -46 -64 -64 -75 -19 -11 -52 -50 -78
-92 -25 -41 -55 -76 -65 -79 -11 -2 -32 -24 -48 -47 -24 -36 -157 -191 -195
-228 -98 -93 -200 -182 -211 -182 -7 0 -40 -29 -72 -65 -33 -36 -75 -71 -96
-79 -22 -9 -52 -35 -75 -65 -25 -31 -59 -60 -92 -77 -30 -15 -64 -42 -77 -62
-21 -31 -113 -102 -132 -102 -5 0 -40 -30 -78 -68 -39 -37 -87 -75 -107 -85
-20 -10 -50 -32 -65 -50 -43 -51 -93 -84 -147 -99 -32 -8 -64 -27 -92 -53 -30
-29 -72 -52 -145 -80 -65 -26 -117 -53 -144 -77 -38 -33 -191 -108 -220 -108
-7 0 -22 -12 -36 -26 -34 -36 -91 -68 -179 -99 -45 -16 -89 -40 -110 -60 -44
-41 -94 -66 -190 -95 -41 -12 -115 -42 -165 -66 -83 -40 -147 -57 -375 -103
-20 -4 -65 -24 -102 -45 -48 -26 -101 -44 -194 -65 -194 -44 -236 -56 -295
-90 -78 -43 -155 -59 -414 -82 -126 -11 -277 -24 -335 -29 -58 -5 -150 -18
-205 -29 -428 -84 -965 -90 -1385 -15 -220 39 -330 52 -705 80 -145 10 -246
33 -330 74 -88 43 -138 58 -295 90 -72 15 -130 35 -185 62 -80 41 -106 49
-295 88 -72 15 -132 35 -190 64 -47 24 -99 45 -117 49 -71 14 -198 71 -237
107 -23 20 -63 45 -91 55 -97 35 -155 65 -192 98 -22 20 -74 47 -124 66 -54
21 -106 49 -139 76 -30 24 -81 54 -114 66 -90 33 -136 58 -182 98 -23 20 -61
41 -85 48 -56 15 -127 63 -159 108 -14 19 -31 35 -38 35 -22 0 -98 57 -130 98
-17 21 -52 49 -79 62 -26 14 -75 52 -108 86 -33 34 -71 65 -84 69 -14 4 -54
37 -90 74 -36 36 -79 73 -96 81 -16 8 -57 43 -90 76 -33 34 -73 69 -90 77 -16
8 -56 42 -88 76 -32 34 -69 67 -82 74 -12 6 -46 41 -74 76 -28 35 -60 70 -71
78 -11 8 -36 38 -54 67 -19 30 -50 66 -70 81 -20 15 -52 54 -72 86 -19 33 -45
64 -57 71 -26 13 -38 27 -78 90 -17 27 -45 60 -63 75 -18 16 -48 50 -66 78
-19 27 -42 59 -51 70 -9 11 -41 49 -70 83 -30 35 -66 82 -82 105 -15 23 -48
62 -72 87 -27 28 -54 68 -66 100 -11 30 -34 71 -51 92 -32 41 -88 150 -107
209 -6 20 -27 54 -46 77 -31 36 -64 98 -120 230 -10 24 -28 51 -40 60 -22 18
-44 60 -95 183 -17 42 -42 87 -56 100 -34 32 -47 58 -95 192 -22 61 -49 125
-60 140 -21 29 -49 123 -74 247 -22 110 -43 177 -74 234 -31 57 -49 116 -86
285 -16 74 -37 138 -61 183 -57 112 -74 197 -99 508 -17 210 -33 328 -65 491
-11 57 -25 165 -30 239 -6 74 -15 185 -20 245 -13 141 -13 359 0 500 5 61 14
171 20 245 5 74 19 182 30 239 32 163 48 281 65 491 25 311 42 396 99 507 25
48 46 113 66 204 37 168 54 222 84 273 27 47 49 117 71 226 25 124 53 218 74
247 11 15 38 79 60 140 48 134 61 160 95 192 14 13 39 58 56 100 51 123 73
165 95 183 12 9 30 36 40 60 51 119 96 206 124 238 17 19 36 51 42 70 19 58
75 167 107 208 17 21 40 62 51 92 12 32 39 72 66 100 24 25 57 64 72 87 16 23
52 70 82 105 29 34 61 72 70 83 9 11 32 43 51 70 18 28 48 62 66 78 18 15 46
48 62 75 30 48 79 102 93 102 4 0 24 27 44 59 20 33 54 74 76 91 21 18 51 52
65 76 14 24 37 53 51 64 14 11 48 48 75 82 28 35 62 70 75 78 14 8 51 41 82
74 31 32 70 65 86 73 17 8 57 43 90 77 33 33 74 68 90 76 17 8 59 44 95 80 36
36 79 72 95 80 17 8 48 35 71 60 23 25 71 62 107 84 37 21 78 53 92 72 28 36
105 94 127 94 7 0 24 16 38 35 32 45 103 93 159 108 24 7 62 28 85 48 45 39
87 62 184 100 35 13 86 43 114 66 31 25 84 54 137 74 50 19 102 46 124 66 38
33 97 64 192 98 28 10 66 33 85 51 39 37 107 69 225 107 44 14 112 41 150 60
43 22 110 43 175 57 153 31 206 47 295 90 50 23 120 46 185 60 157 32 207 47
295 90 95 46 187 64 400 80 83 5 166 13 185 15 19 3 87 10 150 15 63 5 160 18
215 29 303 60 694 84 996 61z m-11235 -3158 c33 -27 43 -52 33 -86 -8 -28 -26
-118 -49 -249 -5 -27 -18 -63 -29 -80 -43 -66 -63 -121 -92 -248 -16 -72 -29
-140 -29 -151 0 -12 -15 -49 -34 -83 -58 -102 -76 -164 -116 -386 -5 -26 -22
-71 -38 -100 -43 -78 -59 -137 -81 -289 -37 -255 -43 -285 -77 -375 -36 -94
-56 -188 -99 -463 -17 -105 -34 -181 -49 -215 -33 -71 -62 -192 -75 -312 -26
-237 -33 -305 -41 -395 -5 -52 -18 -129 -30 -169 -41 -143 -59 -267 -85 -581
-16 -198 -37 -380 -60 -525 -46 -287 -92 -1387 -82 -1915 10 -463 38 -979 73
-1305 8 -77 19 -223 24 -325 5 -102 13 -214 19 -250 6 -36 18 -141 26 -235 21
-226 38 -333 79 -495 33 -130 42 -191 81 -590 17 -172 46 -325 76 -409 11 -31
24 -81 29 -111 53 -328 77 -429 116 -497 14 -23 29 -63 34 -90 4 -26 20 -115
34 -198 29 -166 45 -222 87 -307 16 -32 33 -86 38 -120 43 -281 69 -385 127
-500 13 -26 24 -58 24 -72 0 -13 13 -77 30 -142 23 -91 40 -135 75 -191 25
-41 45 -81 45 -91 0 -54 63 -249 101 -312 30 -50 47 -97 65 -175 30 -128 58
-206 88 -243 36 -43 44 -62 66 -172 24 -116 48 -179 98 -258 21 -34 37 -75 43
-114 15 -90 60 -197 102 -241 20 -21 39 -50 42 -65 8 -39 46 -153 61 -183 7
-14 26 -40 42 -57 31 -33 33 -38 77 -176 21 -63 39 -99 63 -125 39 -41 72
-101 72 -130 0 -34 45 -147 69 -172 42 -44 69 -95 86 -165 20 -81 44 -131 75
-159 27 -24 70 -107 70 -135 0 -41 39 -121 83 -170 30 -34 56 -77 78 -136 26
-66 46 -99 87 -141 39 -41 54 -66 58 -95 5 -25 22 -58 48 -90 69 -85 106 -142
106 -163 0 -34 36 -95 78 -130 21 -18 46 -53 56 -77 47 -112 60 -136 103 -183
47 -51 73 -99 73 -135 0 -12 22 -45 48 -73 51 -54 102 -138 102 -166 0 -29 57
-111 77 -111 12 0 51 -61 64 -100 6 -19 31 -55 54 -80 54 -58 110 -138 118
-171 4 -14 30 -48 59 -74 32 -29 65 -73 83 -109 20 -40 40 -66 58 -74 28 -13
80 -84 93 -126 4 -11 27 -42 53 -69 25 -27 55 -63 66 -80 10 -18 22 -34 26
-37 3 -3 9 -17 12 -31 4 -15 33 -52 66 -84 32 -31 67 -75 77 -98 21 -49 52
-87 70 -87 12 0 94 -128 94 -147 0 -4 9 -14 20 -21 26 -16 130 -157 130 -175
0 -8 29 -39 64 -68 35 -30 72 -70 83 -91 10 -20 42 -55 70 -77 29 -22 63 -60
77 -84 14 -24 46 -58 70 -75 24 -17 58 -54 76 -82 17 -27 49 -62 70 -78 22
-16 59 -55 83 -88 24 -32 55 -65 70 -73 14 -8 38 -32 53 -55 23 -36 70 -85
115 -122 8 -6 32 -36 54 -67 22 -31 50 -62 63 -69 13 -7 37 -31 52 -53 15 -22
54 -67 87 -101 32 -33 82 -88 111 -122 29 -34 90 -94 135 -133 45 -40 114
-101 152 -136 39 -36 103 -94 144 -131 40 -37 105 -97 145 -133 39 -37 112
-104 161 -149 50 -46 122 -113 161 -149 39 -36 108 -100 153 -141 45 -41 112
-103 149 -137 188 -173 221 -202 267 -231 28 -17 66 -45 85 -63 19 -17 71 -55
115 -84 44 -30 92 -66 105 -80 14 -15 50 -43 80 -63 30 -19 80 -56 110 -82 30
-26 76 -59 102 -74 26 -14 73 -49 105 -77 32 -28 78 -61 103 -74 25 -13 61
-40 80 -60 19 -21 60 -53 90 -73 30 -19 77 -55 104 -79 27 -24 79 -62 116 -83
36 -21 88 -59 115 -84 27 -25 72 -56 100 -70 27 -14 66 -40 85 -58 39 -36 49
-42 172 -104 47 -24 93 -52 100 -63 14 -20 120 -81 142 -81 6 -1 36 -21 66
-45 30 -25 97 -65 149 -91 52 -25 105 -59 118 -74 13 -16 70 -51 127 -79 56
-28 125 -68 151 -90 27 -22 74 -50 104 -63 31 -12 72 -37 91 -56 19 -18 86
-58 147 -88 68 -33 125 -68 144 -88 17 -19 40 -36 52 -39 38 -9 165 -55 198
-72 17 -9 41 -27 53 -40 13 -15 64 -39 140 -64 65 -22 120 -42 122 -43 52 -51
92 -74 183 -104 125 -42 136 -48 181 -91 19 -19 46 -36 60 -39 42 -10 168 -52
192 -65 12 -7 36 -25 53 -40 32 -31 32 -30 174 -78 70 -23 105 -41 137 -71 23
-22 55 -42 71 -46 28 -6 64 -17 176 -50 32 -9 90 -37 130 -60 40 -24 81 -44
92 -44 11 0 70 -13 131 -29 81 -22 128 -41 174 -70 66 -43 73 -45 230 -81 93
-22 182 -58 196 -81 11 -18 65 -37 173 -59 111 -22 186 -52 256 -100 29 -20
66 -35 98 -40 114 -17 205 -43 308 -86 126 -53 197 -74 256 -74 81 0 242 -38
341 -81 126 -54 139 -58 257 -70 143 -15 228 -35 326 -80 97 -44 171 -63 309
-78 91 -10 194 -34 345 -81 94 -29 284 -60 368 -60 157 0 491 -48 598 -85 99
-35 365 -75 504 -75 44 0 125 -7 180 -14 55 -8 159 -19 230 -26 72 -6 222 -20
335 -30 113 -11 237 -21 275 -24 39 -3 102 -8 140 -11 421 -31 958 -48 1310
-41 296 5 829 29 935 41 25 2 83 7 130 10 47 3 153 12 235 20 83 8 231 22 330
30 99 9 229 22 288 30 59 8 143 15 185 15 150 0 327 28 552 88 136 36 305 59
525 71 174 10 319 36 454 81 108 35 207 56 336 69 106 11 178 32 260 74 63 33
190 63 320 76 103 11 172 30 263 74 68 33 197 65 293 72 122 10 200 33 340 99
42 20 228 66 266 66 16 0 66 22 113 50 88 52 141 72 244 91 80 15 156 39 156
48 0 18 122 71 210 91 157 35 166 39 229 81 50 33 87 47 209 78 82 21 162 47
178 58 52 37 107 60 209 88 136 37 147 41 183 79 21 23 57 42 119 64 49 18 98
32 109 32 12 0 41 17 65 38 24 22 54 44 66 51 34 17 165 61 186 61 9 0 36 17
60 39 53 49 66 55 190 96 56 19 113 44 127 57 41 39 71 54 185 93 65 22 115
45 123 56 17 25 86 59 192 94 59 20 94 39 115 61 17 18 82 57 145 87 67 32
128 69 146 89 18 19 58 43 92 56 33 13 80 40 104 61 43 38 94 67 199 115 31
14 64 37 73 50 10 15 56 45 114 73 53 25 111 58 128 72 17 14 41 34 53 44 12
10 46 27 75 38 30 11 74 37 97 58 24 21 91 62 149 91 58 29 115 66 128 82 13
15 51 42 84 58 33 17 82 50 108 73 27 24 81 64 121 87 39 24 95 65 123 90 28
25 71 58 96 72 25 14 62 44 83 67 21 23 59 52 85 65 26 14 65 41 87 61 22 20
76 60 121 90 44 29 105 74 135 100 30 26 68 53 84 62 17 8 53 36 80 63 28 26
72 60 100 75 27 16 60 39 73 52 13 13 60 49 105 80 45 31 112 84 148 117 36
34 106 97 154 141 48 44 119 110 159 147 39 36 145 134 236 217 165 151 263
243 385 356 35 33 110 101 166 150 129 113 239 223 354 355 50 56 114 125 143
153 28 27 64 70 80 94 15 23 30 43 34 43 13 0 85 74 112 116 15 23 37 47 49
53 12 7 40 35 62 63 40 51 56 68 115 123 18 17 45 48 60 71 16 22 44 51 63 64
18 13 44 39 58 59 13 20 53 66 89 103 130 133 201 214 240 274 22 33 61 84 85
113 25 29 63 83 85 121 22 37 48 70 59 73 11 3 32 29 48 58 15 30 50 76 77
104 26 27 57 68 68 90 12 22 24 42 27 45 4 3 17 21 28 40 12 19 35 48 52 64
17 17 31 33 31 38 0 4 7 16 16 26 9 9 30 42 47 72 18 30 44 60 59 67 16 8 39
37 58 75 18 35 54 82 81 106 27 24 49 50 49 57 0 16 81 137 129 192 22 24 47
60 56 81 25 55 58 102 72 102 14 0 53 52 53 70 0 26 74 157 110 195 23 24 47
65 60 102 15 42 39 80 71 115 27 29 52 64 56 78 15 56 75 160 107 187 25 20
42 47 56 87 23 69 48 110 104 176 23 26 50 74 61 105 13 39 35 74 71 112 29
30 56 68 59 85 12 51 65 148 106 193 30 32 44 59 56 107 19 75 62 165 93 193
30 27 56 82 62 131 7 54 50 140 93 187 19 22 40 58 46 80 30 115 43 150 71
191 16 25 34 46 39 46 13 0 44 75 52 123 9 56 50 140 89 181 32 33 58 91 58
126 0 34 47 136 78 169 37 38 82 134 82 174 0 41 31 130 64 182 46 73 76 149
82 208 8 76 41 171 74 212 38 48 70 134 81 217 10 78 25 119 79 208 37 61 54
113 91 287 5 23 29 75 53 115 45 73 86 194 86 254 0 34 20 96 75 226 40 98 60
183 75 320 11 104 27 162 63 234 45 91 87 263 87 362 0 55 34 173 65 227 39
69 73 211 95 406 5 42 23 118 40 169 55 169 84 359 110 720 7 100 18 170 45
270 61 229 69 292 120 905 9 105 25 280 35 390 25 256 46 544 62 860 22 426
13 1331 -17 1795 -2 36 -7 112 -10 170 -3 58 -8 128 -10 155 -2 28 -7 86 -10
130 -4 44 -18 139 -31 210 -14 72 -29 198 -34 280 -25 383 -53 600 -96 762
-34 125 -43 184 -54 348 -19 278 -46 434 -94 540 -32 70 -53 161 -66 290 -17
163 -44 282 -88 397 -40 102 -47 137 -77 379 -15 130 -39 216 -76 278 -33 56
-48 105 -64 217 -17 115 -26 140 -90 269 -35 70 -48 108 -55 169 -13 105 -47
229 -74 269 -47 70 -69 137 -80 242 -4 33 -13 84 -20 112 -13 50 -13 55 8 85
17 26 30 34 60 36 58 5 79 -3 131 -50 58 -53 144 -107 168 -108 29 0 59 -19
107 -69 28 -29 64 -53 95 -64 75 -28 126 -56 171 -98 46 -41 94 -69 119 -69 9
0 43 -27 76 -60 32 -33 64 -60 69 -60 28 0 138 -65 188 -111 31 -28 72 -58 92
-67 75 -32 84 -38 102 -68 13 -22 43 -43 103 -72 47 -23 104 -59 127 -80 59
-52 96 -77 140 -91 22 -7 54 -31 77 -58 25 -28 65 -57 108 -77 37 -18 93 -54
123 -80 30 -26 83 -61 116 -77 34 -17 79 -49 100 -71 22 -22 70 -55 107 -73
37 -18 77 -45 88 -59 19 -24 149 -116 164 -116 4 0 37 -28 74 -62 37 -35 84
-72 106 -82 22 -11 56 -38 75 -61 19 -23 60 -55 90 -71 30 -16 74 -48 97 -71
23 -22 71 -58 105 -79 35 -20 83 -56 108 -80 25 -23 73 -60 106 -81 34 -22 76
-56 93 -75 18 -20 57 -51 88 -68 31 -18 74 -49 94 -70 21 -21 66 -55 101 -75
35 -21 83 -57 108 -80 25 -23 74 -61 109 -83 35 -23 70 -50 78 -62 8 -11 47
-46 86 -77 40 -31 76 -63 80 -70 5 -8 32 -32 60 -54 50 -39 118 -96 276 -231
40 -35 94 -79 120 -98 26 -19 71 -58 100 -85 29 -28 67 -59 84 -70 17 -11 47
-37 67 -59 19 -21 58 -56 85 -76 28 -21 66 -54 85 -74 19 -21 51 -48 70 -62
19 -13 60 -48 90 -77 30 -29 75 -68 100 -87 25 -18 57 -45 71 -59 14 -14 48
-45 75 -67 77 -64 136 -117 175 -154 64 -63 495 -468 565 -531 16 -15 43 -42
61 -60 17 -19 72 -72 122 -119 50 -47 124 -116 165 -155 40 -38 88 -84 107
-100 19 -17 41 -40 49 -53 8 -12 41 -41 72 -63 32 -22 58 -46 58 -53 0 -16 73
-85 118 -111 17 -11 35 -28 38 -40 8 -27 50 -71 101 -106 23 -16 45 -39 49
-52 9 -30 30 -53 91 -99 29 -21 55 -48 59 -61 3 -12 26 -40 51 -62 25 -22 58
-53 72 -68 150 -160 440 -474 589 -637 48 -52 114 -122 148 -155 33 -33 71
-76 84 -95 24 -36 46 -57 100 -98 16 -13 30 -29 30 -36 0 -20 58 -96 73 -96
19 0 61 -49 86 -100 13 -29 35 -54 61 -70 40 -24 90 -87 90 -113 0 -7 22 -30
50 -50 27 -21 62 -56 76 -80 15 -23 50 -67 78 -98 62 -69 86 -98 106 -133 9
-14 43 -54 77 -88 33 -35 67 -79 76 -99 8 -19 29 -46 47 -60 52 -40 90 -82 97
-109 6 -29 41 -70 58 -70 17 0 61 -50 86 -98 12 -24 38 -54 58 -66 42 -27 50
-36 82 -95 13 -25 41 -60 61 -79 37 -34 118 -146 118 -164 0 -5 28 -39 63 -76
34 -37 69 -83 76 -102 15 -37 58 -90 74 -90 13 0 33 -26 63 -85 15 -27 42 -63
61 -79 19 -16 48 -52 64 -81 17 -30 37 -59 44 -65 8 -7 15 -19 15 -27 0 -8 24
-40 54 -71 29 -31 66 -81 81 -110 16 -30 43 -63 61 -75 18 -12 49 -51 70 -87
20 -36 52 -77 70 -93 18 -15 47 -51 64 -80 17 -28 36 -61 43 -72 7 -11 30 -41
52 -66 63 -71 73 -85 99 -136 13 -27 38 -58 55 -71 17 -12 47 -53 65 -90 19
-37 50 -84 69 -105 19 -20 57 -79 85 -130 29 -51 68 -108 88 -127 20 -19 46
-57 58 -85 13 -27 41 -71 64 -97 22 -26 64 -89 92 -140 29 -51 69 -111 90
-133 20 -22 53 -69 72 -105 19 -36 51 -81 69 -101 19 -20 50 -66 69 -103 46
-89 50 -96 86 -132 17 -18 44 -58 62 -90 17 -33 46 -75 63 -94 31 -33 33 -39
34 -114 1 -65 -2 -80 -17 -90 -10 -6 -18 -16 -18 -22 0 -6 -7 -17 -15 -24 -8
-6 -35 -47 -60 -91 -25 -43 -54 -83 -65 -89 -11 -6 -20 -17 -20 -25 0 -8 -6
-18 -13 -22 -6 -4 -24 -34 -39 -65 -15 -32 -43 -74 -61 -95 -19 -21 -53 -72
-77 -113 -23 -41 -57 -91 -75 -110 -35 -39 -56 -70 -97 -148 -15 -30 -45 -73
-66 -97 -21 -24 -54 -72 -72 -107 -18 -35 -50 -81 -70 -103 -21 -22 -59 -78
-85 -125 -25 -47 -58 -97 -73 -111 -15 -14 -45 -59 -67 -99 -22 -40 -56 -89
-75 -109 -20 -20 -51 -63 -70 -95 -19 -32 -56 -82 -81 -110 -25 -28 -63 -80
-84 -116 -21 -36 -53 -77 -71 -93 -18 -15 -48 -53 -66 -85 -17 -31 -54 -78
-80 -103 -26 -25 -48 -49 -48 -53 0 -14 -55 -93 -96 -136 -23 -25 -63 -81 -89
-125 -26 -44 -63 -93 -82 -109 -18 -15 -45 -51 -60 -79 -14 -28 -48 -72 -75
-97 -27 -25 -57 -63 -67 -85 -10 -22 -43 -67 -73 -100 -30 -33 -74 -93 -98
-133 -23 -40 -59 -86 -80 -102 -21 -17 -51 -54 -66 -84 -17 -32 -47 -68 -73
-87 -25 -19 -56 -55 -70 -80 -14 -26 -52 -68 -83 -93 -37 -30 -58 -55 -58 -68
0 -12 -30 -49 -75 -93 -41 -40 -75 -78 -75 -85 0 -13 -32 -53 -111 -137 -27
-28 -49 -54 -49 -58 0 -14 -81 -115 -109 -134 -16 -11 -39 -40 -51 -63 -24
-48 -58 -88 -74 -88 -15 0 -66 -52 -66 -67 0 -17 -42 -83 -53 -83 -22 0 -79
-57 -99 -100 -14 -30 -42 -63 -74 -88 -29 -22 -60 -58 -70 -80 -11 -21 -38
-54 -62 -73 -24 -19 -53 -47 -65 -64 -11 -16 -86 -100 -166 -185 -80 -85 -156
-168 -170 -184 -46 -53 -165 -178 -237 -251 -39 -39 -79 -86 -90 -103 -10 -18
-46 -55 -80 -82 -34 -28 -65 -61 -68 -75 -3 -13 -28 -40 -54 -59 -66 -49 -82
-66 -97 -103 -9 -21 -34 -45 -69 -68 -39 -25 -59 -46 -73 -76 -12 -29 -34 -53
-72 -78 -31 -21 -63 -52 -76 -76 -13 -24 -45 -56 -80 -80 -32 -22 -66 -56 -76
-75 -19 -35 -83 -89 -106 -90 -7 0 -24 -20 -39 -45 -16 -29 -48 -61 -85 -86
-32 -22 -66 -53 -74 -69 -9 -17 -43 -50 -75 -74 -33 -24 -73 -61 -88 -82 -16
-22 -52 -55 -80 -74 -28 -19 -59 -50 -67 -67 -9 -18 -24 -37 -34 -42 -30 -17
-115 -90 -126 -109 -5 -11 -35 -40 -66 -65 -31 -25 -83 -72 -115 -104 -83 -82
-340 -322 -402 -376 -17 -15 -35 -27 -40 -27 -4 0 -30 -24 -57 -53 -28 -28
-70 -65 -95 -82 -25 -16 -62 -49 -84 -73 -21 -23 -59 -57 -85 -74 -25 -17 -59
-47 -75 -65 -15 -19 -54 -53 -85 -75 -31 -23 -66 -54 -79 -69 -13 -16 -57 -54
-98 -85 -41 -31 -80 -64 -87 -74 -7 -10 -41 -39 -75 -65 -35 -25 -89 -69 -121
-98 -62 -55 -149 -128 -259 -216 -37 -29 -70 -59 -75 -66 -4 -8 -42 -42 -85
-76 -42 -35 -83 -70 -89 -80 -7 -9 -44 -37 -81 -62 -38 -25 -86 -62 -107 -82
-21 -19 -66 -52 -99 -72 -33 -21 -84 -58 -113 -85 -29 -26 -69 -56 -90 -67
-21 -11 -54 -36 -73 -56 -19 -19 -62 -54 -95 -77 -33 -23 -85 -62 -115 -88
-30 -26 -80 -63 -111 -82 -31 -20 -79 -56 -108 -82 -28 -25 -68 -54 -89 -65
-21 -11 -60 -40 -86 -66 -27 -26 -68 -58 -90 -72 -23 -15 -63 -46 -91 -71 -27
-24 -86 -68 -130 -98 -44 -29 -95 -67 -113 -84 -19 -17 -57 -42 -85 -57 -29
-14 -77 -47 -107 -73 -30 -26 -71 -56 -90 -65 -35 -18 -90 -55 -159 -107 -20
-16 -61 -40 -91 -56 -31 -15 -73 -45 -95 -67 -22 -22 -66 -53 -99 -70 -32 -16
-77 -46 -101 -67 -24 -21 -47 -38 -52 -38 -5 0 -19 -9 -31 -20 -12 -11 -51
-34 -88 -52 -37 -18 -70 -41 -76 -53 -5 -12 -40 -38 -77 -58 -37 -20 -89 -55
-114 -78 -26 -22 -67 -51 -92 -65 -25 -13 -66 -35 -92 -49 -27 -14 -63 -42
-80 -61 -18 -19 -59 -47 -90 -61 -32 -14 -79 -44 -105 -65 -52 -43 -104 -73
-191 -107 -35 -14 -66 -35 -78 -52 -11 -16 -42 -39 -67 -50 -129 -57 -193 -92
-215 -118 -13 -16 -53 -40 -91 -55 -38 -15 -74 -32 -80 -37 -47 -38 -117 -89
-122 -89 -24 0 -175 -85 -203 -114 -19 -20 -39 -36 -44 -36 -30 0 -178 -78
-217 -115 -25 -23 -67 -50 -95 -60 -61 -22 -106 -48 -165 -96 -25 -20 -78 -49
-118 -65 -53 -20 -86 -40 -115 -71 -23 -24 -53 -47 -67 -50 -58 -14 -187 -82
-213 -112 -20 -24 -46 -39 -100 -55 -100 -32 -155 -60 -205 -106 -28 -25 -54
-40 -70 -40 -48 -1 -166 -55 -225 -103 -32 -26 -66 -47 -77 -47 -42 0 -166
-56 -218 -98 -36 -29 -72 -48 -110 -58 -81 -21 -151 -56 -205 -103 -30 -25
-61 -42 -85 -46 -74 -12 -149 -47 -209 -96 -44 -36 -73 -51 -109 -58 -73 -14
-136 -44 -199 -95 -30 -25 -68 -48 -83 -51 -106 -22 -155 -45 -227 -104 -28
-24 -65 -43 -85 -47 -63 -10 -153 -43 -207 -76 -29 -18 -53 -35 -53 -39 0 -7
-110 -42 -183 -58 -62 -14 -101 -32 -160 -75 -48 -35 -103 -55 -208 -76 -37
-7 -83 -28 -135 -61 -95 -61 -107 -66 -185 -78 -70 -12 -163 -52 -199 -86 -30
-28 -158 -75 -205 -75 -35 0 -98 -30 -166 -79 -45 -33 -152 -71 -200 -71 -34
0 -95 -29 -159 -75 -50 -37 -106 -58 -195 -74 -58 -11 -102 -29 -196 -84 -50
-29 -182 -67 -234 -67 -44 0 -131 -31 -190 -69 -59 -38 -146 -65 -272 -85 -91
-15 -135 -31 -182 -67 -32 -25 -156 -63 -268 -83 -89 -15 -162 -38 -173 -55
-18 -29 -144 -71 -282 -95 -97 -17 -135 -31 -192 -70 -45 -30 -132 -57 -261
-81 -61 -11 -119 -31 -180 -60 -107 -53 -123 -57 -334 -90 -132 -21 -179 -33
-240 -61 -87 -40 -185 -65 -356 -89 -135 -18 -165 -26 -250 -66 -33 -15 -76
-32 -95 -38 -43 -13 -322 -61 -354 -61 -13 0 -70 -20 -128 -44 -106 -44 -170
-61 -353 -92 -169 -28 -178 -30 -265 -67 -97 -40 -136 -48 -385 -78 -99 -12
-207 -25 -240 -29 -33 -4 -103 -22 -156 -39 -118 -38 -212 -56 -404 -76 -82
-9 -157 -18 -165 -20 -8 -2 -51 -9 -95 -14 -44 -6 -120 -23 -170 -40 -111 -36
-207 -54 -440 -82 -286 -34 -296 -35 -383 -63 -131 -43 -257 -58 -687 -86
-277 -18 -509 -42 -635 -66 -217 -41 -352 -57 -700 -79 -129 -8 -302 -22 -385
-30 -82 -8 -231 -19 -330 -25 -99 -6 -274 -17 -390 -25 -1033 -68 -2152 -82
-3175 -40 -74 3 -191 8 -260 10 -301 12 -1030 59 -1255 80 -88 9 -261 22 -385
30 -349 22 -483 37 -700 79 -69 13 -181 29 -250 35 -225 20 -343 30 -450 36
-339 20 -512 42 -628 82 -42 14 -104 29 -137 33 -33 4 -141 17 -240 29 -246
30 -324 44 -435 81 -99 32 -125 37 -405 70 -228 27 -329 45 -436 81 -91 30
-113 34 -354 63 -278 34 -334 45 -420 81 -87 36 -158 53 -330 80 -139 22 -196
38 -303 85 -51 22 -105 40 -119 40 -37 0 -309 48 -363 64 -25 8 -74 28 -110
45 -36 17 -78 33 -95 36 -16 2 -91 14 -165 25 -173 27 -237 44 -325 85 -57 27
-103 39 -235 60 -200 31 -253 46 -350 95 -55 28 -106 44 -190 60 -132 26 -199
48 -261 90 -46 30 -68 37 -233 70 -93 18 -236 74 -236 91 0 10 -82 33 -195 54
-111 20 -182 46 -256 91 -42 26 -75 38 -129 45 -119 17 -219 47 -289 86 -83
48 -146 71 -192 72 -69 2 -193 41 -270 85 -73 43 -96 51 -209 77 -68 15 -120
39 -183 84 -27 19 -65 39 -85 44 -21 5 -68 16 -107 25 -38 9 -87 28 -110 42
-22 13 -62 39 -90 55 -31 20 -72 34 -109 40 -78 11 -160 44 -221 89 -49 37
-87 51 -230 84 -38 9 -72 20 -75 24 -10 15 -95 70 -134 86 -21 9 -68 21 -103
26 -70 12 -118 33 -191 84 -48 34 -129 66 -167 66 -38 0 -139 39 -170 66 -51
44 -145 83 -237 99 -24 4 -56 21 -85 47 -54 46 -133 86 -190 95 -50 8 -89 28
-133 69 -36 35 -135 78 -202 89 -25 4 -56 22 -93 54 -51 45 -147 91 -189 91
-30 0 -80 27 -118 63 -36 33 -175 97 -213 97 -21 0 -75 28 -75 39 0 24 -148
95 -243 116 -16 3 -48 24 -72 46 -44 40 -173 99 -218 99 -26 0 -64 24 -89 56
-21 27 -85 57 -189 91 -61 19 -84 32 -101 55 -20 29 -170 108 -205 108 -8 0
-38 22 -66 49 -35 33 -75 58 -122 77 -38 15 -91 44 -116 65 -49 40 -139 89
-201 108 -21 7 -48 27 -64 48 -14 19 -43 42 -63 50 -20 8 -59 26 -87 39 -28
13 -55 24 -60 24 -5 0 -28 18 -51 40 -23 23 -78 56 -125 78 -46 20 -113 59
-150 87 -37 27 -97 61 -133 75 -43 16 -74 34 -86 52 -18 24 -49 42 -194 109
-27 12 -71 42 -97 66 -26 24 -52 43 -59 43 -24 0 -146 65 -189 101 -25 21 -78
54 -117 74 -40 20 -84 50 -98 67 -14 16 -51 43 -83 59 -91 46 -119 64 -160
101 -22 20 -72 55 -113 78 -40 24 -83 55 -95 70 -13 14 -57 43 -98 64 -42 20
-76 41 -76 47 0 5 -5 9 -11 9 -6 0 -28 15 -49 34 -20 18 -66 48 -101 67 -35
19 -83 53 -107 75 -23 23 -62 50 -85 60 -23 11 -76 44 -117 75 -41 31 -97 69
-125 84 -27 16 -77 50 -109 77 -33 27 -80 60 -106 73 -26 13 -71 45 -101 70
-30 26 -74 58 -99 73 -25 14 -74 51 -110 81 -36 31 -83 68 -105 82 -22 15 -62
48 -90 73 -27 26 -67 55 -87 66 -20 11 -65 44 -100 73 -35 30 -87 69 -115 86
-28 17 -68 48 -90 67 -21 20 -67 56 -103 80 -36 24 -78 58 -95 75 -16 18 -55
48 -85 68 -30 19 -82 58 -115 86 -33 27 -82 63 -110 79 -27 16 -68 47 -89 68
-22 22 -60 51 -85 66 -25 14 -71 50 -101 80 -30 29 -67 60 -81 67 -15 8 -44
34 -65 58 -22 24 -55 54 -74 68 -19 13 -37 26 -40 29 -30 30 -123 110 -150
130 -19 14 -60 49 -92 77 -31 29 -86 73 -120 99 -35 25 -80 64 -102 86 -21 22
-62 55 -90 73 -28 18 -58 45 -66 59 -7 15 -40 45 -73 66 -32 22 -72 57 -89 77
-16 21 -51 52 -78 69 -27 17 -65 51 -86 75 -20 24 -55 55 -78 68 -22 14 -66
51 -95 83 -30 32 -60 58 -66 58 -5 0 -43 30 -82 68 -40 37 -89 82 -110 101
-21 19 -109 102 -197 185 -87 83 -172 161 -189 173 -16 12 -39 35 -50 50 -11
15 -40 44 -65 63 -48 37 -68 56 -118 111 -17 19 -56 56 -87 82 -31 27 -57 54
-57 60 0 7 -17 23 -37 37 -57 38 -113 91 -113 106 0 7 -21 27 -47 45 -69 46
-93 70 -108 107 -8 17 -20 32 -27 32 -25 1 -105 68 -121 103 -10 21 -34 45
-60 60 -50 30 -82 62 -96 99 -6 15 -33 42 -64 61 -39 25 -60 48 -76 80 -15 32
-36 54 -66 72 -39 22 -104 98 -105 122 -1 4 -21 21 -45 36 -25 16 -60 50 -77
75 -18 26 -44 57 -58 68 -50 43 -66 59 -82 82 -8 12 -76 87 -150 165 -74 78
-152 162 -174 187 -48 55 -156 170 -249 265 -38 39 -76 84 -84 99 -8 15 -39
46 -68 69 -29 23 -62 61 -74 85 -12 25 -42 59 -71 80 -32 24 -58 55 -74 88
-22 46 -69 94 -92 94 -4 0 -26 30 -48 67 -23 38 -53 74 -70 83 -16 9 -47 44
-69 78 -23 33 -53 70 -68 82 -14 11 -45 48 -68 80 -23 33 -46 60 -50 60 -5 0
-9 5 -9 11 0 5 -34 48 -75 94 -41 47 -75 91 -75 98 0 7 -26 37 -59 66 -32 29
-67 70 -76 92 -10 21 -37 54 -61 72 -24 19 -62 62 -85 95 -22 34 -54 70 -70
79 -16 10 -43 40 -58 68 -16 28 -50 73 -77 100 -27 28 -61 71 -76 95 -47 77
-52 83 -101 139 -26 29 -57 72 -69 95 -11 22 -42 62 -69 88 -26 26 -57 64 -68
85 -10 22 -38 58 -61 82 -23 23 -57 69 -75 100 -19 32 -41 64 -50 71 -8 7 -15
18 -15 24 0 7 -14 25 -31 42 -17 16 -53 63 -80 104 -26 41 -56 80 -67 86 -10
7 -44 51 -77 99 -32 48 -67 92 -77 98 -11 7 -33 36 -50 66 -17 29 -52 79 -78
110 -25 31 -69 90 -96 131 -28 41 -64 89 -80 106 -16 17 -42 55 -58 85 -16 30
-51 81 -78 114 -26 33 -59 82 -72 111 -13 28 -47 78 -74 111 -28 33 -61 82
-75 109 -14 27 -48 78 -76 112 -28 35 -62 88 -76 117 -14 29 -48 79 -74 112
-26 32 -65 88 -85 124 -21 35 -55 85 -76 110 -22 25 -51 72 -67 104 -15 32
-43 75 -61 94 -18 20 -52 68 -74 106 -23 39 -57 88 -77 111 -36 41 -36 42 -34
124 1 79 3 84 36 119 19 20 47 59 61 87 15 28 48 75 72 105 25 30 59 83 77
117 18 35 51 86 75 114 24 28 55 74 69 102 14 28 44 72 67 98 23 26 65 90 95
142 29 52 69 111 88 131 19 21 44 58 55 83 11 25 44 73 72 107 28 34 73 102
101 150 27 48 60 97 73 109 13 11 38 50 57 86 18 36 50 80 70 99 20 18 45 51
56 73 11 21 27 48 37 60 91 112 124 156 152 203 13 22 44 63 70 90 25 28 59
73 74 101 15 28 40 58 55 67 15 8 44 44 64 80 21 35 55 81 77 102 22 22 40 44
40 50 0 6 13 26 29 45 15 19 36 50 46 69 10 19 39 58 65 85 26 28 57 69 69 91
25 48 40 66 66 81 11 6 34 35 50 64 17 29 54 79 83 110 28 31 52 60 52 63 0
14 93 143 134 186 22 24 55 67 72 95 16 28 44 60 61 71 17 11 46 43 64 70 46
69 70 96 96 106 12 4 33 30 47 56 25 50 56 86 99 115 14 10 34 37 46 60 12 24
48 70 81 103 33 33 60 64 60 70 0 6 12 23 28 39 15 16 34 40 42 52 9 13 36 45
61 71 25 26 57 67 72 90 14 23 43 54 63 69 19 15 52 53 71 83 36 57 79 100 99
101 7 0 23 24 38 53 26 55 59 92 97 111 13 6 33 31 46 56 22 43 52 75 105 113
14 9 31 30 38 45 8 15 46 59 85 99 38 39 103 106 143 150 261 280 401 431 418
451 10 13 52 58 92 99 39 41 72 78 72 83 0 5 25 28 55 51 30 23 55 48 55 55 0
8 4 14 8 14 5 0 15 12 23 27 8 14 37 43 66 64 28 21 62 57 74 79 13 23 45 57
71 75 26 19 59 53 73 74 13 22 49 58 79 80 29 22 63 56 75 75 12 19 51 56 86
81 36 25 65 52 65 60 0 8 19 29 42 47 23 18 72 63 108 99 36 36 82 78 103 93
21 16 41 35 45 44 6 17 54 61 114 105 21 16 38 34 38 41 0 7 19 28 42 47 23
19 72 63 109 99 37 36 112 106 165 155 54 50 121 113 149 140 93 91 187 177
274 252 47 41 109 95 137 122 28 26 67 57 85 69 19 11 54 42 79 69 25 27 61
58 80 70 19 12 55 43 80 70 24 26 62 60 85 74 22 14 56 45 75 68 19 23 54 53
76 66 23 13 55 40 72 59 16 19 62 57 101 86 39 28 74 57 78 63 5 7 35 34 68
60 93 74 96 77 165 136 35 31 71 61 78 66 8 6 45 38 82 73 37 35 80 72 96 81
16 10 45 36 65 57 44 46 51 52 110 86 25 15 60 42 76 61 16 18 56 49 89 67 32
19 79 53 104 76 25 23 77 62 116 87 39 25 81 57 92 72 12 15 50 45 84 67 35
22 83 60 108 83 25 23 72 58 105 78 33 20 76 52 95 72 19 20 63 52 97 71 33
19 80 55 102 79 23 25 43 45 46 45 14 0 116 74 150 110 22 23 66 55 99 73 32
17 79 51 103 76 25 24 71 57 104 72 33 16 83 50 112 76 29 27 79 62 111 78 33
17 82 50 110 75 28 25 80 59 115 75 38 18 81 48 104 72 23 25 70 58 111 78 39
19 95 57 124 85 29 27 58 50 65 50 29 0 116 55 159 100 26 28 56 50 65 50 23
0 84 41 149 100 30 27 77 56 114 70 44 18 77 40 113 78 29 29 63 55 77 59 34
8 88 40 130 77 50 45 97 76 114 76 34 0 105 41 151 88 28 28 64 54 80 57 51
12 116 48 169 96 28 25 60 51 71 57 30 17 97 14 121 -6z"/>
</g>
</svg>
